<mxfile host="app.diagrams.net" modified="2024-02-15T01:17:46.286Z" agent="Mozilla/5.0 (Windows NT 10.0; Win64; x64) AppleWebKit/537.36 (KHTML, like Gecko) Chrome/121.0.0.0 Safari/537.36 Edg/121.0.0.0" etag="5GisufytJ0R4C3Wv8yI_" version="23.1.4" type="github">
  <diagram name="Page-1" id="jLIibtJK-Ugl-xPA5zZ6">
    <mxGraphModel dx="3282" dy="2496" grid="1" gridSize="10" guides="1" tooltips="1" connect="1" arrows="1" fold="1" page="1" pageScale="1" pageWidth="850" pageHeight="1100" math="0" shadow="0">
      <root>
        <mxCell id="0" />
        <mxCell id="1" parent="0" />
        <mxCell id="oHHJMI3wJ40QlP4dIWHs-2" value="" style="shape=image;verticalLabelPosition=bottom;labelBackgroundColor=default;verticalAlign=top;aspect=fixed;imageAspect=0;image=data:image/png,iVBORw0KGgoAAAANSUhEUgAABPMAAAObCAYAAAA2YMQXAAAAAXNSR0IArs4c6QAAAARnQU1BAACxjwv8YQUAAAAJcEhZcwAAFxEAABcRAcom8z8AAP+lSURBVHhe7J0HgB1VvcYhoelTRClSktADKkV9CggKWHhYsD+sKCIgKAgoqIAg6tPHU7FXFEHEglhB6ZDQpPeS3giBQEgH0rac9//Nvf/wzzBzy+7d3bu73w++7N4zp8/MuTPfnjOzlhBCCCGEEEIIIYQQQgghhBBCCCGEEEIIIfqGe5MkSZIkSZIkSZIkSZIkSe2qB19SNfKAACGEEEIIIYQQQgghRPtwzwKZeUIIIYRYg6XbjO1cuNV2aeGW26Ylo3ZISzcfmxZuvH16aquXpcVb7ZwWbDk2LRi1nWmbtGTL7dLTm++Ynn7pyyuy35dusX1atOWOaeFWO2Txnhy9baYFW22fFm+5vaWxfE2Lt9whLdlirKXZKS176cvS8k13Tk9tvrOFj820dIvt0rLNx6SnthydFo3aOi0iv612tDwtr9HbWF22sbDt0nyr4yKrC/Eoe/GWO1ndd87iP72FhW+xrdVnB8vb6mlaYPEf23rbNG/MNpZ2W4u7k7XJZHkv2XKbtHSr0ZY/+drnLajTWEu/fdaehRanIuufUWOsDlY/yz8rYyuT1XPxVltbPcZaupdl5dFH1HHBqO2z+i3dwupr7UOLrZ+WWvtp99NZ2y3eaPIlT+tH6zP6cKG1j/YusDKXbDnG2mVx7PcFo7e2eDum5ZuR/tm+pe3UnzIXEWZ5L9ri5enxMdulJ8aMSUtppynL29qzOOsva2O2T7e1bd6m7St1Hz3Kynupfd4mi0++9MESawt9/MwWW1marbNt7Hva1azYRwvYx1tsf11aa791qoejEEIIIYRYA5l5QgghhMixcNT2nZg1T4zaIc3ZYof06KiXpUfG7JJm2M9pW+2UZozeKU3degfT9mnGmB3SrFFj08Nbvdz0ivTwqJ3SrNE7pumjx6ZpY9AOaZrFQzNH72DacbVmWJyZo3a2NDunRyzfR7Yca2nHpuljdrZ0O1ucsWnOVtulh0dvZ2Em+1wpe3uTfUaW/1SLO2PMjlk8yiZPys7qloVZPS3tw1bP2VvtmNV90rbbp8nbbJf9Pn3My2w7ou7bZ2kIn7L1TpbXy619O1ucHa0NtGenqux3K3+G1evhUVa29dX0Mdtanba1MNq6s6V7eZpt28hzqqWdujW/01+0nX60Nlqfkj99SNup5zQrm/Zk/Wg/qcs0y5N8KW8mZVod+Z1+oM/nbEk/0q+UXen/qVb/aVbmDPrd6jJ99CuszdYuazdtJC77p9KvtJH2kX57y6sitk2h7ttsnWZsvZXF2S5Ns76iPdOsbuyj2db22aO2zdpJ30zP2ta8HrU+WIABKTNPCCGEEKIGMvOEEEIIkWPhVtt3zttqhzR7u93SAy/fK9306ten8Xvsl8bt/cY0bq/90vV77pvGve4N6ep93pCu2bsiwjO9rrLtWtO4vSq6bs83pOv3eEO66bX7pBvt53V7vimN25O8LO5q7W3575Gu3nvvdOU++6bL99nP8tg/3fDa/dJ1lu81e++brt2LNKbX7ZOu3ft1FtfKft0bTQek8ZYn9ULXUeZer7N4r7N4+2R1Gm9lXL/XPqa9rJy9La3lUa3nta/bz7bvl27YY99M1++5j7Xt9ekqa1+lXfta/Iqyz9Tdyrt2r/1NVj/7/bq9Xp+u3ee16Zp99rL67J+JvK/fa890w157ZL9T3/Gv29vCXmd6vfXJGy3tm7P8x1l7rrV6XcvvhNFHlve1VndXpZ8q/Uy51+y93+o6Xb9npZ7ouj33t/7YP/t9vPUFoo30IX033vrhuuo+zPrH6jLO2nJNNQ7tv3EP6yuLQxuvzsLpc+s76rLXmyzM4ltc8r7OyqYPxpOHhT1b18ZEm68z3b/Lf6bHR8vME0IIIYSojcw8IYQQQuRYsMV2nXNH7Zju3XqXNP+8v6Xlkx5OyyZOTcunTLLfJ6flEyenZZOmpGVTTFORfZ48yWS/T55eFb+bSDdhelr+ELL0Eyz9pFlp+eSZJtJV4015yPJ50DTRNDU9M22qhVmaSTMsHvlNszJnWH72+yTblqWzz5OpG7L8Jk6z+FYedZxk+Vh9l02xdMSbaPmwPauniTxc5GXtWf6QpUUTqY/VjXbRTm8ryj5TDvWoauIsy8PiTru70obJ9nnKzCyP5ZMezJRtn0xZ1gdTJmT1Wz7B8rF6ZeVPtfZPoc72O2FZO/nd6s9n2p613/JGkyz/1X1NGxFpaKf1b5ae8qlvtY3Ux/bdcvZJlidxbJuXQT+RfoL3Q7XMrO+rfeXtrYYvtzYtpy4TH7Ew2kxZHrdBkcfsOWneD3+WZrx0TFqwxbYy84QQQgghSpGZJ4QQQogc80Zt3Tl72x3T9TvsnhZccXNKHd3J/jGtTKnb1Lkqpa5O+9xl4qeFZdssDlEzWXinbbeoWVKiddsG4mQRSMtGU7f93mUiPj+zyJ4/EN8+k2eX/e5R+Om/k7fHycohzOTk0xCHvIhPAHXotN9RVoeqsjZ5Pfk9fkbEJyr/PGVabgqQbyaLl9UR8Tv95XmQlnB+so2wal93WBhdFqNUo2VlZvlW8/bss7h8Jg/bln2u1jv2X5ZHkIflt2X7x9KtEZ/87RcvN4vnsohNicQpPXnhn9PEzbdOi2XmCSGEEELUQGaeEEIIIXI8OWqrzke32yFdN/bVad5l/86Mm47UlVallfYvphAmTsW/6TR1Bfenu/pfFoEflairRVzy6rD/Oi1Hcl7DiCIBYbaVj/xWyQ/Th08V4+fZ+PxDGGW7qpvtH/89oxKtiv1SNdEqcfiXMhDbKz8qLaLcZ0032uCtyGKtzvfZentQNass1Rp1o6xqfPBwUpN7tp26eCYI/PfsM2mtXlncStgam7Ptld8qZdHf1c+r62xUg7y/sn+qYZVfLOLqjcAvlNvxbNTqNvKvlNGMKsy96M/pIZl5QgghhBB1kJknhBBCiByLtxrVOWerMen6HV6Z5mPmdVbsrJXdGFjdFf+l6u+sJvsddwiTB3Vn27GT3FKqRLd/MakstJKrpclmefF/SO+mGrLys5mAXYSTphpejR8NxkqYwe/8irJw8rAfWWX4Jz+T0P6p1svTElSpIR+q4UYW3VSx7QwikdTIQjwCUKbRmeVigXyuhnkkj47YRHbZltXxjKx9lfgeGdMPQzSrG+UT38LZvGYR/IPxtsqiZQEW335av/OpO8uX+lVyrPQFYb6PqmFVKkak9V+mKqvzqLazB8y98K/poc23kZknhBBCCFETmXlCCCGEyLFo9OjOOVtvm8bvuFuaf+VNmelTnSuW/cy8GhQMJH5UTBzMOAygymbXarJ0GH2VPLsx8ixC9Ydtr+QEmceXfeSXqsmHKWVpyYZ/sY6Y49fZ3WnRqqVly0+zCCZiYUnZvx5mcbqqswyp87P1e9aVIy7FUvzqZKt/sVgWYbXpRpJKlTPY1kUGVL7DNrJM2beTYHXcUHo1X6Dc7Kcp66PsN5O1q9JvlZ5YYVtWZjEsxMqq9EV3Fp61N/uvkk+lt5ldWW2h9RWxKqHEWFEVBh0xEIYnKSoVyvLh16x9FRO1WrNqOGkq+74nyMwTQgghhGgEmXlCCCGEyPHk6K07H95mh3TN2F3TvKuuTxWjCAOsYiQxqctNOHwezKsVFqcyqwszCGenAHweEx6X2z5ZPh3dqSt75lwJPMcuM4+q89uCwQQkrcxRW5m6rPzuLkyoZ2eNdXexKNbiZWZTY2BxZXWrQp0Jq1hXtaE+HTxXEHOsw+qx3ErnYyOQfWb+Zb2TBWWB1gfUp9sqQsueMWHYVWA7oc+2uRG6O5bZv9WKMfORunavSB3WfxWD0D53YvBVseJ8pXMX9bD9kJmBdI7Ddsxa+9GMYO6f/iIzTwghhBCiLjLzhBBCCJFj/lY7ds7eeud07djd0rwrr0uZk4W5Y/hvXTh6mQlXmd+V2WXdvPxhZVo6aVK68ivfSH8/8eR02cmnpstO/Hy683s/SJ2PP52ZPcziWmXCo6u8cGKlJXsm3ffb89M/vnRq+vtJp6d/nPjlNO6rZ6bFd9xXSYCBlJVv/3YsTYvGX5Nu/+wp6eELLs22V6JgIpHpstT59LR09/k/Sbd/96epe/YCCzPmTEoTfvT1dK3V64oTv5r++aXT0t9POdXKPC1d8oXT0sVfODVddMpX0pz7KHNF6pz/cLr9lG+miT/4TepehUu1PHUsnJEe+vkv0r+PPTld+/mTLO1J6e+nnZouPvmL6Z/HH58mnf+X1L2EBuJpWW2p2Iqn0zPjL043nfK5NP7EU9O/jj/Z4p+W/nnyKVbmSemSL52S/mLt/edXv5fm3zXVGmJp5j2cZvz6O+maz38xLb5/TqXx2T+VJxdmrXzotnT3V09Icy+5IqWnOtPCe25P//rml9PfvvCFdPlJJ6VrT/p8uukLX0q3fOH0dN2Jp6UrTjol/eOLX0h//8b/pll3PJC6O1emOTdcki456cvp0esnWb9ilHZUjNWss60eCx9Pj/72p+mm009Pi+57ePU+x8ZbZXEx89KKRWn2xRemq8/4ltV/Fg2nsk0z90KZeUIIIYQQ9ZGZJ4QQQogci7bYufPR0a9I43fcPT151biUTTWrzr7CLsM0y8wefLhuPjOD66mUls5LD513brr21K+kWX+7NE29+Mo04+LLTH9Jd59yYrrqqBPSilseSGlFxXzrZglq57K05O6b0tWnfCFNOOecNO3SK9O0S0z/uibN/tsl6c6vnJZuOuvHqevRpVn5WaHLH09LfvH9dO1Ltk53vuEDacktEyuGXlZFMl6cOubdnq785HvTZQd8OHXfOScLTg/dkG4+6DXplgPenWb++oo0/eLr0tRLrsg0/R9W5t+vSpMvvTY9NXu2RV6UOh6+N133sn3TPW8/KnUvw8x7JnXNvj3d9t8fTA+89l3p4V9ckKZd9q809dJL0rQr/pWm//HCdNdxX0yXf+qLaf5dk6xK9A3JnkyLfnFGuvJV26bpXzgjzfjbNdZGK/OfVqb1z/R//jNNucR+XnlLWj5rUaWu0+9MEw55Y/rLZtumhz/3k5TmMovO6KrMkCTK8kv/kG7a5aXp4TO+l9ITXWn5zEfS9KsvS1P//q808+JL0uyf/tD6503p3jd/MD3y8wvTrEsut3L/lqZedVVaOmt+Sh2r0qRf/V/6/qhd06RfX5e6fUZddd9C1/23pEnv2jf9eUurx5m/Td2LOrK5fJi3Hd3YihZ56Zz00Fc/ky74z33T3Mvu46CoJG4SmXlCCCGEEI0gM08IIYQQOZZuvnPn3K0w83ZLT151bcWcyVyeiljqyS/8yGZmdS1LaencNPmXP09/+/Cn08IrbstmcGVkbtaq1Dn9/nTDB9+VbvrooalrxvyqWWSp77o+3frhd6cHvvo/qfPJpwgMPJ2evv/6dN0njkzTT/pOSnMWWhhLV2emZb89K923007p3i12SzM+9b+pe+aSShLoXpo6596a7jz+Y+nmd38mdd8+t1L3h25Md39wvzTx059P3Q93VOqQNSVrVLWuwC/zU+fM+9K9rz4oTXn3iZYlYctTmn17uvcjh6XH3vP5lCZVjbfVGaW08t5b0rhPvDdddvTx6ZmpT1a2P70oLTr7m+mqfV+XFvzR+pO+wRtcAyJaPtapWU4z70kPH/mOdNeYHdKdYw9IS84fl9JTFqcSJYvTdfmf07177Jwe+8aPUlpQDQR+dts+mXRjeujgD6eHP/bl1O118YKJs+KZNOPc76ZfvWyPNOV316du6lX531hlvyxKj17ws3T769+QJuz+xjTrvcemrgcfy7qK9barlzsvfjRN/cYJ6ZL93prmX/FgpX1ZnAZVRWaeEEIIIUQjyMwTQgghRI6lm+/UOXfUy9K1Y3dJ89zMywwiV0fq4hlu9nsHz1rrfDotu+Ff6Z9vf1ua+IPfV0ynDotmPyoviuDDU+mZP/8y/XGv16a7f/zH1L3SNj79WJp42ufT9fu+Ma249f5KgqonxTLOzvS0/bY0zTvn7DRu19eneX+81Dba1lWz07zzvpUe2GvvtGDvt6V/b79nevjsP1NYJXHXU6njsdvTvz99SBp/0KdT9z1PVPJ+YFy644P7p5uPPjGtnPlUJW5mTLIc1sqzvLHlWDya0uLUOfP+dPer35mmvPdLVn3iLUtp1r/TvR8/Ik17/xdT98T5lp7/syfHZV3DjL4Fl/0i/e0tb0uzfnFFSs9YXs8sTkt+fma69C1vSTMvvN7q353NgqMUtNz+obXdlj+LaLMn381+ME057G1p2uv3TA+++oB07ZsPS8vvtnawkUT8uOyidPdeY9Oj3/qhFWt1twpgr7EMNqUladXUcemWjx6apn7sq6l72pPZbuzoXmVdYe1leXPHU2nGr7+fzn7Fa9PkCyoz8+iPiln7TOp48t50ywlHpNs/+cXUecaP0m2v3jc98YfLrA7EoyBrNWkWzknTvn58unj/t6Z51zxU2Q9sb1RVZOYJIYQQQjSCzDwhhBBC5Fiw1fadj4zZMV2188vTE9dcnTIjDDLzhRl5vCShYnllCzOXzU9zTjo63fTGN6TOWx6sOEorbVtXxXfKzCHSPDIp/emYY9K//u9XqXtlZ1p2/9XpioPfmyZ9mZllqyq+Dv/gJfGD2V/MxJtwa7r94Lele076aup8zD4vX5Qe+/VP0x0HfSx1f+sn6aF3vy1ddcBB6ZkbJ2ZGWep6OnU+eW+64djD0zXv/Wzqvv9xy9cq9eBV6a4PvTHdccwpqfuJaiEFsJC0Oy1MHbPuT3e+6h1p0nu/kLqXEX9JSo/ckG772MfShA98LnVPm1tJUDUhK8+KW5rSrNvTXYcclSYcfLLFmWd9sTgtPvsb6co37Zee+OvNlfgldFq/ZmbejPvShI++Oc054ZNp6Xd/mK5/5X+l2Z/535TmWTvczLvi9+m+fUalud/6VkqLK4HMu6u87mNJWjntpnTjRz+RpnzsdKvHwooni1lHBrzcomtBmv6b76ZfvmKPNPWCGyoz8zBns/Y8lRb/+6L0N6vzff/7u9T90LR080cPSrdb33XMWJbVgSZnLVn0SJr+9WPTX/Y7MM29xvZ/jfbVQmaeEEIIIUQjyMwTQgghRI6FW+7QOWf02HT1TrukJ64Z96w5Yz+qT1WzoMp8tGy22qKZadoHPpDuf9O7UtdMjDMLrs7OyiaJdXSltLIzpRUrTPbTkqSVT6dZf/9xOu81e6SpP7kspeWV58tlRVmUTAbz+tKTE9NdJxyS/vpf/52W3P2YpV+aHv31L9P1b/546r7y1jTnL+elv+++e5pwxMmpc85iS9WVOp68P40/7rB0zfs+k7rvnm0ZWYb3XZnuPXj/dP37Dk1Tz7syTf7XdWnS5Venif+6xn4fnx7857i0YNajViaFL0qdsx9Id//nO9OE9530rJk3+/p0+6GHpgkftLDpj2VNzf7pwOS0ON1PWbQZaeIRn0/3vOYDaeX9M6wti9LSX30tXbvPf6YHT/lemv73cVbev9LEyy9NEy670upwbXrgsmvTlJvvSN0rMeKMqXenhz5+YJp64jGpe9LsNOWoE9JVr3pDevyCK7KyoPOKC9K9+2yRHvv2mVZmZaYktazML3w6LZ9+c7r+kE+kqYeelrqnLKzU08TbfSu236I07bf/l37x8lemqb+9LnVjhHZX7MC0ZG56/GsnpmsOem9aPH5SSquWpdv+77j0m1ftnxZePjmrA7lki4IXzUrTvnZM+ut+b0tzmZn3HDOPo6Yyd7FSv2cVmXvh32TmCSGEEELURWaeEEIIIXIs3WKHzrmjdkrXjt09zbv6+tXmDP9i4GSfcGKY3ZUWpO6Fk9M9+70nPbj/J1L3At5oa5s6V1VMIyITl4TM2EP4RV2L0+Rzv57O2Xn3NPP8GytmmAVnVNNgFHXxhtwVj6bbT/50+s2r35gW3jQ1pWUL0mO//lm6/r+svCvvTGnJgvTkGaenG7bdNT16zl9T94qO1Pnk/em6z340XfO+I1L33Q9X8rz/+vTAwW9K1+97YBp/1BnpihO/li79wmnp0hNPS5ef+NX0t89/LU3/910WF9uJF2A8kO569UGVmXnP0IhlKT18c7r9Y4enSR9g1t2TlTrbP5UXwBLnmZRWPpGmH3NKumnM/unp2yfYhiXp6XP+J92w18vT7f99eBp/3NfTFSednv75pS+nS750arr0i19Ofz3pK+nKn//W6k4exrQ70v2Hvi3d93kr52HrgztvTdce9JZ08X8dklbdV3kGYNcVf0z37DM6zf7Ot1LKlgFX8GWyy2f8O113yMfTlJyZh/jBi0Km//Yb6Ze77Zqmnj/eyiZTdtSy1DnhzvTAf701TTv2FItm+XUvTU/e9Oc07i3vT4994ZcpzWcnkovVbfH0NO1/jk9/3+/t6fGrH7R9XS3AZf2CjcerO5hrybzHihFY3Vxl7h//libIzBNCCCGEqIPMPCGEEELkWLLlqM7HxmyTrt7pFemJq69Lz5p5WDK+TBMrhil2i1JaMCPd/8YPpPv2/Wjqml95iUVXV2emLE03s8YsTRdOHhtNK59Kk375v+nXO786zbrg5swAyuJYUVnW2a/8t8J+fzTdeuqR6bevfnNadOPDKT29IM39zS/S9f91aOq+HPPNEj14a7r9nW9NV+/7rtTx7wdTeuzedMPxh6Tx7/tk6r57VpZvuu/GdN/735SmH/3ZlGYurS4Htn+Wr0xpRUelXlnTMKqWps6ZD6a7X3lQmvKeZ8287kduSbcdcniadvCXUveUeVm+1DdLkhlhSzLzceaxX0r/HrNfevrWCZbn02nJ2f+bbt73dWnZBZdbNpaIZ+mtqmqlZUBSirDmZky/I9172NvTnZ/7cuqcvdziLE1z/3R2+tfLX51mfv7Mygs5Lv1Lunvv0WnWd75dfaafQTs7+f3ptGLajen6Qw5JUw47NXVPrT7fj+1G9qNrcZrx22+mc3Z7VZp6/riKmccMys7H0oI//CDdsec+qfvcv2azJlm6nJ6Zk+Z/5vj04KvekVb9e4rFY/9Y/MUz07T/OS79Y/+3p3lXVZ6ZR/7Vogx+qxh6lSMIW486eqxKzMcv/Eua+FKZeUIIIYQQtZGZJ4QQQogcC0dv1vnItqPSlS97RXr8murMvMxzwYBZab8y+45Zebhhy1P3orlp4ns+ku5/y/tT95wnLMyoeks8v42XOnSnp1PXkhnprj/8Ot3+49+k7ukPp+l/+EX67Sv3STN/cXV1me0Ki2f/kbazUixh6amp6fYTP5b+9sb/Tktvt/yfWZzmnPvzNP6Aj6fuK+61uDhhC9LjF/08Xf2qfdKUjx2fOu+7Kd322cPSuPcclrrvf7RSn/tuSHcf/JZ021HHpVUzF2VhXV2YhdaGrpVZXbtZF5yZYU9lZt79u2PmnZi6lxP2TMXM+9hhafrBJ6XuSY9V+qVa30o6y3fRhDT18GPSXbu9K624a4Z104q05BffSle98c3p0T9Yf2LmrepIqcP6EPPMymTZctZmy4Is0/Q7072ffEe6+/NfTl2PPGMBFrpgZpp+9MfSlbvvnWb+8abUffll6b69t00Pf+e7qXsJZQP5VMzIlVOvTzcc8pE0+bCTrb/nZUueqWaWP/90PZWmn/+t9KudX5mmnjs+dVOvld2pc8H9Vu4H0jWvfG26/SOfSVd/6Yx06WmnpatP/2K6b7+901077JLm//AvKS3GnDOWPpymfOOY9Lf9D0zzrnowaw+1WV2O/8ycRJR1lolYiN9TmvunP6UJm28tM08IIYQQoiYy84QQQgiRY96Y0Z2ztt0+XbHzK9PjV9+cmTMV38V+8ibbtCLxhlrm3WV2zrLFadFXvpRufMub06o7JmTLaJmkVlltydwtzJqlaeUjN6dfHvDadOH7Pp26H12cltxzZbrsXe9L047/fkqPLbGYK62IjtWeDzO4eMNruvvq9OD735pu+shxafnkxSmteDLNOvfHafyBH0vdV96VmEnX1WXxnlmQZpzyhXTD7rumFb/4SZr2yaPTTe89OnXfM6fiIT1wY7rrg/+Vbj3mS2nlbN6USxnWAmYOZu1hNiFmIvV9KnXOejDd88p3pMnv/Vy2dDebdTf7pnT3YZ9Ik9/Ps+wqy3e7q2/2zQy57oUpzbkzPXDo0WnyQcel7inzU1q5LC35xTfT5W98Y5qNmbeSXllh5SwnkbW5Yorx7/IulqIa025P9338renuE05JXbOfYaPp6dRx3+Xp8gPemG77yBdS949+kR7ce6c069s/qph5ZJJlVOnvFdOuy8y8KZ84tbIk2LaRTbUw01Np+rnfTufs9No0/bwbKjPzlq1MK8dflMa9bc/0wPGnpRkXXpEe+us/030XX5oe+sc/0pw/nZ3GvXXfdMW7jkwdE5dWfLinH0lTvnVs+usb3pQev6LyVmKKeLacoAzbUOmwiqob5l50UXpIZp4QQgghRB1k5gkhhBAix7zRO3TO3OZl6cqd/jM9ceUtFVfOzZhuDLzK+1798Xepc1laNe7P6bKD9k+PsCzzGYvTWdmGVZO9SXbVorTisl+ni9/8uvTAt85P3RYnPTMj3XPqSWncfu9Jy25/IMu728vKUrKMd3Fa+Nufpete+dr0yC/+krqfsoxXzkkPn//jdMPbDk3dV9xpybqsihbf/u+YfFe66b1vTA+9fp80bb/3ptve/dnUfU91Bt0DN6TbD35zuuUzX06rZvJsOwvu6k6dmetoqpqW2dLR9FTqePjBdNer354mv+/41L2c9a8LU5r173TXIR9Lkw4+NnVPe8TCMAN5EhxWHD2yNC0a95d06YHvSg9/98LsxRTp6cVp8S++li598+vTrAvHWSUx8J4yMeOOumMm2n9W/Ar7J3uv75Tb00OffHe65/iTrR5PVerPlu7H0uwLf5mu33XvtOhNB6RJ//mK9Oi3fpXSIqt4tn9oCr8sTStmjEs3HvLhygswpi7I8s/gJ+pcmmb95rvp3J1fl6aee0Ol759Zmp445bh0876vTx3X3UtmWZJnWZTu+Z8T0j/3OCCtxJhkPy59NE058+j09/3/q7LMFkOUqPxDVehOZJ9XhwdVY8vME0IIIYRoCJl5QgghhMixaKvtOueM2TGN33HX9OSV12XmzLPmC9bLqsoz8Trdo+lI3UumpwfPPCVd8+6PpJU3TajEXc2K1DV3RrrrsCPT+A8enlbNnl/JM61My/59Wbr6ff+V7jr5f1IHz7Fbg6fS8nsuT+M//MF036dPS10zn7SwFSl1TE+PnPeDdB1vs730nsRbZFdZftlz6zqXpaf/8ut096vHprvGjE33ve2zqfuOJyr1mXBduu3D+6dbjv5iWjXjqcxtzJa12rbVy2v5wQzBtDR1zJ5g+RyUprz3uNT9DGbe4pRm3J7u+sgRacoHv5S6Z8f6Uvjy1DHlznT34R9PV374k+mphx6plPv04rTkF19Nlx6wd5r5l2srBWb4zzXB2kvT70n3fPzd6e4Trd2PPlOpVyd1WJG6n5iWZn3+iHT3Ni9N947aJs3/xnkpzbe6Y5xBZuYtTiumX7uGmVcpjjay14i/KM0891vp3Jfvkaade1PWB90Lpqdb3/6OdNc7P5q6H6/MXsSiRJlJ2LU4rbrzmnTH6/dPEz9wdOpebHktnZemnPm59Nf93p6evHYqEbN0z8GC2ZLfWpmXKDNPCCGEEKIxemHmWYSLTKkZda211nzTXaa/2+eDTZtUs2sKS9d02fVkdZpuP7erFrEGFr5GeRb3/OqmnrCFpZ/bi7xe0L3WWsda2uss7SzPJ+RH//7Ufj+4Gr+V7Gj5/l+1jKdy5bJvx5nOtPrtVo0vhBBiELJ0i207547eId2ww8vT/CuuTj7TqqKKmZc9l40ZZtUwZtF1PDI53fH5k9KNX/hKmnfng+nJKVPSvMkPpnmT7kl3fO+76bKPHZeeupEXQpAGY8iSrVqcFo//a7r00yemO797QZp3l6WZNM3STk7zbr4mXfelo9MNJ5+WOh96ohKft8V2zUpTf/39dOmbPpK6rqi8AMOfOZdFWjQnzTvtmHTp6NHpugOPSN33upl3Q7rm4Demq488Pq3EOKQKWZoqFod8KjPsnkmrZk9NV+7+1nT7ez6TunlJBi/AmHF/uv4jn0q3vvXINP+qu9L8yTPS/Acn289J6dEbrk7Xn3BMuvpDH07zx/3bMq/0T1qxNM3/5TfThW94VXrgx79O8x+anhZMmGQ/J6YnJ6AH0pOTrL2TZqWnHl9YqcjM+9ONh74vXXvCyaljbsVUY4lz1o7uZWnZnf9M971z33TFJqPSo/9zTkoLrSTqz+bMzHsqLZt+Y/rnhz6Y7v44z8yrvs02Mx1dS9OEc7+dvrPDrmniBden7q5V6b4//CBdtNf+ae43Lc9nKkt+l9u/vLKi0hjrh4Vz0qSPfThd9drXpwXX8jbhJenBb5yYznvtG9Kk869KT06enu2/+dam+ROmpscfmpYWzp5r1WeJdmU3ZVXJKlvN1ph70V/SQ3qbrRBCCCFEHfrZzCtS11prnd+s+WPpBtTMq6qnZllPzbwdLe7vQ/l1ZfHnW9+ear/3yDR1LI9DLa81zLt6sviTLd1h1SyEEEIMIpZuMbZz7uid001jd00LrrwqMZMLG4blnxVbh/WpnRUXBmHK4NB0dVnwsjT7xnHpD0cclf581JHpT0cfni486ph0+w9+kVbOrRhK2cQtT4NHtnxV6lq0OD30l4vSHz77GUtzZLroyMPTP0/6Qnr0xltS93KLuMqytzTZ8/e6FqapV/w9XXnSGWnVnSzrtErY/1SJbFP3M2nF9HvT363s6077v9Q9EzPPIsyamK4740vpxu//LK2cV30OndelktBEYMXCWvXEY+nKo05Ot3z9x6m7oxLeMW9WuvX/vp0u+dCR6V+HH5v+9qljMl38qc+mP37syHTbz36VOpY8lbWNFNiCadWyNP/SP6d/Hvnx9I8jPpUuPvLYdPERx1m649Jfjj4m/dX6589HHmf99KV0x4UXW1Wt/LlT0i3fOSPd+LNfplULWY5rdcPMI9PsBReL0+y/XpAuec9/p+m/tzTLK++HtZ5MHZmZtzItmzMpXfXN/013fufc1P1Ydalu1lfkQ2c9k6Zd8cd09scOTdOuvid1r1ySLvn2qenPx5ycVj34ZNYNFoscK/H5AB1Ppyf+9tv010M/nq75geW96Kk09Xc/SRd94qPWtuPTX476TPrb0Uelf3zq09bGz6ZfH/7pdNkPf5RWLnrC8upkbmHlGMjaUvnBx7l/+Vt6cAuZeUIIIYQQtWkDMw9hOtnP11ezrovFHXAzr1b8OjRt5vXETIuytLc3a5hWwUB8sCjPRtWLsoUQQgwQizbfqfPxrXdJN+y0e2VmXjd2Tmdalf3L8+Ewgror5g4eE7/jxmSsSqnjmZQWLUlp/vyUFpoWPJXSU11ZHJIgllZWZtOZ8KY6V6a00tI8bfEXPWFpn0xp8fKK2Wfb8aeIhqGXeAPtKtu2zEKW2e9dqxLPe7MfTBa0yGy3MomzwgJXWiYdFrZ8WSU+L3rAZctcJPs9M78qL8GovHSDAi3uCsvjaYu4DJOSGlt459MWbnrKtMDq+2TQwqWZMelQFeqcvVCDNE8vSmnJYktn8TAT55sWWhn0D7/Pt3pS3kr7fZXFoT9WWg5Uh+fqUc9qn2cNWGXxnrZ8l1u9K9FMmHkWKXtOobUBI5RHD1rW+HhZWt7+u8q2d1jaVQvsp/1u3ZKesfJWWB353TZl5WYJbDv5WTuyoslspaVbTv9YyGKrxzO235ZZ2BL2ue27eY9Zn9jv8y2/xRZvmcXpXG7Vr7zbOJp52e/G3D/9VTPzhBBCCCHq0iZmHuqqGHoNzXazeANu5iFL05Plts2aeQfFMnuqWu0r4SBL02MDMcryaXjfCiGEGHgWbD6285HRL0/jxu6enrzimsxtYT6eL6rN4FcToZV5e9UATB9mjq2y3zs67Xf7ucp+rrR0WfzMv7EUq+zncvtceXlEZQkpL3iwzzhTq1ZW8iAym0lI0fzCT2bKrWR7Zc5gpXyiW30wszCsOrtTN3XBKOykXpawUnilIhn8YtuyNmBXZnaYlUGa5ZW0ViYGWReGGsYhop7kR1KLkplj3U/ZthWWpYVTBm2u/J/lkbWR/iB7q0cmiqdO/G7hXVmbTTiTWb3ZUMkum3FHXNKzhDerh9XR+jlrcrbZesLqTv2ypqGOinHKr9k/VIj01t+8mZi+y0zSDktDPxGHcrK4NIAG8hzBrHftd+pm5bKfso8Wkd+tLp3dT1td6APrR0zCbD+wnXw4WqrZmrJ/XMbcP/45TZCZJ4QQQghRh9aaeY2YNZt3r7XWXhaX5649xyiqmj51Z+hZnNVlN5qmN8TyCtSsSdWMmbdG3JBmnP3kmYPbVOOtxvp3F9OpFqfoeXqNmo+lBmKNstm377VwuwAvTmuSoSeEEIOAJ0fv1Dlr653TVWNfmZ645oaEodORKp4V3k0EYyYzgyofs7iYXpXwiiL4Nqvs38r7cDHOKvZQxWri1ROVcmLays+KoZjNC8ycJ4L4ycJb8qrUge18quRZ+cxP/s3ytA+ZgVbNokIlBmmwq7IUTGPL8rfwavtXZdupD/9V2hizofa0iPBsAwmqv1ZqUUlBmyutr+RX2V7Z6m+25VOlxpVtZJV9qmSR/ahYmORQIWtXBnWr1M/h92rSSh/YT1KSL/WIcZ8LrcKyJV6WQ/Yvn/mZUc2TOnmb/GdW9uqIFbw+sdzHL/xLmvhSmXlCCCGEELXpfzMv8oKutdb6eS4PzKJr7GfNZ7zZ9rYx86z8Zme8NWzmYcp5vGrcptraw/SvsnhFRmszzzYsfL5fs/UXQggxMDy+1Xadj2y7cxq3wyvS/GtvTBVTqxncwqnCDLY1wOaJNg7k0qwB4WVWYvwJBXnki69VlONpiFcYt14GVaqG4JqiHW515SFf32bKR6kGl7J6LW1g9ccG6/wcGkiXdwTzSerV23jyor+lyZttnRbIzBNCCCGEqMHAmnkZBfnUzcu2D5iZR3mmNWa92edmlts2bObZ9l73cT6POnXFYL0lxkfdPXyRRd5MRJZ/XbNWCCHEwLJ01A6dT2yxXZq2zcvSrPd8KE3+1NFpwlFHp4lHfjpNOfzYNPXwz6bJRxyTfX7oU58xHZsmHkHYZ9Mk2/bQp45JD33602nSpz9j4UenKYd9Kk375Gcs7Qlp0pHHpQlHH2n5fcriHpvlM+lTFreaP/lMPfL4NO1ICz/iSMvrk2nKUUelKZ88Mk365FFp8lGfTRNs28SjLO6nj00PHmH5WvxJRxybHjri02mqfZ7KzyMt/yOPMlHmCbbtWCvD0llZUyzOZNNE2mCafPgxWZ4PHE2bqCd5HpcesvBJtO2oz9j2Iy0Nbfl0mv7JY9M020bcCdY35DnR+mHip6z9R1t8K/dBy2/C0cdnZU2xek+wtBOzfiLdUZYndaMexLe0yPptisWZSl6HH27bD7fPn7Vt1mdHWNstj0mHWR3oZwubZPEnU/aRx1o9LN5RR1pfHWF9Yf1vbSB/4k6xfTLxU1am9fvko63OVqcJlmbKUVa/T1p/frJSf/p2ovXdxCOtnKOsP4+yPrC2T2If0KfsP8svq2u2H4jLPvl0th+n2v6cQr+YJpM/og8t/ynkb/XleGA/Z/uc9lucLO7RJ6QZb3tvemyrHdKCLbaXmSeEEEIIUUobmHnGcwykeoaPbRtIM29691prvd9+5mevNdr+Rs28NfqFcu1nK164Uatvi5bX9nS/ZhQZer3NUwghRN/y1JbbdS7dcoe0ZNTY9PjGo9PDG2+aZm6yaZqz0ebpsY22So+9aMs058VbpIdfsnma8ZKtTKPS7BePSo9sZD83GpNmbTwmTdt4qzR945em2S95aZpr6eZuuFV69EVjsngzLXzmxptbestnoy3SIy/ePM16yRamUenhF49Jcywe8edstFmabeU+stGm6YmXjMnSP7zhKMt/S6vPlmnGppZXVvbWlm50lvfcLN7m6dGNNrE6WlrL72HbPsu2zSbdSzbJ6vTIxpS3ZabZL7a8bNtUy3OWhT9ibXvE2jV7Y8vfwqZvvJnVd2ML3zQ9bnGf2HC01c/ytbJpxyxrj9efdLRnxiajrQ/G2O9WJ+uXmZaOfplFfSzOw/b5kY1GZ6IOM62/Zm+8jdXF6m99PPtFVt4mm9i2rSwt7ds8zbGyyPuRF1uY9fPMjaz/rH4P09e2Lx7e7CVpVpbG2mr9MJs0Vs5sK4N6zrC+fPjF1nbKt/0628p51PblI1ndqBPtZp9Zf1ge0zYZY/2yheXxkjTX4s3dcJusvjOtr6Zbmoft5+yXbGbtsX7exOpl+2nuRi+1etqxYdsf45jYkH2xRdbnM62OszbZIqvLw9Zf9Psc65s59MOLRqfHN9k6LRi1o8w8IYQQQoiatIeZB2uYSF11DDrbNqBmnv3cLm9SeXg1SS16aub1dEZbo6ZgkanazIzDMpo2a4UQQgwsC7bY9toFW+w4fsEWO5i2Xa3FOcVtz4p06NmwJVUtzoWjNfOhvB2zeLEMfi6xbUtyec/PfnoYaXewuKiSppK+kmdM17gq7a+UU1GlHl6XGDevHS1dJQ7xvX7P1rUS59nf/fOabX82jX+OYTGtadQ21d/zaXLxss+VsGf7aM3tz/bts31Z2X8x7prp1qx3TPdsWF6V7eTjeZu23P4Hdp0wsno4CiGEEEKINWgfM+85hk+t/GzbgJt5FryGKVfd1oj51aNlthavr9u5xrPyWlxeU2atEEIIIYQQQgghhCiifcy8opc1tIvJVWbmQU+WpTZs5hl5E+x266dGX0LRLPmyWjl77jlmLfu7uk0IIYQQQgghhBBCNEQbmXlGw2aShbeLmfecfshvL6AZM69oxiJpxtnP3vb3Glh+a7Sj1WZbM2atEEIIIYQQQgghhCiivcy8/DLPUlPMwvNl90q1ygLbVmrmGc0ut23GzIM1+iUv2zbZ9NPutdY6zD5vU03TLE0tc+4hfTnzTwghhBBCCCHaheNNq0x2y1Mquxlf6xbTSaaNTAPNL00dpljHU0zrmiJvMy03xXi/N61vEkL0CzLzMtUqC2xbLTMPmllu26yZBztavAdD3jVlccd1r7XWcfZ7o2ZZf5h5+f0rM08IIYQQQggxVHmB6VJTp8lufdYab9rYBDuYLjP5thmmbU1rmwaS/zY9ZrLbyaxeiLD8S4n+w/QH01TTrqYRJiFEvyEzL1OtssC21TPznlOnGnn2xMzLsBH1UIs/y9M2Iot/u/2st2/ydeqLpcsN718hhBBCCCGEGALEGXrRzIO82cfstvVMA81xppUm6oSYQfg6U96wY4be50z5mXtCiD5HZl6mesaSbatr5hmNLrftsZkXeEH3Wmsda+mv83zqiXLsZ9lMOJl5QgghhBBCCNFaapl58CuTL20t2j4QYObdYLJbtqxeqGjmoMw8IQaMIWDmWbwBfQFGjkaW27bCzMuDufdey+tnptV9mJdtY5ZeXSPSfu8PM0/LbIUQQgghhBBDmcFq5r3L9GtTfIYe9eP+zQ09mXlCDBjtbeYNirfZ5olxS+L3hZmXx8295zxnr6Q8vQBDCCGEEEIIIVpLT5fZYpStMBHu27hhj/HR+008zy4fn7I+Yvq3yW69sqWyHzetY6qHm3kvMuXLiy+6KDPzeJ7emabHTf7svfNMLzf15Nl6/2uiD39k0ks2hMhoLzOvYbPHwtvWzDPWMOuQjWCnVrdBf5h5q6maetEkLewvC1tjf+bq3GvIL+bf1+0WQgghhBBCiAGmzMzb3XS5yY2yoll5nzD5s+vcRNvcdKPJbqeycDfzIMZHvImWt+S6IYehV/Tsuzxu5pEv5T1kclPO88XAKzLziO9LdD2eP4Nvpon76GZe8kE/PWLy8nkZRyOGpBBDnDYy8/L51TJ7Ytwyc6qV5MqrZ+ZB3piMdWzEzMvH6e0stjXqU2TUFZhtrZw595yZf0V1EEIIIYQQQoghRDTzinSnaU9TkcEWZ9vFGXG/NPny12jmYXzNMWF8RXOwLH4Z0cyDmK/XG1PtIFPezPOyonGHwfegyW4J12hHI8jME6KQ9jHznjObrVZ+tq3dzbzn9I+lc3OsETNvDfOr0TJr0EiZ+WXOrezXvsxbCCGEEEIIIdqR/My8MabLTD4jj9lye5na2cwD6rLcRB5e76+bTjS5meemnZfPvW/ezOvJ7DwtsxXiObSPmZefyVbTvLJtbW/mGc8xKG1UYzZaI8Zaq/u3R2WWxWuS58zKs896Xp4QQgghhBBiqFO0zPaVpkdNPtssGm+RdjLzwJfLko/Ll9JCvnw383iG3r9MzSz1FULUpD3MvCKzp6aJZHEGg5kHRcttD7afdY01jD+PU43XGwMsX4+y/l0jHqoakD0m346qemNMCiGEEEIIIcRgoOyZeXljLJpiTruZeRDzyte7zMyLM/Nk5gnREtrAzMvnY2d4XXMupmkkfm/JldfUkteYtpp+sikuOS0z1p4zs88+/7S6rRmael6dbc/v1x4bekVGntVFs/KEEEIIIYQQw4EyMy//JltMrvxy23Y08+IsO/KLZl6zy2x5460vn/W3+BahZbZCPIeBNfMwmX6ey6OWubUaizdozDzjOaZcVK32lplhFr5bNUo9drT4+VmP9epfWF/q2WS5vy/Io8/3lRBCCCGEEEK0CWVmHmC+1VpuG7e7mZc3AfvbzINo2uVnFHpZ0bSL9fJ2xDCMzL1NRbP1iKcXYAjxHPrfzNvc4r0Fo8e0enaay8IaMsoszmAy8+A5y1ddll8t87LUCLTwcfbzYNM21bjO5jbSvde2P8dMQ7atkVl2B1n65+wfVK9cC7/O4xZIy2uFEEIIIYQQw4FGZt/VWm6LafaQCSPLzblPmB6rhhH/MyY3t9jmefGWXO7XXmiKdShazhvZ3kSZ15ooDzOuCDfjTjbF/OIsvENN1M3bWGbwycwTomlaa+b1Sna2N2zKWbyWlu2yOhQaa7att2ZeaZ3Lygys8SbY3sjyaWaJayvLnW+j72HVfIUQQgghhBBiKBNn5OU1w7StCVMrb/jlt2Nm+ew8DLo9TeeY4nPrmG13kMmX5LowAP9minmjstl5+efhoVrmH8uAP2fKb2cp7k9MMa/zTBgO0RzUMlshekybmHmYPfaz4dl1FnfQmXlG6fLV6vZasGz1wXzaZmTpf2o/m31WXSvKvd2+eRpdniuEEEIIIYQQQgghShlgM69rrbXm98RksviD0cyD5yy3LSuzgBd0r7XWqRa/qdlyFv92+9mr5a1WLst2mzL1LP5kzcYTQgghhBBCCCGEaCX9bOZ1Vcy7u0w/7V5rrQOrWTWN5TVYzbzn1L2szFpY3+1l6X5moi/XMPfss/fxmRav1TPidrQ8eSnHdSXljqtuzz9PTwghhBBCCCGEEEL0ml6YeUIIIYQQQgghhBBtQP5lGZI01MRLZHYyjZCZJ4QQQgghhBBCCCHEoEFmnhBCCCGEEEIIIYQQgwSZeUIIIYQQQgghhBBCDBJk5gkhhBBCCCGEEEIIMUiQmSeEEEIIIYQQQgghxCBBZp4QQgghhBBCCCGEEIMEmXlCCCGEEEIIIYQQQgwSZOYJIYQQQgghhBBCCDFIkJknhBBCCCGEEEIIIcQgQWaeEEIIIYQQQgghhBCDBJl5QgghhBBCCCGEEEIMEmTmCSGEEEIIIYQQQggxSJCZJ4QQQgghhBBCCCHEIEFmnhBCCCGEEEIIIYQQgwSZeUIIIYQQQgghhBBCDBJk5gkhhBBCCCGEEEIIMUiQmSeEEEIIIYQQQgghxCBBZp4QQgghhBBCCCGEEIMEmXlCCCGEEEIIIYQQQgwSZOYJIYQQQgghhBBCCDFIkJknhBBCCCGEEEIIIcQgQWaeEEIIIYQQQgghhBCDBJl5QgghhBBCCCGEEEIMEmTmCSGEEEIIIYQQQggxSJCZJ4QQQgghhBBCCCHEIEFmnhBCCCGEEEIIIYQQgwSZeUIIIYQQQgghhBBCDBKea+Zh4lUD/HdJkiRJkiRJkiRJkiRJkgZe15vKzTwhhBBCCCGKWGVat/KrEEIIIYToP2rPzBNCCCGEECIPRh7XijLzhBBCCCH6HZl5QgghhBCiOWTmCSGEEEIMGDLzhBBCCCFEc8jME0IIIYQYMGTmCSGEEEKI5pCZJ4QQQggxYMjME0IIIYQQzSEzTwghhBBiwJCZJ4QQQgghmkNmnhBCCCHEgCEzTwghhBBCNIfMPCGEEEKIAUNmnhBCCCGEaA6ZeUIIIYQQA4bMPCGEEEII0Rwy84QQQgghBgyZeUIIIYQQojlk5gkhhBBCDBgy84QQQgghRHPIzBNCCCGEGDBk5gkhhBBCiOaQmSeEEEIIMWDIzBNCCCGEEM0hM08IIYQQ/cnrTfsPQb3cNNLUJDLzhBBCCCFEc8jME0IIIUR/sshU9auGlP5g+g9Tk8jME0IIIYQQzSEzTwghhBD9yaK3vOUt6Yorrkjjx48fEtp2220711577d9b22TmCSGEEEKIPkdmnhBCCCH6k0Uf+chH0jPPPJOGCrvsskvHyJEjZeYJIYQQQoh+QWaeEEIIIfoTmXlrIDNPCCGEEEI0h8w8IYQQQvQnMvPWQGaeEEIIIYRoDpl5QgghhOhPZOatgcw80VpONFWPoVL92/Qh0wtMonl2NF1u8v6cb/ql6e0meJXpiMqvqyHscybSEZ/PgxWOnUkmbz9tf6Gpv/i8qdvk5ef1TpOo4H11jak/91E96u1DxDj1YVM71VuIdkJmnhBCCCH6E5l5ayAzT7QezKbppuqxlP2+hSkfzg2+DL3miGbpGSbvvzeYbjf5toNMzvkmD0eDtd+p89Um2vBd0+bVz5iTrzb1JxzPXhdEHd5hEs9CH00zeR9hcq5tahcYj6aavH6MTVuZ8uHXmjY0CSHWRGaeEEIIIfoTmXlrIDNPtB5MFwyj6rGUmUlONKMG+wyxVkD7MaYaAYPO+67IkMM8wZBw8zQSDT32QTvQTNujkUdbMIXcLMLE3NLUn8T6xDoNV9iXZ5liH7S7mef70Gfo/dbk9Ysz9xin/tM0lHilKb+/hGgWmXlCCCGE6E9k5q2BzDzRerix5wa4eiytMUssvww3bhtusFyUfmrUXIuGXDRII+SV3xbN1XYxUGn7k6ZG2048zBXq39+z8IqgD6m/74/hvLT2gyb64iRT3hxq12W2wD6cZ4r7sMjMQ+8yDRXji/1Fu4v2lxDNUGTmnWvqMvm5k9fNpo+YBnq2669NsZ7MwN3IFMnHucC0jkkIIYr4lanD5GNG1PtNI03tDCtebjRxTXeAqT/qy6NyyvoMLTBdadrFNMIkhMy8NZCZJ1oPxkv1OHrOLLFoSLWLsdTfsIyPL69m+yD2XdHsO8AcLXpeHuWQbqCX2Obb3ogx58af178dTKH8zK12MBj7G/bl2aZ2MlmbIe5DX2Lr/MYU9+9QmJmX31+0SWae6A1lM/P4brrF5OfQu02M2982uTlWZJ61Ep4hyzle6+bvA6Z4E1lk1jGL9SETZr9uJIUQ9djBNMHk498PTeuZ2pG3mXieto/hfF5uot4YC+ub+oPtTYyz/v3w36YXmT5hWlENw9Tb26RxWMjMWwOZeaK1xFlgKM4Si6ZSflsRbvzENEUzuSgzGkSnm7g553M0r/iL0+Emf3lE2YzBWvWqVyfKYumob2cJKDcVtJ0vzL+aPF1UUbvyxDqiRo25orZ5PQmjjkXGoNPofoCyuJT3lxAWVZYXfRZnv7nIO28ckT/9O9nk8ahHkfFHvt8xkY/PTmLJIRdejcxWoqy4xLbIYORY40bxQlMsh7RuqBSlYzt18Xazb3gWH3XGpCUPP5ZuM3Gcj61+9jT12uCmTuzbojTM4IovGqEu9LvvS79QjfJ8vI6Xmcr21wmmmD9/0S7rxz+aqG9RP2IKFO3nWpC+bIktdY8z9uK2Iur1J/nRVt9fO1U/19tfjfYRUAZGSewjP6a/amLcqbW/hOgJtZbZxhl6mHkcZ3zPMEb7sfgeU1/cmDFuUM4XTLXy5xy7whTPjS+a4mwU4pxq4sZSCCHqwZhxqanTxJjSrjPyGCcx0L5k8jGcsP6emQcYGP8yeZ9h5nnZXMv7H10wOzYwieGNzLw1kJknWgsX626kITfMMLTc4OFnfvZYhC9CN5r8rbduEOYNLG5iyQ/xe758N4qoh4ch4riBFfNHRUt/G6lTDPNnwRHmM+o83yJzrRHybUP5/sgT64SoA/lgzMR8Gm2zm1jkGU2FRuPm296IkcAsKU9TtJyV/c6FB8cAxhdlu3GYr2d++ST5UScPa6RO9F98FlzeEPH6+HZEOZg+MZ2HO7HPvmciT8J8lli+roj9mN+X9EPRLDnycoOHt7SW7SPqifFEOEYQ4d6msufKxfA4qy2fN5TtL9LEuM32Y739FmEfxpdceHr+Ku1lUr8jTWX55vuTel9V/ewvzcgfb2X7Kz/zj7ZjKLKNc5O8/2yKeTv5MlgSHI8T9g2GRn5/6a/borc0a+ZxzrBcyo9DjLNWH4fMinHDsF7+1OfnJs5jv4lE0WQkjsw8IUSjMGa0u5nnM+EYJ08xFY3h/UktM+8400oT4TLzBMjMWwOZeaK1cONZPYaeI25M3egpg23c0BOfuBBNrGh+ccNLnoRz8woxPduI48S6leUTTT6n0TrFfIjv7fT0lB/zQkUmWi1iGa5YVp5YT35ihDBzkZ8enu8nKGuzmyix/4jrplBZXL+R83goGlllxHyoZ96kot5uvmCqObUMQDc1aP++pmgMeV1rwT7zm9GiOkGsF+UQh9mAzKIra09MQ9+7qeX95u2IpgzGEHnGfkJ5gzH2PcYT22IaN+NiHdzgivG8XkX7MpaXN458W35/eXg0AGNeRf3IDLRa/dgImIheXl7k5+ZcGbTfjbvYn24Qxjbn9xcz82JcFPuCNvvMwBh+nsnzyT/DLx7T+5li3tQF88/rW5ReiJ7Q6pl5zMKNy9PuMO1sIi3LXR83EY4w6jiXfDkveTEOxDguls8W3UxzHmPmjTLF+jIGvNZEucQpMvOK6voyk59X/AEzLuE9xPQV0xPVzz8wUSfy8TqfY/JyMCV5vqDnH7fV4lsmboh53l9fLmMWQhTDmNETM49znllxPg7dadrTFMdI8v4/k4+9fNd/zBQfD4AR9qAp5hOfN7e7aY7JxxYXeXG95eHR5MP8y9dtLxN5xqW56FAT17texx+Z6i0zbnRmXr5ON5g8zV0mrxN81uRLdF3Uhe8g2qFlu4MXmXlrIDNPtBbMkOoxlP3OjSkXxnzmJ5/L4EvKDaRoUHme3KhyMwBlcWN4jA+xbm7+QZnJB83UKbbV8/L4zERkO3FJk0/bDPlyUKxbJN82lhkTL+aRr0e+zW5qxDb722OJ66ZOvbiU4QZMDK8F9SwyuKBWfmVmXqwvdWQ2IQYkopxGTKGYd1k78mZW7PdoTsW0cZun8/aSnu2x/uy/WN9oiEUTqGwfeXyvR+zPmJ5wZurF8mr1fSwPFZmCRfvL6x7NvKJ+pP75fozPu2uEWB750i430GhnrWfk0b78DDyI/en1iXHz+RbtL/rIjbh8u8rMvFgGbeGYxmDkmKZNlFkrXyF6SjNmHuctf0jysPwz81iWz/FKXG6u+MxN2gzTaBPHezTImL3MMe3nhM/Ci3EanZmHmcfvcckt5yuGHvXOm3ksf8eUczOSz/m6goeTn5t9/CHB63eR6TW5MDcl55q8jzAy4+cyPJ7Xfw+T10UI0T8wljRr5mGwPWpiDMF44w/u/scCT+9LYBkHNjYdb2LGGqbU60yMRcxiYwzwND6rjXy3Nfl4gAHnRlc0yKIx5+Fu/pHHribq5rP63HSLz7Zz85Dxz2fURXOuiCIzjzGXsdfziPWkTo+YqNNuJurkBubBJjc3PR51HW/a1ESfMBsb00Pj4+BEZt4ayMwTrYMbRm4Uq8dQZpgVhZURjSduRLlh9yVp/GSwdsinKE/ScBFLOGaNE+vBduIBX7puXOXzgmbqBG5iuWIdoJZx2Ayxna6ivo314a9b3u7Yf7XqWK/NxPWbn6K4zKByYlzKbORLlHqWpcEMIRxhhjjsazeN6KNoeMVtmB5nmJr5Mo/pUVk7Yt14RqPXoWzGmhMNnqI4sfxozHEc5w00J/Y7Jg/7yJfRxn3kdcv3WRFxZlu+juRfZFgWmVdQa3/FNNxoN9qPtaA8N7a8LtQxH1aWJ213Q6JWf0IsKxp/7K+imXK1+sjzoY+iKRi3lR3Tsc70Vy2DQ4hGadTMc3HsFr3NNhppPosumnJumsXZeeT1RhNjATeAHqenZh7njD9rz89BbhQx4L5scjPP60rb/IUZRXWFem2gfrQ1hn3dxFhO/r7dy2RcrWfQ+cw8Zv7pzbtC9D+cr82YeTE+N/M+i82NOEwozDt/U26RyYZ5xvVgzIeXV0TTLtajzMzzPBkDCeePB/k8IdZtE1M0Ad24KworI2/mRWFW8ly/F5sY+2Jc6uTLbqkTbfI6+TgZZ+gxM4/Hx7TrC0lEY8jMWwOZeaJ1RBOIC21uciEaShgQfHHlISyaaoiL6mhAOdy8FhlzEE0q6uMQh7iExzrE+Pm8mqmTU5QmmmyxL2J4GZRT9nzB2N+IPqFvnNhP+fJiPWI/NdNm4kYDqVZciAZXI22HmCYaVLStzACi7LLZb25skYaXFpTtxzJi3vk6ObFuyE2ZfH8VpS3q02jqeP3z4bHM2OZa+yj2WUzP/neTsIwy0wmKjL6e7C/SFBls3iYvI87ka4RYP+rixlhsE8ZbUR9QdjThEP3JRXZskxNNtPz+8rbRZmbKxbBYL6CPfOagx3e8DNLk96sTZ/Xl95cQPaXZZba18Dfdft+ESR6XsLopF02vsqWzvTHzIJaBmFHHLI44M4+6ciOJYVZUV69XT8y8KSbOZX4vUsxfCNF+MK40Y+ZhoDErjzEkGmtumGFmMX5MNOXj5DnTxLiMacUfTeJy25iuUTOPmcPxc1HdmBXIdUgtM69WnaFoZh55HGjy8imLJbxcG/lsO2buxTrRJuLF5bP8kcb7YaaJ5bm6BhrcyMxbA5l5onWUmXbRdOIitchAIcwvYGPaIsricjPMjS7h/OSzE0076gls9zfb5vOCZuoUIV+fnYa8LrF+Zf2Qh3p7fYuIfZ7PM/Z77I9Yj3w/5dtcy9Qhrpsw9eJSRpmZU0atNNHUypdNn/m2vHERZ3TRd81+ocf0Ze2IdaN/ozlVZLjlIZ7P9MrHjYZT2ey7OFOt0X0U49Wb6VZvX+brSF7RQMvXI/Zp3F8xDX3gBhbl542wZigz7WJ5tCuaaQ795KZanGlXRiwrLo11A45w7+8Yls+7rI8gbiuadRf7y9sV0wvRU1pp5gGmFs/AY4xgHPcbuyIzr8yo662ZBzEPNM6UX95KXZhlWFRXv3HvrZkX8xJCDA4YVxox8zC7uHbjGqqWmUcezNhljCBOnCFXBIbcTSauI7he8Dxi3q0y80iP8UY7+sLMg7eaPB+Muk+bHjNRpyIzj3hxqS3E2Xmk0cy8wY3MvDWQmSdaAzeM3FhXj5/s4taptc3hi8C3c3FcyziLcaPRxfIyvwiOefCTz56G9ITx/B7SeHi+Xs3UibTEd2KbqRMmACqqXy1oH/mQXxGxjvl41Mm3xbbVald+Wy2Djrh8mTYSt1FTKVIrTSw7mnK0v8wwo50+S4390IihGInpi+rkYOB4nGi8xDrnDTMMGbY7sR1e11ptc9Mo365G91Gr9mVRvSEaZbHtjbSJbWUmXz3jMQ/lFc32g1rbnFqGW56YH22LpmPcX24aFhl8UCsfjsmyZ/I5GAXNGJBCNEorzTx/Rh7HKMYZ50PelOsvMw/i8+7yZp5v8/B8Xf0mtLdmXpGJKIRobxhXGjHzmEXHczm5pqo3M+9oE8/CI07++XcRT+NLc8tMu1aZedStL2fmAXXymXhs+x+T90UjM/Mg5qHZeYMfmXlrIDNPtAbMgOqxk12I8uUUiTPIMAD4sovE9IjnrznkxfIxX24a45IXU6i5EcCc8/BoXnEzzE0w4fwkP0w8nv1GesKpMxfehHvdm6kT7YvGInh6yqQO0VzzuP5ihCJivfN5O0V5AnnGtsX9QTxPQ3rawFtdodn94F+u9eLm68mXaK22A2k8f4yVSCw7bvM0tDlv1tGfbhzlTahGoE1uYnm5+YsB2lNmGObNKY5Z73e2eb843kaOAUyu2OZo9sTw/NLd/D5iSZinoz0sNWYf5dvGM0W8fzi/WGZGPNLmZ4IR9kkT8WN59DHtP81EWg+P/eZ55fvK+7FoW61+rAcXnJ6WfPPmV8y7yPiKhhsq60/CYty4v2J42Wy9sj7K1zcafWVGXdHMPd9fQvSGVpl58Vl1LJ9lSSvnw0CaecAbYWlDNNUaqWtvzLy/mxg7ve9YyksZ1JUH3jPG12qTnpknxMDCuVrPzMNcut/E21f5Lvb40fTyZ+RhzG1tinly089NO2VhaHEtwR/6/MUUvr23Zh7jXlHduL73ujXyzLyYtohmZuYdYLrMRNxo5nH9FevkYzp5n2w60uRt/oPJn7UnBh8y89ZAZp7oPdEUc0VjB7jJr7U9Gld5cRPrphBw00xYjIOJ4yYV24jj5OP79qIyqafTaJ34MvX28wB6PoMbWPwE/+xhpI/1zJOvN1+e/vIJyoizCinfy4WYljbQFoh1dXn9oJn9QFw3x+rFbbbt1DPOgsubVLFsN8E4pjCk8i8hcKLRVGTE1YL6YPR4fRAXBnlok5ti9CMmHOTbg7wOcRtvaHSTxU0YjxdNGeIRxs0i5dHf0Vhy6u0j2pCvQ5GKzCUPj/sybkOUgREX6+HG1gdNZfsr348+G83rGctodF9y7uTT5vuMm/Ja22lHnL0XFfsTivYXF7fMkivaXzHvoj7ayZSnzACMFO0v9klRXCGaoczM41hmuawfd/VMtWhmuZih5ulZYoZhzxju5ljZM/PyZhnnDeZ1Ufke96Omsvph6DFuuJnXSF33M3F+xdl9btxFg89foJE383jWlceJ8vhlkI/eZivEwLKDKT5HEyMpnrc8B45lopyjmHmMPW6u+Yy6mIebgdGAi8IAYNltNOJ8G9cUfo3wDdP+JvLKm3Y7m3gjLdfaeQPOTblYt1pvs82ni2FlMFOOPL2uni/hRc/9c4PPjTvqVPQ2W4wRnwHJHzv/aWJMLpq9JwYPMvPWQGae6B1xllde0USK5pKLtBHixGfNER9zjL+E53EjiziYOJTjJlTe2OJ3N7D+ZIqGmIdTLhfZeRqpE/kwO8h/ejv5631+tppv41l9Xo8yuOn29ORN/eIz/jyfonpH8yzfz9SfcO+7PM3sh0bjEs/NmUbazv508yeaYhHyiM+Wo78xSOirIqKpkTcHyyCvWiYX7Y2zxmIZbjI6zG5jG2mop0MZ3PRh4vHT+8nbQx6xHqRnm9eBv94WmZcOfR/7ifSYS35uOpTBXza9/sQryju/L+P2uO0iU9xWtr+KZojFfoyz2iDfj43crMYZd3lFs5D6+5JUV778RvqTvozLXxvdX/TRrSaPW6uPIPZTnOUX4Qbf28QbMWsdK0I0Q5GZV/QWW8R5wA1V2fnKDF5usojH9xdj/pUmjm9eQoFR/oQp5llm6GHeedxzTPHlFY7PuvO8fHlvHs5lZn/EPGJdMcipq7/hlrrSzjhbDxGXczQaf4jlc/kw2oWh5wafl9PIEnnNzBNi4PDZdH4u11J+uSwGG8+683HpTtOepmg45ePwogve8uowVjEuY1bxBwRmHfvMunx+GHD+7DnGbd4O7st9vY5unhXVLRqRbtq54lJYDysz9HyWX0wfRVv4LijqixtNtI14d5m8ThCfk8fSWsZEf86fi/7S8/MGH4t23XXXdOqpp6YzzjhjSGizzTbrWnvttWXmiWFNnPmXN6/E4CM/i264E00yDOgyc0e0B9EU1HPqxFCl1jJbIYQQQohWs8jEtcdQE8u/ZeaJYUuciRaXyorBie9PZiTEmW/DlfxSyUZmo4mBQ/tLDAdk5gkhhBBCDBgy88Tgh2Uwvlw2Lu0Vg5O4pFSz8tbsD5mb7U9+iW3RG2aFGArIzBt8xOfqSZLUmFgSu41Jf5gTQrQZMvPE4Idny1WP28zMq/c8NtF++HP8WCLts/Lyz5wbjmAMfcXks7xk5rU3RftLZp4YqsjME0IIIYQYMGTmicFLfOlFXlpqO7iIb+blof9FL+YYbsSXgOSlpZvtB/ur7E232l9iKCIzTwghhBBiwJCZJ4QQQgghmkNmnhBCCCHEgCEzTwghhBBCNIfMPCGEEEKIAUNmnhBCCCGEaA6ZeUIIIYQQA4bMPCGEEEII0Rwy84QQQgghBgyZeUIIIYQQojlk5gkhhBBCDBgy84QQQgghRHPIzBNCCCGEGDBk5gkhhBBCiOaQmSeEEEIIMWDIzBNCCCGEEM0hM08IIYQQYsCQmSeEEEIIIZpDZp4QQgghxIAhM08IIYQQQjSHzDwhhBBCiAFDZp4QQgghhGgOmXlCCCGEEAOGzDwhhBBCCNEcMvOEEEIIIQaM2maeJEmSJEmSJJVJZp4QQgghRL8jM0+SJEmSJEnqmWTmCSGEEEL0O1pmK4QQQgghmkPLbIUQQgghBgyZeUIIIYQQojlk5gkhhBBCDBgy84QQQgghRHPIzBNCCCGEGDBk5gkhhBBCiOaQmSeEEEIIMWDIzBNCCCGEEM0hM08IIYQQYsCQmSeEEEIIIZpDZp4QQgghxIAhM08IIYQQQjSHzDwhhBBCiAFDZp4QQgghhGgOmXlCCCGEEAOGzDwhhBBCCNEcMvOEEEIIIQYMmXlCCCGEEKI5ZOYJIYQQQgwYMvOEEEIIIURzyMwTQgghhBgwZOYJIYQQQojmkJknhBBCCDFgyMwTQgghhBDNITNPCCGEEGLAkJknhBBCCCGaQ2aeEEIIIcSAITNPCCGEEEI0h8w8IYQQQogBQ2aeEEIIIYRoDpl5QgghhBADhsw8IYQQQgjRHDLzhBBCCCEGjObMvB1Nt5uqcdb6ZTXsQ6aDTP3JFibqMt+0LwFCiKZpp3O6jFeZnjR5HU8yAWPAbSbGgP0I6CMop9vk5RfpctM7TC8wRX5jimmvMb3QFMnH+a2Jvq9XZtQ7TeebitLQP0eYYh9GFdVJCCHqUWTmnWvqMuXHGdfNpo+YNjQNJL82xXpea9rIFMnHucC0jkkIMTg43uTjlGucaWNTEZubJpjy11K/N61n6gn5OpxsavQPILubHjV5fU4x6Y8nQohA42YeN9TcFHLD6Des0Qjoyxt/8j6x8utqCKvWNauTEKI5BvKcbpZobrmZF8Now9qmvoB+wjTErHNDjH57tQnebioKdzBG44UhZl2+rpQxyUQZ4G37sIm4GIrTTPkyPmgiHmYesP88HqKvYlmfN3ldppvydRVCiEYpm5nHeHWLycead5v4g8G3TW6OFZlnrYRxmfFuRPapmA+YOkzUBxWZda80PWRijK2VlxCiPcGgu8zkY4/d+K61l6nofH6b6TqTx73TtI2pt9eXnzCtNJFnM2YeUKcVJtLKzBNC5GjMzONGn9kb3ERy0xnxbX11489FITedeTOPcM3ME6JnDOQ53ROooxtm/T0zjxtCzMItTUWGGsT65bfRn1eb2ObKm2zEOc3kM+To+2hQlpl5wMw+31f5stzkc9wkZJtm5AkhekOtZbZxhh5mnv9RYrLJx6D3mPrCIOPmnXK+YKqVP+PlFSavD/qiaaTJIc6pphdln4QQgxHO4StNnSbO86KZdpzrmGVnmHxsG28qm8XXDNGQa9bMi7PzZOYJIXI0Zua5oUZY3lQDbhD74safWSa1yhVC9IyBOqd7SpGZ1x+4OYYpVstQA0w1tqFoxJHH2aazTPGmMRptxMmbebH/a5Ud43p9i8oA4snME0K0gmbNPMYnbqh9DMI4a7WZt4PJDcN6+VOfn5sYm/0mH0WTkTgy84QY3HAOc/3zmImxoWh2HqYZqyP4A67MPCHEIKG5mXnVbdnzofKzefLE5XqIZ3GRT4TP3zV5HC7AWJIG5M9Nq29zcZOc3+ZmRL5Mfo/1ZCD3bYiyYvn8Xg+PX9QeIQYLzZzTnF8eD2EQRVPIwyDG5Rw93OTnJOc3S5+cZuJSt2jmxc8e5jAOMGPPt3GuumlVlC7Gz5tfxGcbs/LqmXn5JaykAfoaM4/P8fl4MQ/iRDMvT72yHfJptZnnJuSvTDL/hBBOq2fmsew1Pq/qDtPOJtKy3PVxE+EIo24nky/nJS/GxRjHxfLZONvOYbzEzBtlivVljH2tyQ3IIjMP05Dn/8W6eppmYfkxZuI5JpmGQrQezuHRJs4xN+4x1eKy+kNNjAUnmGqZeZz7N5niUtw9TXEsO9jkxiHbudYsW2ZLfjeaPD/GouyGvEozZt6ZJuqez0MIMWRp/Jl5eSMMccHj5luEG2C2cbPIhVD+M3BRx427h/mNPfGID7FMN+yc/DYvg5tobs6RzzwirsOD4D0d5RMvmgoxbh4vg3ixnkIMRpo5p6Pp7QZRPJeiaYTh7uGk8zHATbQYN85mqxU3hrlxR/39RsrDPJ4bVfnPENNRpo8Tnk+8GfMltn4jWstQi/nG7bTJzTx+j2abxyO8Hc282O+1yhVCDD+aMfMYa04PYfln5n3ONM9EXG6K+cxN9wwTN+GMwfyBx59x9z3TVJOPZz4LL8ZpdGYeN/D8HpfcMt5hzlHvvJnnxiLfHS8zcR3pJmWzS4ejSell9sQQFEKU42Ye44PPkGNs8efhsTT/MBPmXnxhRd7Mc2ONtLuYOPf9DxDvN/FHA5+FF+PwzL5oIvqY6fn5SzkYD+JnaNTMI94cE/GYefg6UzNjkRBiUNK4mQfc5HOxUY2zWn4TDvzkJpFwN+A8jLTcHILf8HscwtnuZhxEsyFv5nl8tvF8Ay+TfB036djm9Yt58jsUhZXhpgY/hRjsNHJOQzS83SDiXPEbn2gaeVzyjeaPG3fRRGo0bjSV8sadh1FfN7I8jofF/GM6wnnmJvWgLbEdntbDWmHmQcwHMeaNNXGjW2au9dTMq6W4H2rhM/O4edZNphDCadTMczF2Fb3NlnHLjTSfRRdNOTfI8sbXG038wYWbZI/TUzPPb+jjzEFuxjHrvmxyM8/rStviCzOYzUM9uAlv9sUePjPvB6aiGYRCiN7hZh7n76WmaKxxDmPEcV3FeFFm5sW08Zl7Hp+4Y0xu3MU4RctsY35u0nkYf9jwZcA9mZn3I1NP374rhBhUNGfmAQMNfzHlQqoaN5ObaNFkKxI3zdyY+mwYPpcRTbZ8vFjOheH3GI/fCWMb8aHIuKtVjhBDnXrnNPi5hHpq5hWFNxo3b9xBPix+LhJxuGGL8XzWXRHE8yW20CozD/J1ZZbwd0ytNvPifoFYx0bNPCGEKKJRM8+X2dbC33T7fRNv8Y7Lbd2Ui2Ze2dLZ3ph5EMtALJ/lDxpu5sXt5O91cDOP8Vmz64RoL9zM47yMxpobcLxt1o35MjMvmmpxia7HZzbc0aa5pnycIjMv5kd4Xm7cNWPmCSGGHY2/AIPZbxEuggirxs8uYLhBRfxOGDfkRcQ40TDIU8tki3nUM/MQeUHMsyisrM5CDCUaPafdNIrn0mAw8zxOEfl4ZTddcYktNGPm8ccKN++KzDyI8VEtc01mnhCi3WilmQcYZTwDj7GJ7wCfPVNk5pUZdb018yDmgeJsu3pmHuHNLrUVQvQt0cxjBm78YwF/QHiNyc/Znpp5xP+6ifEhH6eemVdv+azMPCFECY2bedwg8jOPG2HcYHKTjPidMC7IuFjKE+Nw01uUL3jeiAu7SMxDM/OEaI5Gz+m86YYGg5lXy6jKpyu6yXRTLLaLvqplqNV7m23ezIP40gyZeUKIwUQrzTx/Rp4/S4+3SuZNuf4y8yCac82YeYzPmpknRHsRzTwoM+xgIGbm5esQkZknhKhB42YeplvRLDrf5qYcF0fcJFbzWf3sLcTFGjeT+Tjk63GYGUQccFMBcXMf4Yaciya2kcbzi/HIlzC2kTfEPBspJ4+emSeGAo2e025AcY64CdRTM68/n5mHOEdJS7iPPdCImUecuMQW6JcyQ63WNsovM/OAttKPsV/y1Mo/ku+DVph5emaeEKKIVpl58Vl1LJ9lSetAm3nwaxNtiGYeafyZedHMK4obn4VX6y21emaeEH1L3syLs/P8xRVOmZnHue/PuItGHW/6Z8wh7itMnm/ZM/N+aCI85kc4z7l7sYnwz5q4fqNezZh5emaeEMOO5sw8wrgB9BdUMOC4uRVNsGiORUXjoJE40bAjf8o93AQxPdv8M/WjXsT1OrPNiW/g9Drn8yoj1oeffBZiMNKTc5oLCcK5wCA+z3njcz4uv3u4G0bEdzOqyPirFzeW72ZevbAoxhW/iItxYngkv8QWogmIvG7UF+OPMPokb7R5Op4DVQaGnre/iHzZ5FVU79h3KG9WxpmA7P8yU9CJ5dYyEYUQw48yM4/vF5bL+lhTz1SLJp1risnTs3SNFxUxdrtRV/bMvLzht5Ppk6ai8j3uR01l9cOk4w8kbtCBG4Zu3O1gyr/NFrNgUjWMsbNstl6sb614QoiewfmJwfYxU960u9IUZ8RxDezmHOfknSYMOj8n3ZRzk8/z5jx3UzDO1OMlFlyXxbfZIjfloskXVWYE1luOq7fZCjHsaNzM+6WJQY6LmHgTf3k1LE98SyY/mRlD+gg3ijEvTIR8HMw3z8frQDoPc2EK5PPjd8IcLgRjGsQbJIvyKsONDn4KMVjpyTkdjTeOf85x/4zc3PJ4nFeY7543P/NmUCNxo6HkikvrXW7oUa9oQGFg+bhSlFfetCMuN2+MF+CfY5ooyqDPmEni5Tg+687jlhl2pDvNlN9Wq+w4cxLyZbmoH+Novt2uWiYiaGaeEKKIIjOv6C22iHGollHF+MfNLvH4XmBs40absYeXUBxpesIU8ywz9DDvPO45pqJZcT6TzvPy5b15GIOZ1ZPPAxOON/P6mEsd8+3zGXdldXA0M0+IviHOskO8oXobE+cp5hdjRdFS2LyiuUa6m0w+fmD47WmKxhkv1PDltoyJ/MHgQdPXTPH5fHCw6TETcTHh+COEj0VxVp7XpZahp5l5Qgw7GjPzhBCiUaJBV28mVzNxhRBCtA9lM/OEEEIIIUSfIzNPCNFaZOYJIcTQR2aeEEIIIcSAITOv1RQtAZak/hJLL1lCO5CwbJW6cB7E5+MV4S+6aCSuaE+Kli5L0lAVYywvTBAy8/oLlvSyZC9/LErScFVcLisaJz5Xr6hfpeGlmSae+6jzaFAjM08I0Tp8pl0UYUU0E1cIIUR7ITNPCCGEEGLAkJknhBBCCCGaQ2aeEEIIIcSAITNPCCGEEEI0h8w8IYQQQogBQ2aeEEIIIYRoDpl5QgghhBADhsw8IYQQQgjRHDLzhBBCCCEGDJl5QgghhBCiOWTmCSGEEEIMGDLzhBBCCCFEc8jME0IIIYQYMGTmCSGEEEKI5pCZJ4QQQggxYMjME0IIIYQQzSEzTwghhBBiwJCZJ4QQQgghmsPNPEmSJEmSJKnfdb1JZp4QQgghhGgcmXmSJEmSJEkDJpl5QgghhBCiObTMVgjRbiwzMS49L/skhBBDGi2zFUIIIYQQzSEzTwjRbsjME0IMI2TmCSGEEEKI5pCZJ4RoN2TmCSGGETLzhBBCCCFEc8jME0K0GzLzhBDDCJl5QgghhBCiOWTmCSHaDZl5QohhhMw8IYQQQgjRHDLzhBDthsw8IcQwQmaeEEIIIYRoDpl5Qoh2Q2aeEGIYITNPCCGEEEI0h8w8IUS7ITNPCDGMkJknhBBCCCGaQ2aeEKLdkJknhBhGyMwTQgghhBDNITNPCNFuyMwTQgwjZOYJIYQQQojmkJknhGg3ZOYJIYYRMvOEEEIIIURzyMwTQrQbMvOEEMMImXlCCCGEEKI5ZOYJIdoNmXlCiGGEzDwhhBBCCNEcMvOEEO2GzDwhxDBCZp4QQgghhGgOmXlCiHZDZp4QYhghM08IIUTfsIXpbNMLs0+Dm6HUFiFagcw8IUS7ITNPCDGMkJknhBCib3iH6QjT2tmnwc1QaosQrUBmXjm/NnWZqtfUhbrZ9CvTzqbhNK68wHScaYKp20Rf2M3IWueYXmOiLz5h2tDUX1B2p8n3zZdMI01i8DHYzDzGgA6TH3tFusXEMfpyk65BKn9YjX12qqmR76H/MB1retDk4zNjz7mmPUwjTB83bWTqr37+hcm/S9GXTeuZhgL09zGmB0yxv88z7WlijP2Y6XTTcpP3wQdN/XFdwbHg4wX6kGkQXs/0zMzb0fRL03xTNf5al5veboIzTMxi6CknmjxfxOdWQL1vN3m+tIEwdt5Bpv6E/qEu9OG+BAghGoIbgatNcYzIy8cj4oqB4yzTqyu/DnqGUluEaAUy82qzuekKk9/EfNHkBtEHTH4zynXga03D4Sb9laa5Jky8O0zRnNjB9G8T28aZXmzqT04w+T6JZh77kXo9aXqviRv+WhD/JlOj8UVrGYwz8zhmLjO5oXyKycfV/zatMBGOEbKXqZ2OKep+g4nj/f2m/jLB+YOA90sjZt7upkdMjC93mXY1eT9ub6IN9P9406am/hyPP2vytkQzj769zjTPdLBpHVMtmo3fl+xmetjk/U3/x/6mnvQ3P19q+qbJ+6C/zDz4hsnLHRZmHjfG3zVV42Smnd8scwBhjhE+3dQbMw+YAeHltMLMe5WJC6bzTV7naO71tZlH/rEdfPb2USchRHNwTnPxwDnEue1GCyZeUXhP8XNXfw1tDr4DvmIaCv02lNoiRKuQmVefOEMvmnmAeeQ375hXzAYZjPCd+3lTvZt44vkxU2bWcX3OH+OuMfW3mRfrF828GP47U/549/b7jTOfV5rK4ou+ZbAus40z9KKZBxhXfkxhNm1sahfeZvJZVb83rW/qD95q8nLrmXnE9eOizKxjFtk/TYw9/W3mUb9nTNQvmnkx/A+m/DHN9s+ZGo3fXxxoetpEPdysK+rvi030N9sxNH0f9aeZF2fnDQszD9Opur3U/CJOK8y8aHb11szj4oCDhRt7DICIbytrTyugL+iT2A7CNDNPiJ7DOTTNxBiRN+3KjL5m8TJOMsnIaQ6WpTKuDoV+G0ptEaJVyMyrTy0zD9PHb95nmMaYBtsYwx/yJ5nybcsTZ+Qxu4glbWVtJS43ov1tbpaZebSxbGYe2yaaaL+beYRpZt7AMRTNPAwznz3EWLGtqV3GCo73gZiZh3HViJkXZ+Qx9uxtKjsniXuBaRNTf/ZvmZlH35bNtGPb/SaOlZ7O5OsL4ow8+vv1prJjgri/NW1mkpnXYxo386K5hvnls9vycPPLEjh+9oZWmnnUBTOtLC/KQn0Bs/9qlS2E6Bm1zDz4jcnHEP7I0OwXM+eu5y8zrzn4fuCZJltmnwY3Q6ktQrQSmXn1GcpmHstiee4fN231njFHP/gsRGar1bvJ7O9n5kGZmVeGLwtm/xJ/IG6cxXORmTc8aNTM4/rNz2v+SLCBqRb9/cw8KDPzymCZ6vUmxtR2e8bez00+i/SPpuebasEz85iFLTOvxzRm5vnsteq2uqZU/pl5+WfV8Xt+hhwdyA25b2faaFl5+fxY3ltmLkK+/kzhz5efp5Ey+ByXHU820Q6HMrxNUcSL4bF9tfoqGpyIsmL5/N4InqZevwnRztQz8zivuMlgO4Z6NGM4d5hN4OcO59lYkxNn9kW5Kch5els1DHEuNfKWU567Rp24aBvKb0Wl/4bKstSh1BYhWonMvPr0ZpltNMuIwwPwX2RyYt58B37ExIPyic/no0x5Q4pZbzFPnlv3TlOcqRJn0RGHmSrU7Wcm6otxtZ8pxnEVLZ9ltgjftx63EaMs4nX2tt5pepcp1jk+7w5xg/gdk/fvD0x5s42ZK4+bqBd50l95My8afDGc2SZF7c8rb/Ix88cNQLYXteV4UyzT2+Lt+6FJ51w5Q9HMq7fMlrHiRpMfV7zQIbupz4EJ9FOTl8Pxx4sIvmXij9aUGctCPLOP+8/4ggLCOA/iElvk9eY4n2Py84Plt9T5JyaO7dg+6hTrzssRiJu/5qLMR01+vn7a5AZnmZnH2BNfdkG8Zowv2uHP0iM9z35jtm08p+Pz7tBhpm+bvA9/bMovPWYGo/cPedIW70c356LBF8P3Mc021Rt7ikw+ZsK5CUicovZgbsV9+kkT7fE2sg/LDFH6+z6T9zd1aHTZdTTVvMzHTLSTMvOzJeNz90jDBI6y5dM8j8/zos30oX8HFZl5fNfFc8DD25TGzLy8KdXMLDZPy800N8DIZ6p5Pm5SxThl5qHn57MD85/LyBthiHTRfHMaKQMjAQPAw6ij50l8J5Yb21EU7uXU6qv4LEHKJ46XHeOV4WUQN19XIQYT9cw8zgX/sovbebYNRh03MMBn4nGuRcMvpo8z8zhnSM+5jyGX/1yGxyur71CCPqX/hoIBNpTaIkQrkZlXnyIzj2tGblaeMBGOoTbaFMcYN9T4XmLGnn++1hRNv5i/G4Iel7C4zNONKWb28OIJrh/dZMsvB40mFmVyvenfh27YNTqTLW8ONmPmNVNnDAm/seNmn/hMDHDjol5fRJMt1rGsnYT7DV807eqFU+YrTJTJEl3a8j5TbMv/maLhQh0xLL0e+fjiWYaSmcdYwSxVP384FrYxxbHCjTOfscf5xmfO02j6RYPtUBN/GCgzEM80+bHmxl00+TwMoqEX84jh1IU/gPv5hSGJORPrvp2JurMklvjRvPFZeDNNGFKcO5hsnl+ZmUf+vsTW4zVq5lEmx1Is043B/BLW/zV532AWER9T3g2wGD/mS/3INxps0YQrm7HXbDj4tliuv2WWFzLF9sSXUdAe4rP/fX/m4zu025fYeh16YubFMj0sztajnFkmjhvaQVw+c1zF5/P5c/mmmpiwwZuD2U/0AZ8ZQ4vMPNIxw/Brpv5ect0D+tbMYxDiBpc08SUPbj6xDRe3KA5leHludsX88mGNGFPspNgOFzPVyAcaLYO6xjjeR27EOUXtgNinhMdyy/qKODE/3w9FYbXwmXmNzuQToh3piZnHOeRvwvVZdjGeG3wQw93Mi+nzYUV1yOMz875navMvhx5DfzCLYCjMPBxKbRGi1fjNXtFNlKgQzba8+M44xJQ3ZRh3/C24bgDG2W3vMXkaz5+8/Dl0Mb0bfDGMmXZ+I+bpuSmKy3zzBhz15BqamWxepzKTK09PzTzqzEoa6hdfJMEMRW58qfPWJq9znJ3nxl1RHcvyLWtPrfBapl0Mb7YtcXaeG3cx35NNRTfT4tkb88Fs5uXFs8dY/pnf5xxXl5o4htxIY6x4yMT55s+wi/HizL64fDcacUXGXTTnGjHzMFjcPGQbBiJjCLPrOH75g8C/TPm6u2HmZWCseDxm+PmsMMwpL7fVZh5l8jIMyoxLc33JLmYQM8P8fI2z89y4o35+LHq5ni/7OebbrDnXbDjlXmLycv3cwNzy9jC709sTZ+e5cZfPu8ika5WZ58ZdfJHGaSbyoi0YdLTFwzDwfEZgNP18ya8v9y0y7orCmA39YZP3X5vTt2Ze3rBy3KBi2+HVn/k4lOHleXi+HnnF9GUwoPGXunw+bqA1UgYmgs+Yq1dmUTsg3zeN9BVxYn6+H8rKEGIo09OZedFQY+COy23jDLyY3sM5B4uW37pi+uEKfcQ4NBT6gbYwM2+471MhinCzoegmSlTIz8z7TxOGmH9nRGPNcfPL4+QVl+sWmXmQD2cs8zyjIeUGWD59NOB8Jl6eMpMrTzQi68WNxDoU1RmDI9a5UTOPfH3JVcy3rD21whs18zAVYpkeF9PO28JyRzdpZeb1nKFg5mFuvcbky0oJw8jKmwt5wywvN8livPjG2f4y83wmXryWaqbubsjF/DGX6pl50Rz0eI0YNLHMmMZNO87X+CKNRs08zC5fIhvzbdacazY8mmzRYHPTjvbEF1X01Myjv1uxzLaWmeez8sqOmyKDz808wjgWeUHIG0y0N2/m8T3CcenbBwGNmXnRvEKNGkZcPHCBkE/D757X6aaiOEUGVVl+9aD+PMcvgqlHmJdBvuTfSBkxTpxFV0SZ0ZYvp6xcfvf05BXz43coK0OIoUwzZl5+CS3nG1P+mfGKue/xmjHzZNwVg1lab4biYGEotUWIVuNmQ9FNlKiQN/O4OeBmgRkfhKE40w6imVdk9kUaNfN4I3eRIVVkgEE00srqUGZy5Ymz0ojbyAswoCz/sjo3auaV5duT8EbNvLK4buYRHpfOyszrOUPFzGNcjaYayr8ttsyky1Nm2vWXmVdUt0brjolUlH8MLzPz4gw74jXyAgwg77wRB0WmHTRq5pXlS3hfmnn5cO/rItMOemrmxRmAxGvkBRhOT8y8Wvk3Gi+Wy32h153n8WFODoL7vMbMPPBlpaiegeXUM6jY1tOZeb7stBG46S97w66XQ77k30gZMQ4mQVG+TpnRlu+b/GeH3wnz+sX8+B3KyhBiKFPPzCt7m60/I4/zm+WTnD98Jl4zZp6nF8/CPuGhtUOhX4ZSW4ToC9xsKLqJEhWKzDyI4WVLXIu25WnUzOO7y/OMhpQbYPn0rTTzIMat1yYn1qGozswmiXVu1MwjX58l11/LbDEuNDOvf/Ab86Fg5kEM59yJb7KNhlh+WyTGa0czj2WePDOvrO4+S458mllmC8TzYyK/PLaMWGaRmcf52tuZef25zLa/ZuZBNODobx495v1Ui56YebXyz8fzZ+TlieXiSfHoAz/2KbMR83eAadzM48bGZ+e5sVQE5hez7fiJuOElTTSZ3BhkGzvB840mYTSo/NluMT8P93KYXePmVh6ve5EJ6dvclGukjHwc8vU4zPaL9YjtiH2QN+9inmV9RZyYn5dTVkYZemaeGApwvpaZeWXbYjjnVrNmHuegPzMPsVSXPAivNQY5Q/2Zecz+YAwaCm0bSm0Roi9ws6HsJkqsVWrm5Zee+rPtgO8Tf74d2zDT/Ll3mDzx7bNFZl5M34pn5rXCzAPK8hkytWbn8ewm2skD+vvimXn0vb94oszMa9Tka9TMo//1zLz+YaiZeRyv/gw8tsVn3nFcXWry8wqzi5t5wjGYeFOyH/OeRzTWBtLMYxaXPwvP6067qDsGS6y7L5UtM/NieBH+rDvi1pqdh9FHv/FYgb54Zh5t8ZdOlJl5hPuxW2bONRveX8/Mc/xZdcStNSuOPqQs8mrUzIvPzPP8eYstx80xJo4b0ubjMdOOY5KxlLKONNE/sVyW2Y4y3WtiH2FyDoLlto2beYDxxhut2MaFA4126EQ+8zaoGO5Gk5tR0bzzG19umDxPTC7iRLMMEQc8v7yKjDrHDTvikS/5A/VxY8vzh0bKaLQeedOOsnF+Y/p822r1VXybbVGfxHYUEevj/S3EYIRjNz6/zl9ewXnDVGnCGK+iyZdPgyaH379qYuCGGBczL567flEVxbnvX4RFxPw494bi8s2vmOJy5sHMUGqLEH2B3xz5zZtYE26Objb59wWmGAaVgznjNxoomn35bS439pxoFrpxF2f2xWWo5Mk+wzhq5m22fzfFMp1o+GFQ7Wzij/llNz5c18Y3zlJ30vj3Js8zYjY0Rpsbk83UOZp5brrFsB+Y3ACLs/uYEUe+3IB63ZCbbrEvohHHjWGc4fcyEzec3Ez6jWyMTz6E05Z6b7ONZp4bdzHshyadd8UMRjOPseJGk5/LmFPZTXmVaLqhaJrlt7nyebhBxzH/OhPH32UmP+bzeUaDjvM01q8sLmVGo9DDMVUw6vLXyDFOFPnE+LHuzIhjltVPTX4+eJoykw5jhzf0+nl5nolz0M85xh62Y3jSN4RjXnEsYXQxy4v+KnubbTTz3LiLYT82eb94OG3Zx0RbfmKKbXHDLRpo0YTLz/DbxUS57zYVxQfPi/YwdtGesrfZRjPPjbsYRn1rmaf0d3wjLiulqGPsb94ATH/SB4zV3zB5fDfueOmLtyeagtHki3Jjz4+bsngYe9SBePlyaVec1TcIlts2Z+YBX8Z8IfEXpmrcTNwQMzOF7Xm4iXUTEPE7YRFMKjeZfmnCECRPLgzycdkWDamych3MPPL0use60A7C8jRSRr5dPosvT75tmAX+2eUmXK2+iqadKz5z0FXP0NPMPDGY4RyLs+Py4nzw87rofMSkYYAmHktuGaQ9P863aLJx7roBx7nrSy4ZH6IxRz5FZeUZDm+zFUIMD/zmQ6bCc4kmW17RtMNUigYS3yevNfH9wA3WBJN/X33fFM1A8HLY/hHTLSaPX/SmXG7oPA7l3WGKM/0gmnRer7KXYBxm4oUexKUuRaZfHowLjDM3sryMK03UZUNThDpjinp/3mnCMIt1jqady2e9xbA4sy7WHaOP/uNmnj/q8aIS9gHXEfEm2/PwG998+8mjVvxG2hJNO1dRWzQ7r5jBZubFGXl5RdMszpZDbspx7DBTzo0mwjF7i85XDB8/Xs81cb/oecayAHOL45D8GLN4u6ebHogyuS/Nm3Hkw8s7fFaehxe9BAPIx00lrzuGRD4eb8N18/xHJs410n3NxJiZH+uKYCYYRhTjqp+DiHsAjDDG11juf5luMvm5d5eJPyKUGXku+jZ/DrvJB7TFX26C0fdR0/2mr5toC2NUNPJccbZdzAOzjPHej/2i+EB7MGVrtSeadi7Mz3jsoXqz84D+pn2Mq/n+ply+L+jvODvOhRkYXwCD3OQDnh/pL7jguKGcouMLYw5DztvM/vd4ReVyf8f3SQwn/zaeode8mSeEEEIIIYY3frMiM2/giGZefH6cEMOVwWbmDSRxVl/ezBNCDApk5gkhhBBCiOaQmVdOfhaDJPWFai11G64MNjMvP/tKkqT2U9FM1zZBZp54Lizr5a+81WNBkvpNPCNyOD+njHMv/0y/waL8vhvMbUG0ZyuTQ3vmmYriDhXl2yxELWTmDTxxOW/Rslohhhuamdc4cemuZuYJMSiRmSeEEEIIIZpDZt7AEo08V9mbZ4UYLsjMawyeA51/Vl98gYUQYlAgM08IIYQQQjSHzDwhRLshM08IMYyQmSeEEEIIIZpDZp4Qot2QmSeEGEbIzBNCCCGEEM0hM08I0W7IzBNCDCNk5gkhhBBCiOaQmSeEaDdk5gkhhhEy84QQQgghRHPIzBNCtBsy84QQwwiZeUIIIYQQojlk5gkh2g2ZeUKIYYTMPCGEEEII0Rwy84QQ7YbMPCHEMEJmnhBCCCGEaA6ZeUKIdkNmnhBiGCEzTwghhBBCNIfMPCFEuyEzTwgxjJCZJ4QQQgghmkNmnhCi3ZCZJ4QYRsjME0IIIYQQzSEzTwjRbsjME0IMI2TmCSGEEEKI5pCZJ4RoN2TmCSGGETLzhBBCCCFEc8jME0K0GzLzhBDDCJl5QgghhBCiOWTmCSHaDZl5QohhhMw8IYQQQgjRHDLzhBDthsw8IcQwQmaeEEIIIYRoDpl5Qoh2Q2aeEGIYITNPCCGEEEI0h8w8IUS7ITNPCDGMkJknhBBCCCGaQ2aeEKLdkJknhBhGyMwTQgghhBDNITNPCNFuyMwTQgwjZOYJIYQQQojmkJknhGg3BsrM2830AdNXTF81vdm0rWltkxBC9BEy84QQQgghRHPIzBNCtBv9aea91PSjddZZ53H72W2q3kM/qxEjRjxoP08yrWMSQogWIzNPCCGEEEI0R3+aeRuZPmj6vWn8yJEjl5hm2+/XmX5gepNJM2CEEP1l5h1iY9B8+9l98MEHp3POOSeNGzcuPfroo+nee+9N1113XfrhD3+YXvOa12DooTssLrP3RpBYCCFag8w8IYQQQgjRHP1h5m1g+oapy5Q222yzrv322y/tv//+q7X22mtn1612s/yE/XyHSTfLQgxf+trMYzbexabOHXfcsfv6669PXV1dqRYXXHBB2njjjTttjFpp6U43aTazEKJFyMwTQgghhBDN0ddm3k5283uP/ew+8MAD00033ZS6u7urt8fPsnz58vSnP/0pbbHFFpnhZ/qh6T9MQojhR5+aeTYmXWU/uo444oi0ZMmS6ihUn8mTJ6d99903m6Vn6b9pkqEnhGgBMvOEEEIIIURz9KWZ93G76V32whe+sJPla/VmvsCiRYvS4Ycfnt0sjxw5cqrlsYNJS2+FGF70pZl3hGnlt771rdTR0VEdeZrjgx/8YFp33XWZobeXSbOIhRC9RGaeEEIIIYRojr4y85iR98yee+6ZHnnkkeotcONceeWV6cUvfjFL2m63vPTQeSGGF31l5m1tY8oSZtetWLGiOto0z+OPP55Gjx7dOXLkyAcsT54FKoQQvUBmnhBCCCGEaI4+MfPshvnf66+/ftfUqVMLl9U2wvnnn8/sPOr2ZdPILOOhyStNPzddbZIxIEQfmXlrr732JTYudUycOLHH45Jz0UUXJcuLOrbq+Xm7m35mYhzYmACjKEwIMeSQmSeEEEIIIZqjL8y8L5o6f/KTnzS0tLYWBx10UFpnnXVYzraLKb/c9tcmf8ZemWaYRpvadakuRh436/NM15pk5gnRN2be1qblX//619OqVauqI0zvsPGpa9111+WN3I3U822mz5mKxlpMu5+aeAHQOBPGXVFYEeS7wpQf+04xtXrGtRCiT6hv5m1hmm6qhq8hwtne7pxvivW+xvQCUyQfh89CDCQcoxyr8bjMi9fiX256u6k3fMg02eT5Um5fndu/McU2UNYLTZF8HM5HPftI9BW8AbPbFI+5WnqXqZHj8VUmbrQ93UmmZo7jHU23mrxuvzKNNXG+HmTSOSEGklabeRuMGDHiad5W29PnUUVYzvaSl7yk0/L9k6louS3P1ON7j2vZvGmHUfaQ6bWmdj7PuE64wsT3qMw8IfrGzMuelXfPPff0+o8Mzq9+9au03nrrUU+uE+o9O4/vfp4Duq2paDxiHLjUxDjgxl1RWBHEI/8O03gTcb2MzU3vN+lxBUK0LY3PzOPmAeOguj27kRhMUH+vOyoy6xhQubDrrTEiRCvhuHRDnXOQz8CNPl/StY7pRjjRRHryIk/KiuX0BZyP0TwpMusof5IJo0WIvsTNvA+bOA4xsrlw5tjkXPhPE3zQRLxGzTwgb58B1IyZx/GPEfhbk5vd0dxrpg49gXozNvRlGWJw02oz70BTx9VXX93rZWzOMccc47Pz8n8wAjfCppmKZuB90vRqU7ufA8wy1DJbISr0hZl39vrrr79q2bJl1ZGl99x2221pgw02oJ6fMtUyy5hl96iJ732MtbLHBvzSlF9SWxRWxHEmxsn8jDzCuQ7QLD0h2pbGzTxuLNzM6+sb/b6Ai7ZofCAGqAhxeH4BP4VoF+Kxmz/3entexrz52V/HPuVwgeHnItL5KAYKjCtmg/pNe5mZB8R7p6nRG3zOSZ+d16iZxzF/lSlfNvi2ZurQLN7+ZmcSiuFFq828n7zwhS9ctXTp0urtbu+5+OKLMfOoI3+Azs9+4VyqZeYNFmTmCfEsfWHmXTF27Niu5cuXV0eW3sPM4ec973nU85umWmPomaavmB431Voy22ozDxNxjulkk8w8IdqW4WXmMaidZaq2MVOcYUgcmQei3eB4LDPzuOkumrXXKDHv/jbzis5HDAqHODofRX+AmReXrdYy8/Jx69ETMy+WX5Sm2To0A7P/vOwvmPqiDDE0aLWZd/VOO+3U3Yolts6kSZPSuuuuSx35Y1GjZh5Lyw425eOzLPdmk88qv8MUl+GS3wdME0zvNh1u4plVfzZ9vvr7e0zMTOfGnDx+YHqRiWW9njc37G7MkScvuPDZvYxHR5li3WTmCfEsfWHmjd9jjz1aauaR1/Of/3zqWcvMYyzi2XeMTyyZ5bEBZbPzWmnm/bfpMZOPdci3YfLdaPIx6VwTBgLj4EtNnzXNNVFPVjP4rMIfmYgX07OsdxMTabc3efidpq+ZjjTJSBSiJq0z87gBuN1UTZ/Jl/3V2sYFVgznBgXlwyL5/Bis6t3ws5143CRRtqeNbSFOkXmQL4/fmzVNnO+aGq2zEMBxUmbmxfOy6BmWtc6VmNaVz79e+idNvo1zOcaPxlwe8ig7H1nWBMQpOx9vM3kayvM0zYKZyEUGdSlahiWGJ7XMvDz545Fnz8RjifOkpzPz/EIaw6HeMU498s/XK1ta6Mc98Xi0hC8vxlCIz/hzsdS33jN9It8xkT912JAAMSRpqZk3cuTIifvtt19LzTxumKtm3v9QRFbQs3AuFJl5J5j4PovxOTcw4D5q4lzA2LvSxI0nBh1h3BD7Ofh1E+MGN7rEmWIi/BzTzibKohxuzr9n4jqXPDADeXYVLwLB5KN+fP9j1FFff3GHlwky84R4lr4w8y7cdNNNW7rMdvLkyT4zj3O9bJktYwqP1GAs8pdV/N60vikP17GtMvOgaGYedbjE9AoT44/H4Q8QvCTkf023mBijGPtebvKxkfz54wX3BrQHw3C5iTJfbPqXib6gLIw9zEv/LIQopTVmHjc+GAk+s4ebCn7nJr3WNscNLuTGHQ8bzYeB18Pzy38ug21uHvA78T1/bw/hefPA86cN1B35TKi8yVgPzyuWKUQ94vEajxuOxWi0cfMR8eOt1rkS847hQHzMOsIxBfKfgXPATQEMAj83iuoToZx4PnKx4emoI8YF4UXnI3WgHF4EQB9wI0a6WuZhEZ5XLFMIaNTM4xjC/OKcwLTKfwYPI69mlq0y+44LYtK5qIsbb5FG6gG0C7PBw5ktxPnrbSTfWG5PZuZFQzDmK4YeLTXzRowYcdeee+7ZUjOPpWwNmHn+HRbFTaTH93iY2vGmm1kz+Rdo8MxlN+NieR4eTTg3CGNc8uRZsZSFOZcvlzTMepGZJ0QxfWHmYc6veuyxx1r2PM9LLrkkrb/++tSTWbz5sQkYCzj3MckYWxiHMLj4fn2dyc9/p6/NvP8wUf57TbG+lMGsY68Thh8mHWadxysyBmnfg6bfmWgjv8dZh6ThuaUy84SoSWvMvLiN5QPATQMn+BtMZdv8Jp2bfrYjN8j4mQ8jPjchhLlR4GH5OuUhHmVSNvAzGg/8jjEQzYNYXjQfvb5s87iN4sYlP4VohHgcFukME1+KkZim1rkS48XjuSw9FwWkd+OLfKIhtq/Jz49GZ+YBP92UQ27W5c9HN/04H90goDxuxqhvs7PrfIYSMyNkOAiH47Gemcfx6LPn3KTzsJiGc6QnZh6wRMXPryiOVz/WG6mHl3meKcZz443zbScT9NbMA5+ZRz3zNxxi6NDqZbZ/Hj16dMeqVauqt7u959Zbb/Vn5rHkNX8scp4UzcxjdhxGt99UFpluDkYa55Avt/W40WyDnph50Tikrm81MXtFM/OEKKcvzDyubVecf/75qbOzszq69I7jjjuOPzQw045ZaUVgin3OFMdXN92KZudxTd2XZp5/5rud/s3LzbuemHm0hTrwh4pDTcxK7sm1hxDDkNYts41L5TCquPBwam0Dv/lHtcy8WIcikU8ZlBnNA8jnxywnbkK8fnF7zNvrW9QPQrQajkc31vyYi+dUNOGcRs+VmHfMp9H0xHOzIRre9aCcovMxGhdF56Nvx4xwqAsXF9RXs+tEK2jEzON4dJOuSG6YxXjNmnnA8c9yvLypx80+N/ON1iO2qVY9WmHmieFBq808TK3OqVOntmz2y9lnn51GjhxJHXc15Y9lzq0iM4+bzPjMvLLZduBLZd1ca7WZRx2PN51tYnku57tm5glRTl+YeTwG4InXvOY1LXluHjOGN9tss8611177Isu6aMks570/I4+25DXDtK0pjmn9Yebdb9rLFMe2PD0184DltTeYuAbxZ+zpGkSImrTOzGPgictluRH3OLW2gZtjqFEzz82ERqEOefMAYjmozNCI5RXVV4i+guMxb+ZxHMeZpfnzodFzJebdyLGfh3huMtSKl6fW+Rj/6kedfAZSLKvIzCO82aW2QhTRrJlXyxxrNF6E8nl7XYzLOUOYH+ter0bzxzjweG4EFiEzTzRKq808Zod2nHXWWamrq6t629s73va2t3XZTfhsy7eojpxTRWZeHjfdLjDln22FmccSs76YmadltkI0T5+YeQaPf1r59a9/PfV29vBBBx3Ute6662KelRljGGLfNq2XfVoTnkXLWBKNN+gPMy9vyDnUl+t3xrHemHnO3qabTNea/AUZQohCWmfmOVyw+HO8MBvizXrZNm7GCUNujkWTzcNiHaLx0Ahl5gHE8hsxNDx+rX4QolVwPLrhFo+5eI7kj8VGz5WYd9mxT3jZ8lXitdLMg/z52KiZR301M0+0Ao7LZsw8Ljjjs+kiMV4zZh4P198q+7QmbrZ5vRqtRzTz+P4tyhtk5olGabWZlz03b9NNN+145JFHqre9PedPf/qTL7Etel4e8D3UiJnn8fj+iW+vhbyR1kozjwffF6WRmSdEOX1l5jE+XbXeeut13HPPPT3+g8MFF1yQLA/qV+sttmeaGGuKjD43xnjpRD3jrpVmnj8zj9mC1J3lwYyFxLvYtE31c0/MPOrHNs8TSHOfqej5gEKI1bTuBRgMGG4E8JmbBeJxAVO2zfMoMu6KwsjDjQfkS3YRzxXweEUQp8w8AF+2GA2NWF40Kori+szDomXEkRhPiEaIx2H+3IvGVzTIYxo/3ghD8VyJ8eLx3Gh66tJqMw9+Y/I6xWeDcVFCeDTz8nF5Dp7XucyEdPTMPFEEx2Uzz8wjnj/HjnBm63COcExxjuTNvHjcFR2jXn7RDDrf5oZco/XIxyNvjD/CmfHHrFbilZl58Tl49c4rPTNveNByM8/Y3W6Yn/nABz7Qq2dTsYxtiy226Fh77bV5QQXHeBG8kZbtnOP+ltoy3IzjBtrfRssz7CaYosHnb6PNz+Lz5bhHm7wc8szP+MOso04Y8/ubfDtGHfX9uYnzEwOQ53jxbNmbTYwHeaNRiOFIn5l5xtY2Pi3ZZZddumbNmtX04wBuu+22tMkmm3RaHg9YXmXmO8Yab4R1cywP45mbajw7j5t3jLEbTfxhwmf7FYWVwfU449Z4E8Ya5boBh9lGGTzLjmff85w/+jcqmoBuDB5j8nENg+9RU5yFR/4PmRjreAEGbeJFI27okQ9/2Niu+lkIUUjjZh43BNVt2YWPv8wCGFi4kcbk4nf/zMUFL5Uo2+Y38jFvfq/1ls4YN6re87q4ocrXOw95UDfq6Hh5Hk7dqDthbAPa4WF5syXidagXT4gIx4kfX6jo3PNt8Txo5FyJx248J4H0fuNflj7GqXcORmgTJiBv5iwDk462RePAy/Pw/Ntsqb9/5hyrNVPP69BIXDG84NhwAw4VvUEWovEVhVHm8WMczLwtTfWMQo5jj8OFLjfswPnuRmCc5VerHvECvpF4cQYfZh5ln2aK5xV1Lru4junrxRWDm74w84AXH3X+7ne/6/Hsl0MOOSTZDTN1e72p6PhjNlv+XOA5VPWW23KT7d95d5heZvL4+Twx/kaZmNUXwzHnOH/j87Ao+ygTN9QxDEOceJxLbMfA5waXz/zBKo5TKD8jUIjhRl+aeXCIaeULXvCCTp7J2cjbt3nO3umnn569WdvGJc5ZxpL8ecr3e/45efHtroBBhwFWdG0ehSnGDN4YL58XYLLVMudONTHO32na00SdDzT928SYtsD0GROmHTP3eEFPrD9mI9cRmHseNtP0aVMsl3z+bOKFfl5vyqxnQgohGjDz4s1+Xn7zzwDEX+J5W5ibcPzkRrvWtkicYcQFCoaFf0ZunAHbuJAhnJ/MFKKcMjAZYl55w84hLL490+HGLpqL/E5YhDqzLc5CLMLj8VOIWnAcRaMuKhpvHIt+Prj8fKl1rhSl43M8tuuldzPM1Yih5zPpXHnDzqGcsvPxNpOn53yMRpzPzONcrDeDSDPzRIRjjdmfRRfKnHNFS1PjG2c5R3gLph93HKv5m21u4hn/KYNn3xQdo5zbPPCebVxsc7x7nTAGMOXyx2utekS4ibjV5PkVzbTj+9rzoo7M4PNzxT/XQjPzhgd9ZeZtYDe8d6233nqd3/jGN5oy9JiR9453vMONPJ45VbS8VggxdOlrMw/2WHvttXkZRNcBBxyQbrjhhsJxChPvoosuSjvvvDOzhKkTRv5mJl1vCiFaROMz84QQQgghhIC+MvOAGSjM8uh+7Wtf2/Xggw/WXdJ2/vnnp4022shnhcjIE2J40h9mHmxgYgZcNg5uvPHGHfvuu2/af//9V6v6Jm2fjcczMDUmCSFajMw8IYQQQgjRHH1p5jkftxviReutt14Xz9E799xz07hx49Jjjz2W7r333jR+/Pj0gx/8IL3yla/sYuZL9Rl5+5g080WI4Ul/mXnOi0wHm3geHEvrWTI6y3Sd6YemN5tk4gkh+giZee1G0dJHaegp/3w60Z4ULSWWBpfKlseKgSM+V0+qLZ6bxnPX2pH+MPOAWXo/GTFiBM9SyveP614Tz3d6vkkIMXzpbzNPCCEGEJl5QgghhBCiOfrLzIvwBkSeD8mD0r9qeqNpW5Nm4gkhQGaeEGIYITNPCCGEEEI0x0CYeUIIUQuZeUKIYYTMPCGEEEII0Rwy84QQ7YbMPCHEMEJmnhBCCCGEaA6ZeUKIdkNmnhBiGCEzTwghhBBCNIfMPCFEuyEzTwgxjJCZJ4QQQgghmkNmnhCi3ZCZJ4QYRsjME0IIIYQQzSEzTwjRbsjME0IMI2TmCSGEEEKI5pCZJ4RoN2TmCSGGETLzhBBCCCFEc8jME0K0GzLzhBDDiNpmniRJkiRJkiSVSWaeEKJdkJknhBhGaGaeEEIMBrpNjMtrZ5+E6DmdppGVX4XoMZqZJ4RoN2TmCSGGETLzhBBiMCAzT7QKmXmiFcjME0K0GzLzhBDDCJl5QggxGJCZJ1qFzDzRCmTmCSHaDZl5QohhhMw8IYQYDMjME61CZp5oBTLzhBDthsw8IcQwQmaeEEIMBmTmiVYhM0+0Apl5Qoh2Q2aeEGIYITNPCCEGAzLzRKuQmSdagcw8IUS7ITNPCDGMkJknhBCDAZl5olXIzBOtQGaeEKLdkJknhBhGyMwTQojBgMw80Spk5olWIDNPCNFuDJSZt7VpP9NbTftX9XyTEEL0ITLzhBBiMCAzT7QKmXmiFcjME0K0G/1p5r3IdNK66657q/3sMlHuao0YMWKl/bzE9FGTvnOFEH2AzDwhhBgMyMwTrUJmnmgF/W3m7W76iuky0/iqLjR92rSdSWOjEKK/zLx9R4wYMdt+du+2227ptNNOS3/961/TuHHj0vjx49PZZ5+dPvOZz6Rtttmmc+2116Y+V5nGmDROCSFaiMw8IYQYDMjME61CZp5oBf1l5n185MiRc+1ndn26wQYbpP322y/ttddeqXqTnMlurG+wn68waYwUYvjS12beBqavm1ZtuOGG3X/6059SZ2dnKmP58uXp9NNPT+uuu26ycewpS/cp0zomIYRoATLzhBBiMCAzT7QKmXmiFfS1mbe56V+m7rFjx3b/7ne/SwsXLqzeIj/LpEmT0te+9rX0/Oc/v7u6rO3LJh3fQgxP+trMO9/UecABB6SHH344dXd3V0ei2tx2221p1113ZYyibseZZOgJIVqAzDwhhBgMyMwTrUJmnmgFfWnmHThy5MhF9jN98YtfTE8//XT1lrgcTL199tknm61nN8y3W9pNspyEEMOJvjTzDjatPPHEE9OqVauqI0/jMEvvgAMO6FpnnXX4o8PLTLqeE0L0Epl5QggxGJCZJ1qFzDzRCvrKzNt85MiRC8eMGdN90003NTzzxfn2t7+dnve85/Ew+itNmv0ixPCir8y8l66zzjqP7LLLLp2LFi2qjjbNM2vWrPSiF72oa8SIETdanizZFUKIXiAzTwghBgMy80SrkJknWkGfmHlrr732peutt17nHXfc0bSR52DojRw5krodbhqRZSyEGA70lZl3vo1Lq2655ZbU1dVVHWl6xq9+9atkeVFHLbcVQvQSmXlCCDEYkJknWoXMPNEK+sLM+7ipkzdD1nqofCPsvffeLGdbavmNNmncFGJ40Bdm3otMy4499tgeLa8tYo899mB8esDy1ew8IUQvkJknhBCDAZl5tXmV6WzTNaYXEiBKaQczb0cT++s201YEtJAXmK4yTTeNIqAfeJvpVtNJpoGYCUabjzfNM73b1B/jRKvNvA3WXXfdubvuumvXU089Vb3l7Tk8Q+/5z38+y215YH1fH++fND1hoj/uML3W1E5j9StNPzddbdqIACGGKH1h5h1iWjl+/Phez8pzzjrrrOwNt5Zvfzw7j++HX5mmmrY1tfN15IGmm0xfMvXF81iFGGLIzBNCiMHAQJl5mC4YLtXvhuyCcKzpA6YtTO0ARt4vTE+aWm3mcRF8gmmSyftgsunzpnw5biJRhy0JaFN6auZxLGBY+bHoxwIPBW+mvRw33zaxvzDcBruZh5HzRxP98gVTf5t5tPdbJs5T6jBYzbz9TB1//vOfW3bDfPjhh6d11llnieWbr+PbTR0mP6ddXzQ1e24wPvzGxOydHUw3mxgD2sU0w8j7mQmj91qTzDwxlOkLM+/s9ddff9WyZcuqI0vv4e22G2ywAfX8lMmX2vKdWjQuIYy4H5hebGqWwWLmHWr6vYk+OMVU9N3yVtNyU75/TjXJ/BPDkMbMvINM1fBCzTf90sSF/mCDAe5zJm7O8u3hBhF45sqHTLHNJ5raEerMW9y8nrSDNgohBjcDYeYxnmC4fNXkxtUHTW7CtJNhxTjHrJNWmnm0nxtgxlRMK4dZWBgnfFf8JwFVMKm4WI4GFWGYXe108dwTMw9DgL7IHwuE9dSQO880zdRqM68W+f3Rqv1D/zAzq1VmXiP1ysd5h4l9O1jNvLPWW2+9jqVLl1Zvd3vPxRdfjJlHHd9iyvcJY8a5Jmbv9dTk2tzE9SN93s7P5qOtV5jayWQUoi/oCzPvH2PGjOlopZnHizCe97znUc/TTXEM5Q8CE0x8r7rx9lITfzBifB9v2tjUbjAWvt/U22cA7m56xFRm5sF/mLi/xfSjP3hzuY/vraqHEIOExmfmcSHAUoXq9ux3wMBjwPHwdjW5iuBGjZsx6s3NWjQj+d1NMS5+aP8R1c8D2U4u3qkX9cZkjXh72B/87vslH08IMfgYCDOP2SZF5himASZMu80+K6tvT2CsxZgjvw0JyOHbo5HF94TPzPM0zODj+6I/91s9emLmYbwV9QXHAv3QE0OOvulvM48/3rE/3HjJf+4pHA9TTK0y8xqpVz7OYDfz/mk3zF0dHR3V293ew1Lb6lK2Y0xFfcmsOvqsJzPyABP3cdN7TK3Y733Jr01aZiuGOn1h5o3nGXfLly+vjiy9h7ye//znU89vmuIYynXEpSa+G+MsOg9nvMKs6sl41ZfwMg++j3r7fYAZ96DpZFOtvChvhSk/I++zJuqxXvZJiCFPc8ts4ww9N/MghnNjw0VtX0FZnKS9JdaZGxQGyTyEsc23xzStqENPKNsH4GYr9XWTFXMPY08IMbgZKDOPcSRv2jEe8ryzoWzmkRd9/i5TWZ9jRhHntyaPQzrGYj77zD6eo9af+60ePTXziow3jgWWOPfkWOhvMy8/e66Vs+laaeY1Uq+iOIPazBs5cuTE/fbbr7uVZt6iRYvczPsfisgKWpPemnm+XFdmnhDtQV+YeReOHj26pctsw8w8xp44i4zv1HpmXq1ZawMBs+nmmOoZcI3QGzMvzuqTmSeGCa0x87iI9VlgiHh9gZfTWyMtzsirZ3ax7U+mdjHz6IOimXnUj5tY6ubmoxBi6DAQZp6bVYw3GAWxbJb3xT/cMOZg8Hk9SXOkydNwgcaNM0t032ni0QX8TtzvmTDgGG/9+Xxuynk6nlm3r+ksk5fh6ZwyMy/mi3h2TC3Dj3blZ90VQb75ZaY+Ey+2r0huEnpZhLHUr2gWYKvpiZlHu1iO6N89+WMBMy+2hXgsQSaepyUc88nTupm3kykeO+xX+sH3PX1Mf9Gn/E6c75uIwz7w5/h5/xHmL0Px/vQlwaQtkxtjGGX5ZwPm9wtLoTwObWWf0/ZaBhznCMan9wXpeF5SjF9Uz3yexMHIy8fhvHIzj77yOPRVTE/7bjF5+84x8by3ZmmpmTdixIi7W23mPf744z0x89hPvEyE/sOki33JM6uIx7HJ8lrvQ9cFpp1NPDfPt8UXYpA3zxtlGR37ice4kPefTZwPsUxm/HmZ7B/2m+c7zuSmHHnyTDzaQXyOq6NM+fbKzBPDgb4w835o6li4cGF1ZOk9V111VVp//fWpJ+N5PFc5n4vMPMach0xcV7zOFMd0TCxeGuHfLTw+ILupr7K96acm/uAU8yxL59sd0t9oivFebqIO/216zBTHQjcbyT+fLp9/zHuBiRdfcL3XrJlHPR41xXqwDVPP6+FjJH+cZKmy14NlzMzoox3kwz7xvH5sos7kcYOJPFjau6mJ9NTfw+8yfc3EtW9LvheFqM/gMfPistfeGmk+gy3fjjK42GJwbQczrwzqJzNPiKGLX6DkL7L6EsaRaLIwBr/alId48Xl1fPaZbRgMfOaFBz6G+4sTgBtY4mHSMcuF9nEhRRjPZ/uOiYtXblCL0uVnxeXNPEzIy0yezg24fLwIaci7nrnm5pUbV0BaN7u8LGbmURb1oy3xOXtAvAtNtQzGVsJFZ5GxUQv2IUYU/cI+xKBwsy4PF8reTt9Ov3CxnjfziBefw0cY8bggZt/7Sx3y+5443zW5ycwxQxh/fOOYJd/8/svPZiub3caNFAYj+Xoc8nLDy8OoI/nTN1eaqGfeeHM8Dscd+fCZfqLO+Zl0RfXKU1Z39i3mnPcLS3FjGd4+DKey9jVKy5fZjh49unPVqlXV293ec++99/oz87iOK+rLvJnHfvk/kx939CXnM2k9bpyFl5+ZR39iwn20+hnTl2fVsQ+IQx5uAn/dxDniz+3jRtvL9P3jZWJwez0wAymTOrPP4rPwqD+mHfm91+T1BJl5YjjQF2Yef0hc8Y9//CN1dnZWR5fecfrpp2PmrbR8o+kGnMN5My+abvlZeTzD95+mV5g8LrPkMPwxrPiMkcc4P8PkecZ0jBP5dMQBwu83MX4xRsZ4/qw6D4sGHPlfYirKP5/uGyZe7EHb/2VizKs3+7DRmXm8MIN67GLyehCHemDIUSZLnfkDF+Xyvex1xuCjDMxcrmWZQYnZxws4KJc604cYkJSHsUf9/bMQ/UDfLrPlL4vxxRLcyHHTEuEzN0Ieh3w5sXiwJZ8xzRhEYxwXFy/EjUafq8ykyxuPzZhysZ1F6Rppb7261toey0deh3y4i/rQRzGMfqROsR/iPhNCtCfc5HG++gVWf4JRgjni40g0VoBxmJtExiqvH+MMabgA8jCMBNoRwzxeXIrKeMSFrOfnpk/eSHRzzMPzZp7XK5YHZaaa4/Vs1MyjT4qW49I2N/PY5vGjAQnUJ1/HvoQL1mbNPIdjIc4cyx8L4PsrmnmYHLEvgHjs5/zsx7ikl33BDUzsX88rGln0LWYIfcs+yz+7EPIGWP4zxwvp8vvSzcnXmAjnM3lH8yufVx7yxszjmPa+9zStNvNifjEefUEd8u3DTIrta5RWm3k8CL5z3rx51dvd3nP++eenkSNHUsfXm4raVjQzD4qWz9KXGHUxbozHuIOxxjEYl80xo4aZJlxrjTGxn9yMa6TMuaYY1/OjHIy5fJmeJuYDMvPEcKAvzLwNbBx54oADDkgrVqyoji49Z/HixWn06NEda6+9Nt8361eKWA3fFZh5jEv+PYt8Nlwcxzwuxn0cS7iHZtyPM/gI4/oDM4+xqpF0vGiCeIw/Ps4ThmGVNxujmedx6uXPZ8ak+AKLaMj11syjHpht1COOyfzBj7F8b5P3D6Yfxw4rDTxukTnI+PuA6Xembaq/xxdu7GY6zNSq70Uh6tB7My9vPhEHMJowjuJntruZFIn5clLH/Nywi3GikcYFPBdIHo/68Lt/zkPZ0RiMedWjrA7QSHvr1bWRtpTVge3EIzzG5yf7qigN5TGQelwhRPsykGYeME5w48tNP/VgbCubpcdNKbPh8sZdq828fH55M8/NNB//8ioz0DzfnszMi3j5eQOLtnh88sBg6a/nxkFvzDwoOhaicddbM4/+dwOP77xmzTzC3HBrxszzz/njxIVJxj6NaRwvPx9eBP3HrAVukjjO+svM4/yp175Yj3q02szb09RxzjnnpK6uruptb+846KCDmJk32/Itq2MrzTz6N7/dwUjjmGW5LccQ8fJmW0/MvHiDynHFDSk30ZqZJ4YrfWHmwZdNq84+++zU20cBfOpTn/IZw5yv+bGC85jvBjfLGANY8ukz5iJuovE94uN4VHxRRjTzyLNWOmafkc7zr/fCDY/nZl69epE/42VM4zC+teqZef65rB7RuOuJmbeByZfnfsLE2NrMd6gQLaDnZl4Us9EYJDCfgItaTCm2ubEU07rh5XBhw82Ab2dGGSLMzacyEyumJQ1QfplJlS8r5lWPsjo02t56dW2kLWV1YDtlE+51cIrqB+TldRNCtDd+MdKfFwpfMW1Z+XU1jPPcEFIXbia9Powr3BgzXjFTi/EMQ2egzTxuevPp6kE6brwZN2uZbPXi+fZ82+LsPNrGWO7b+4OemHllxwIzC9gHbqLBYDbzJppivfO4YRbLBi8/Hx7hHOFZbMwKYBkvxwfl96eZx7Pamp2BV0arzTxegjF91KhRHU899VT1trfnXHfddX7DzBKpsuO9lWYexyq/F5l5Xk40/Vpl5nFccWPLccXyXI4rzcwTw5W+MvM2GDFixG0bbrhhx8yZM1N3d3d1pGmO8Kw8ZrUXLcXkfI5mHmM15zdLcvOz1TCbWAK7lyme60VwbRbNvEbS8UcnlpTmy83j5l008+rlX5Z3q828+0z5ZwwW0VMzD+Jz83jGXlymLEQf05pltkXwLBvi8fMIUy0DjQsP3543opxYdpmJhSivKL0Tja18XvUoqwM00t56dW2kLY30Q1Efxtl55AFnmOgPIUT7MxBmXtnyT8YNLjQZSzF4GG+4SXTzDRjX+8PMi+FlM/Ni3g5pGQvz4eDtoa75JYkR8sBoiqZmpKx8b89+Jp6V16zZ2Fu44CwzN8rAHCs7FrhBiIZmK8w84pKefdTfM/Nivo4fL4j+y8fx8ovSAsfUQC+z5Tir175Yj3q03MwzOCc6mLnSm2dTLV++PG233XadLI2z/HguUhl9MTOPl2DEGXNAOdSl1TPztMxWiDXpKzMPdhsxYsSSfffdN3u5TrOG3uTJk1le22l5PGx58by1IviuyJt5Hsb3XjTI8iZaBLOMMd3HjbyZ10g6zz//HD1gJhrf0dQlX49G6oX6w8zLm3EO5h118HGzN2aew7LdG02s6vAXZAjRx/SdmQdcmLBklgtqHsLsafNGGBc2bn6V5RvLzqdnkHMzDZEXeRZBXDe9UCPtcGrVARppb7261tteVofYLn7yORL7mO1vMGE6CiEGBwNl5rmhFmF84aaQsQTjjHGpzKTrSzMvb97lP3s9KTO+ZIEyWQacn2kWIQ4XzuRXtNS2yMTK43nkzTwPZ1Z7mRHYl/TUzGN/RHMA6OP88+l6a+ZFI45jpr/MPG8Lx4u/3AKIx40U9fRy2O+jTE6+/Dy1jLb+MvNoD4ZiWftiexqhL8w8+Imp6+qrr+7x7Jdjjjkm2Q0zdWNsKutDaKWZx/iCscax72+vdaKR5vm0wszjvChLk89fZp4YDvSlmQfce63adNNNuy6++OKG/+hw1llnpf/4j//oGjly5FJLf6Cp7DuY76G8mQec97zNlu+evMnHGOYvkQBMKF76sLXJ00czj7GqLN3FJp4FRzp/Zh7xfmQiHuEsk/2DyQ0+0kXzzp+ZRzpeLuHpYv58Z2La0Z7tTF5PN/Mwy/LPE4w0Yub5M/O8HhgdXo9/mGL/9sTM41l/vOzC8wWemXevCWOv2essIXpA35l5DHbE42KawaaWEcaNTW/MPMfNNOIwODBQFBHzqhUvT606NNNeqFfXsu1l+VImZRPudchD33raf5vodyHE4IAbcM5dv2DoDzDHKJflID4GMbbw5tlo1DGW8JmbSy4SWX7pb8HFvOGPB6TDvCGM1/Z7OzAgPK2HkR8Xsoxl5OfpPH/wN956Hagfb6BkvIymnxuIPva58gZbEV43xuL4kgcepk9ZfG9hWJXhpp3X+5PVn+B9W2vmX1/BhW2zF5mYY9S37FiI7aDfMOAwkAjz44F4GJikwUhivxKPN3W6sZQ3+DzOp0wxf+/XaGBwo8Ixg0mLKcexkDcUMbZIR3neJv/M/uERF5SXP16iaeZviPV04C8G4ZigfXmDMl82fcLbgb2feNGXHxv5uPG4cWIcXsRBHGbbk99RJq8rfeXx2Od8Zv/n24dZFI2fRugrM4+Hzc/YcMMNO5t9fh4z8r785S/7Sy+45ql3nGNw0WfMpIgml5t8sS+5LsvPvMubgW7IMZPlZSaOPW4SWd7sBp+/jTY/g8/zOtpUq0z2PecRdd7f5NupP2/P/bmJfLjJ9OOKc/ZmE+dE3mgUYijR12YeHDBixAhMnu5DDjkkzZ49u/QPD7fddlt6/etf31X94wLfS7wEp9b5xznMeMF306GmOEYwqw0Da7zJ317rYeQfhQEVx+Zo5jWTjnjMoMvH8+fqgZt5GFwYfNSb79J6+fvy4d+b3BgkX54RyHfp901l/cU1BeMofRHfjst+8fyox4dNRfXHBIyz9fzNtceavH6M3bSL/HwWHmVgNjLGY0piWvJmcjf0yIc/trD0tqjeQrSYvjHzuGjggoF4jZhbvTHzKIsBys2rWDZpyojGVq22cMHNhTvUqkMj7a1X10baUlYH0lA24V6HPLGfy+IIIdoTN6T68+LAn5PGDSXmlY89eXML3HBjjMGsIx2mjH9mRoinR5gLjGHeLsR4R9x8GLOVMYKYTez1oA5u2rmZ6GlQnP3Hxain8/o02o/RmIz5F73FtQj6kLSxvkCdWWKbN2n6A270mzXz/FjwvvT+uMPE89/yfMdEHPr7Iybay/PoOE74bnPI71aT5+fGHt9PPkvO+5xjBhM2mm0cHxh9MSyvaDTyxlTiUm+MPtoVPxMv1on6RyPRwTzDvCN/0rI8lDQcF/RH0fHlJqDnSX8ym8/7KKaJ9Sx7xl2Mg7kT+wpzJ99XmD8Yf0Xta9bIg74y82D3tddem1ko3QceeGCaM2dO9da4nFtvvTWNHTuWN0RSJ67rmJVRhptu3jcuTDmM9thv3pecNx7m+80/u5gNx3mOceb7g/3jxp6bhx6fG0JmRDKjr16ZM0yYi7HehHHOEI/6sB0jmZtJPh9ioj7M1PM0KP9yDCGGCv1h5gFjqRtK6eUvf3knY9Xpp5+eTj755PSmN70pbbbZZtl4NGLECGbjMc5GY64Ivj/y4xLneJxBFuPYTXz2PDjGdCZpMIYQ9hlTvqy8mQfMEKyXDjDYeMkDYxrxPm7Kx8Okw5i70+RLgcn/JlOt/DHcPG/SvtlEmnNMvL03P05hsJWZc3wXeT3uMnk9/stEnoyT1OMYk39vxdl7nhezDvkjWzQjZ5qofyybvP5s4g9p3gbKZZ80e40lRA9p3MzjwjoaYNyYxAvySDSNisRBz0wNJxpUfzXVM6KoBzdY/sw3v9kjHcKoIqysfkC8uJyVQY48HabRsp0LZMoGbiQ9fjQAG21vvbo20pbYV/k6EI9wfnqdI54fcdwcFEIMDvzGsOimfqiDAYRZF82w/oYx1c2bem+5bQTahJk5EPuTi1ZdaIre0pdmHjATgiVgXS984Qs7jzvuuHTttdemhQsXVu27lCZNmpQuvPDCdNhhh2XLak3MQmT2oYwqIYYn/WXmOfxRj9lY16y99tpeNmLG7EWmw035580NBNzn8kdV6iKEGDI0ZuZFAymvaChFMLDYjsnFVFvMKDeSMALdbCoywoiH8ZQnvljCZ7AhZgCwbIF8Pf9ozNWCeOSFaRfrcLmJv9x6PYr6IM6Ma6S99epab3tZHcr2T5FhR1g0B4UQgwOZeQNr5gFjsc/w642hx/cB+eSXYvYXMvNEK+hrM8/Z08RSJh8Dn6MRI0YssZ/MktGNqhDDm/428wYL3Otyz17rOXRCiEFHc8tsxeCHm0i9+EKIwcdwNvP8+XI8+2Sg288fXXgmGvXhj0DUqZGlsv4cuep3bEPP7OsrZOaJVtBfZp7DTD2Wd/HHU15o43qjaTiOi0KI5yIzr4I/x46XUvA8zUtNLK/Xd78QQwqZeUMdn/nIX2O4CcXII0wIMbgYjmYeM4h5xkv1eykTz01rhz5gPOWB9TyHhTG21oswgHHXX5DQzDP7+gKZeaIV9LeZJ4QQ9ZCZV4EXMNxo8ufVFT3nTggx6JGZN9RhGS77kqW1PLePv2gLIQYfw3lmnmgtMvNEK5CZJ4RoN2TmCSGGETLzhjrMbPHn75U9i1AI0f7IzBOtQmaeaAUy84QQ7YbMPCHEMEJmnhBCDAZk5olWITNPtAKZeUKIdkNmnhBiGCEzTwghBgMy80SrkJknWoHMPCFEuyEzTwgxjJCZJ4QQgwGZeaJVyMwTrUBmnhCi3ZCZJ4QYRsjME0KIwYDMPNEqZOaJViAzTwjRbsjME0IMI2TmCSHEYEBmnmgVMvNEK5CZJ4RoN2TmCSGGETLzhBBiMCAzT7QKmXmiFcjME0K0GzLzhBDDCJl5QggxGJCZJ1qFzDzRCmTmCSHaDZl5QohhhMw8IYQYDMjME61CZp5oBTLzhBDthsw8IcQwQmaeEEIMBmTmiVYhM0+0AjfzJEmS2k0y84QQwwCZeUIIMRiQmSdahcw80Qpk5kmS1K6SmSeEGAbIzBNCiMGAzDzRKmTmiVagZbZCiHZDy2yFEMMImXlCCDEYkJknWoXMPNEKZOYJIdoNmXlCiGGEzDwhhBgMyMwTrUJmnmgFMvOEEO2GzDwhxDBCZp4QQgwGZOaJViEzT7QCmXlCiHZDZp4QYhghM08IIQYDMvNEq5CZJ1qBzDwhRLshM08IMYyQmSeEEIMBmXmiVcjME61AZp4Qot2QmSeEGEa01szboPpTDF42qv4UQxOdo4MXmXmiVcjME61AZp4Qot0YaDNP19lCiH6kd2beW03fHzly5Dz7WU23Wn83HW3a3CTak51NJ4wYMeJ6+7nG/rN9OsV+nmnayyQGJ5x7nzD90ZTfv5yzPze9xyQGBzLzRKuQmSdagcw8IUS70d9m3h6mb9h19Qz76ddprhtMJ5q2N+naTQjRB/TMzNt5xIgRt9nPtP7663fvv//+6eSTT05nnHFGpve85z1pzJgxXWy3wW2p/cRQEO3FybYPV9rPtNNOO3V/6EMfWr3/TjjhhMQ+ZVtVl5tkyg4uPlE997JzkXPS9y/nKvuXc5ft1XMZY1e0NzLzRKuQmSdagcw8IUS70V9m3ktNF5v4Pk377rtvOu6449JXvvKV7Fr7Ix/5SHrZy17WbdfYXGdzv3W6SWOlEKLFNG/mrTYJzjzzzLR8+fJUxi233JIZRcQ1yRBqD1YbsW9961vTzJkzq3vruSxatCgz9ohraZ6wn8zEFO0N5xjnWnbujR8/vro3i+EcxtSrXmicTAaibZGZJ1qFzDzRCmTmCSHajf4w8w6we+E59rP72GOPTfPmzUvd3d3VK+s1mTx5cmb0VU29OyzNbqYRZCKEEL2nOTPvPFNmEmDUNQJmHzOBSGeD2BL7qRlAA8f+mDaYNz//+c+re6g+l19+edpss82ymZYmGT7tyzZ2ccE5lp1ztYz2yMSJE9Mee+zh+5fl8aI9kZknWoXMPNEKZOYJIdqNvjbzWDa7atNNN+26+OKLU2dnZ/VqujZnnXVWesELXuB/PD/QpO9gIUQLaNzMY6lsYjlmoyZBBPPvhS98YacNYswKE/3PBiNHjpzNkkvMm2Zhlh4z+apfQq+sZCnaCds312PUNmq0Rzinjz766Oq5r2XxbYrMvMHPC0wnmI4w1dqP7zCdZXph9qn1yMwTrUBmnhCi3ehLM283u9ZecsABB6QnnniidDZeGczS22GHHTrXWWedRyyvF1eyFEKI3tCYmbc5S2u33nrr7p4Yec55551XzVuzuwYAXnaQ6i27rMXcuXPTpptuiiF7n+WltzW1F7xsJls221M4t3fbbbcuLlQsry2yXEU7ITNvcMM5davpe6Z6Jh2mH2Yef/zaioAWIzNv4GEfX2maZhpFwCBEZp4Qot3oKzNvA7s+vt3ugzp4RFGzRp5zww03pA022ID6/cq0XpazEEL0mAbMPGb82I9sdl1vCbO7tNy2/9jflM286i1//OMfq8fHWl8lY9EWbGPn1Iq99tqrupd6zj333JPWW289ltzy3D3RXsjM6z2/MXk/5nWFiRlxRf2L8fJB0ySTx59s+rzp1aavmGrtF9JfZTrf1Mz+49EW15g2zD61Dpl5rYXjhj6Nx1OZvmDieUky84QQovX0lZn3ZdOq888/v+GltWXwoox11lmHOvIscn0XCyF6QX0zjyWV2TO4WgGzu6pmATcpwM1Ntcw1xI3S50xc8IpegBnLM+96M6sywptR11577RWWtc/Oi/twuqnWrC62Ecfjk7YRdjT90sSNbdkx4XEazXOo8H3OqQkTJlT3UO/gLVyWJ3pZlvtz9++WpjLYv9ycenzS9sZ84oUe3zX9yVRrNhMmDcdGs8sSe5puIJCZ1xoYJ6aa5pv+kwCDsKtN9PFJptjHbGOGHPGj2cc4xJLZJ031DDdMP86LZmfZcT5R19+aWvnAbJl5rYXjgrHEjwH22xQT46UbdRwv3zHxvKWh8vBzmXn9w69N/lzbMt1sYqYPfygf7t8R55hqmeucm8R5jUnfp0OPvjDzmJW3+J3vfGdasWJF9Wq553A/tvXWW3fZvRSTZYbTSifeAPxZ02Om95uKrkP+w/QvE9c+25kG6znKi05+auIPuZuaNNaIPqK+mccMrMyEaxU8d2/kyJHzKtlnvMrEjZKbMFz0nmGiDsPNmGk1GzETslVmLPBCDMsXxbfb+j4k/CACSuBGhjjEJU0jcGPETRBpysy8GGdYHTPrrLPObGa8tgrOdbvAYB/F2ZfsK0wLwt9JQAlx/zJjqTf4za/vd5l5lb7VBUHv4LjCuOO4cjMP3DiL4R6GKVNmxGHkkF+Zmce5w/dd3iRsFIxAzr1Y194iM6+1vMHEfvb9W2TmAeEHm4bKOSwzr//gD1vMHnZT74smP4c/YOow+XfvHqZ2Ocao979NjGHvMfWXkb2DiZnU/r35JRP9hZnwbZObfRilG5nE0KEvzLwDTCv+8Y9/9HpWnnP66aen9ddfn5VqfC/UO1/fZmKCS2/GWiY7+DiBTjHVy+84E3VsJk0ZmHTfNN1iYhz7b1M7mnmUT90eMPl4S10Yc/kDADM06y2Pxsj7ielx03iTzDzRh9Q388bzHK3q2NMSeJOq5Yv2ykqoDGRc9EYThhsubrK5MGnU9BHP5UOmzIBrFfxFiTxNPIfPYR+yNNONlyLDjTBmWDHrkv1Nmmbg+CjLG/yYGU5m3jam7u9///vVvdMadt11Vy50+QLyL5/8/i0yv/L7t9YMvmbAICwrczghM681cJwWmXkeTj9jWNPPGGlFs/XysMy27Hj3PN5l6sm+wyzkgrKnZmARMvP6FsbLIjNvqCEzr3+JM/SimQfMEnaDapypXQyqt5v8OPmdaR1Tf8B4zjWL95ebeU6cvUe9WnEM01bG+/5qoyimL8y8H5o6Fi5cWL1K7j1XXXUVZh71PNRU7/uYWbcYStuaal0HYJ5jRJUdg9ubHjJxTTLDVCs/8vK4d5rqld0oGJPLTWVm3kBC/9xg4g+w7zN5P2LwHWtiRiHjayPmHGn+aeL+RWae6EPqmHm8cYdlla2ElzBUy+GvdFBk5gGfiVdrppeoDRd4iYe1tpJRo0bx152/ZyVUYB/yVx+fUVm0zwhjOwNbX5h5QJzhZOZlz0P8+9//Xt0zrYFzfsSIEQ9b3v7lk9+/RbPz8vtXZl5r4YKKvtcFQe8oM/M4xuPMvPznnkBZLLHgfCia2ccSXl6KwX693YQpmH/TrdeDc6BVz86Tmde3sM/qmXk8wuQXJo7FF5m4ceL7mpuId5v4Qxy/c2x838S+Jw2zGhgLrjWRzonbSINZ0arjpQyZef1LLTMPI8ln3XCTPsbUDt8VAzUzr56Zx/nCjbmfL+819aZutHOiif0iM29g6Qsz78LRo0evWrZsWfUquffMmjUrPe95z/NzudYxs7vpURPHatnSVIeZdFwzl43JnBcXmDhWOTdq5UdeGFvE+71pfVMraFczj3OY2Xh8b2PqFY2frEi7zNSoOXe2ie94mXmiD6k/My994hOfqA49rWHixInVMtb6RFZC5cKXkyeaMAw43LwQD5OAk8yfncVMPW58orHDDRA3XcRnW5zNx0Ux29DpJgwHKAsfSpxpymbTtRJetmD5MnPLYR9i9rDciP7MG2rsJ7Zz8+pmD2kc3xfky0/2Z54iMy+mI/+/moaTmcc51Ku3FBfBOU++Jv/yifuXi/JG9q+beewjZut5nsSL+xDy529coutmHnXgi9HjeP6USZ7EccMvjhe10hGeT8dbRGulc6izLz0u2t5qZOa1Bo69vJnnYfQxz6ejj315LMdyT98oyzGEEVeUB2Vi9PmMO45H6pCfgVcrj54iM69vYZ/VMvMwEpjZzviBKcd+/ZaJZzNyDGLE7WTiOGBpFTdTjGf+zEZexsI+9JdpEH6pydOQ/xOmvOHXamTm9S+D0cwbKBhfa5l5+e3MtnmxqSewpBfDkrwoR2bewNIXZt74PfbYo2XPHgfyev7zn089WXpaawzlPo4/9LFkk+N0Y1MRmH5zTCeb6pl5nzL5LLOi/LgWZqnr0SaekT4czDye5UdbTzXVWkbLUuNGx1eZeaIfqGPm8Wy7PpyZx00+cOHLRW80CLiBJw432gwq/uwsbpq5aCEtaUhLXNIySCE3E9iGSMONGdsw7IhbFj7UYFDvq5l5XAg59KebNPQj+yoaqvzOzUh+/wD7j33BzSywb9n3+f3BZ9KSB2DyxnLK0g1l+CtRX83M42bQv3yK9m803OL+5YuL/Yu5RToe/M8+BuJxA+ufgd/Zr2NN+fTA9vhCHI4Tz5P888/VI46H1UrHc3Py6TysKF00WfyFBl5nLrTcbKN/+uJLW2Zea2B/uXHHDRh9itjv3zO5sevLWzFEejrDieOszIjzbb6kFzg/8jPzqC+mH/Xr6QzBPDLz+hb2bb2ZeexX3mbL+OOGG8cc+4aZeX4MuDHnxh14/hjPpCWf/DLuc02MtX35kH+Zef1Lb5bZYjjxkgz/Hil7VhzxMJo9rztMrzXxncp3IN+f8blbzGjjWsyPBQ/jWI1LbFE01Diu55q8Pix1pT4/M1F2jBvNMuKW1T3C+VXLzIO41BYDdGtTPFd4vqUvMyQOSw3zzyN8vSm2w8U+4KaqJ3UXvaMvzLx/jBkzpqOPZuYxmaRsDOX+l5cojDbxBxuO16LZdBhjcaYpKnq+HecFZt4bTZwfZfn5DD++VzDeopnH8lGeB+fjwALTZ0zRxCYO5w8z3ViueriJ+rFcme+3aOa5uef15jzj3OS6ZxMT51tc5ko6/qDlsxV/ZIpGI6bmjSY/t39s4lys9T1IP1NXvjP3NjU6S9eX5XpZd5leZ/L+LDPzSMfLT/LpuO+538R4Qb/uYyIvjEbvI39mH31CXxCfn/QxZi79MZxeqiLqmXl2Q38bs7BayR//+MdqGc95Zh430LVm8DCwEI/4Dr9zosQwLixIz0/C3bQDPmPclYUPNbKZW7fccku191tD9Y3E+Wfm+f6iT7nxZH85GD2Es52bF9+PiN/ZVxE3jHz/QDTzPF0sw/MeTmYeb67r5jmUrYS/QFq+LNnyL5/8/s0bcnH/5s24iG/3tJ5XXLbLNva9m4V8dsMNPI9omhW9yCKfDohXLx1GXa10ReXTP5h7tV4O0lv8Is3LFD3D9189c4xjsy9n5gHHGsf/h03xeItQX5l5gwv2eyPPzMNwY6zpjZnHMcF2v27KK+bVamTm9S9FZh7jwydNfgxgvnHjH/e5G2ccj8wo8c/8oSLORvNw8jnExB8xYpluiDGL1G9C3bjDTPSb+7hkNRp6eUMtbqMuXJP795zPlIt1x2wrq3se+qWemRfrzI3znibvN7YxEyrfPo8Xb/Zph78kgHLc1MBUwHyIdffZUNkNl+gT+sLMO3v99ddv6TLb2267LW2wwQbUs9Yz8zDVMNTYjulVa5ZcMzPzMKX5vinKD2PrHyaOc+JEMw8DiRl7fG9htJEfz/Pj3HBzDjDe+OMB5x8zD/mjEuMG1zKMLdHMw9jCsMRg5LrfXxzBeeJlxBdnnGfyPqF/aAN5cd4xwYH977PryNtNUPr6D6Yio4u+e8SEqV+2xDaPp+E+m/4mHX1DWRiZ1KfIzOPlGLNN+XT0IS8zIh2P4KAP3MwD2vaMyc28Y0z8oYDy/tfEH13+z8Qf9zYz9dX3vmg76i+zPRPjZtGiRdXhp/ccffTRzPpZYnn7CcWFKV929UwYvznnxHbcuCsS8YGbMi4SMCN89heUhQ8lGJTTmWeeWe393oMxSJ4mn1kJ7EM3exD7iX1KOP2M2QP5bdF4jRSFc3z4/i9LR5x6x9GQYuTIkU/whuhWwbluFy18YTK138nvX76c2IcYdvn9G7c5HIfMdDvexDnn5yb7Lx83j5/3zZpyPU1Xz8yDfDr6Jz97r9XIzGsNfozWM8fYp71d3tpIHnz3+HPz4sxApxX1yMPFn18gitbDPutPM2+CqS9n4JUhM69/icZaXoxn3CRHkwkY7/wtuG5o8X3sb3p1s4p4bn65kQZFZlyRcRfjNWrmuTHn320fM3FdyU0sZiXnhdcp1p3nfcW6FxHbU1Q2lJl5sQzvi7L2QZGZF8v3sJgvs5XK6i56R1+YeZgzK1lZ1tXVmndCnnXWWWndddelnmUvluB4YYz3GaMcUxhT/JGRWVz546dZMw+zvig/TEPGGsw7nzWXN/OolxuAXm5+hp+nzc8Q9HAMOMw76hNnxeYNQw/HzPJ0nE/ghpqXgXnG+BFn15GO+tWacecmYKNvnqWOvNyCfojmIPssPneP+6Zo5jWSjtm8mJQY/9HMcxMwLgPOG3xiWFLfzMsesN+qmT88I2CTTTbhy/OPWe4VuDDlAK5nwvjNOYOR42YAedSDiwQueNx4cMrChwT2ZXFHK99IfMIJJ2DGcuESlwrQ/272gJtt7DPkphvb2Ye+zzyeb3cwiNgnMZzjw/d/WTri1DuOhhrnvfCFL+xs1Vu2zjvvPPoVce47RfuXC9Ki/Zs389jOucU2304YkI6ZSXHJbh7ist+bNeV6mq4RM4/j02dUAWMI/aGZee2PH4P1zDxgv9Pv9d5Ey/IGjok8lNXorDqWa/HMNI69uKyXcw8zLx/eG2Tm9S3ss/6emRe3O+THGNtXY4bMvP4lPzOPfe8z6RA3xX6T67hh5nHycpMrxov59JeZFw1EJ2/25ZXPL8LY24yZl19m67MPf2A60oRB4PUgr9jPRWYeJgM347Xqnt9XojX0hZn3IrvvWXzsscemVatWVa+We8drXvOaTu7PLO+yJZGYXvwRPI6vmDwca0Wz85o18zhH8/mxne8V35438yIYUweaLjFxrsSZeVDP5PsfE8vYi4xJN8GaNfPcBIvGXYxTZnh5nEZn5tXK0w1FjDhmLUYzzw25onRxNh4THxox8zzMZwKKYUl9M4+ltvetv/763a147hqz8ixLxEnpcGHaUzOvyPQBwnn2EHnH5bNeFtuKwvP5DAV4gGlLZueFWXnRjAX6L5o9/GRfsWyalwnkw+lr0vj+y+979oPHcYjj+78sHZ/rHUdDDS54u1vxopq5c+emTTfdtINz3vKMX2ZF+5cvqKL9Szj7DjMvb9b5djfz2I9s988O6fxc7Kkp19N0jZh5tIPn5PljATgW3djrK/ymIO4X0Tx+DDZisHF8+lJbXi5QBIZJ/jl3EY4n9l3eEKQep5nicUZ5zNyI9fI6tHLWp8y8voXxsr/MPNKyrIZj7GsmN3xJx6yLWuX3Fpl5/UvRMlsMKY4ZwlD+jbFuiLGtyOxzyky3/jLzeGZevm757c0cZ4yv9cy8+My8IjOR+xSWCnKOcj3hbc4bcfXMvGbrLnpHX5h5wDVgZytm54VZeZhPReckx29cHpoXplN+Rh/HXLNmHjPCMNS4DsdU4zvIZ+VBkZmHiccz3DCfXm7iPC0y7bw+ZWYe33+MDUVGYU/NPNrDM+xoIy/2oL3klZ+tlyc/o67etRZ1ict5I/4iDQw2+pJ2uJnXSDqW2mLiyswTDdKAmWe8kplY+++/f3UY6hnhxResd4+4McMXJideGQyknGj5JbGEk54vVGA7D+vlghexrM+XhHpZ3HwVhQ9FMw9D9nqWS/Mm4Z7CrMrtt98eo4cbCwa+CP1Hf9LfDhc/7O/Yp2xnH9LXpAGPx0/gGPCLJ4cw3lRLWi+D/U4634fsd+pA3r7/hwvZW4svv/zy6t7qGSzX5Vy3vPhyjvj+9dl24Pstzkajz1luyj7AwGPfczEbZ7Bx0cC+Yyo5YJQRn4sI8PPXxwK2s9+9bML5cnTDjc9/McU40FfpwA0/xhwuTBB9RNy+gn6kv+tdZIjacHwx042+ZMZFvf5kv2KmcYzGZ9uxr5mRx6zTmAcPZmZfufnm6fNmHOmZtfdVUzyuOH/iclrCOGfqGY/NIDOvb2H85HuSY6Zs+Sv7HxOO/e1xuIDHfOBNg37TwbhIXhh3vs/IHzPP31brJiDHdFTRbL1W4iaNjIr+ocjMgxjOTX5806IbYkXbIjFeNL6KzLiBMPPyM+fqwflVy8zjGtaXvObrDN7GomW2btg5bKtl5jVbd9E7+srMe+nIkSNnjx07tlePnpo8eXLacMMNOS55AUKtWXm8kC1v+IA/o84NLKcnZh747LxvmJioEbflzTxfAsv30f+z9y/wdpz1fe+/L7rZlmQDthDENhxs2Q5xHBGojk4ShJJXHIS5OacNCGpiNVyO0hOICYQoAWNKE5SaUjUhHAHJvwKcRsC/RAfSRgFjFCckqoHUBlLEzThAW8dgW7aMrdvemvP7zp7f9qPHM2vNuu15Zq/P+/X6vWavWTPPzJqZtbTWV8/MeABXFdp1C/MUyunfPC07fi39hnmi6XS6rL536f2nm0voGv3h+7uMetTpPd4tGNM1DvXdTzfg0HaJ96FCOQ/iqnrmdZuPnnnoQb0wT/ThkO3atav4OOqNPvguuOCCmSIICk/P9EAmrDhQ04ePfjj78/qC7EGQ6Hn1stN4Pa/QwQM/hQu6U5A+GHxe77FXNn6xeqpCmkFura7Ta60dlYdnLt6HHsJpG2v7av+Ihz9haV7Rtvf9p2G4jHj/K2hR2xof7z+1p3G+/8fFCvuS8bU1a9bM9nu6bXB6rcKF0CD7VwGs7yO9LxXwqb0wGNT8CkR8Hm9TpX8Efbz2sX606sdvOC68aY6ODd1hdlTzecinzx8FLJrGn/N5RnWqrf/o4AdB/xTU+nb00j7tdi06/fD7t1ba5z6fjh+Fe/H+iMM8KQvpdHzry7r+HfJ2/T3i9B5T8Kgvzt2+iPaCMG80tE+9l5wfJyoP3ZxCCn0XCqeJSz+4dAx5GKFSKKCgLwzuNE697/QDSdde1LL1ORQGgqPi4QZh3sKoCvP0+eTXwNNzCqD8e7aOSb9mnp7TcaXnNF4/4vXvlY6TsA1N4z8MmwzztI5hIKdpyta9TDxvvOzwNcS98sKgr98wr2zd1U6ddcdgRhXmiUKT4zrd9vjx48W35/r0+2vTpk2z9n1dPbB+2Krq+5z+g143NCg7Rjwk07Gp3meu3zBPx7vftTnuJReHeWEQ5++nQcI8/bvoN40I29TvgH7CPD3W6wvnq8vb0r+pCsnKtr3WQUGePod07TsFhmHgJuFNL+IbYPg18/Tvfzyfejr6tGGw59MQ5qFC/TAvv7OtDTKdztfL/0qot5BCBs1rpTcCmpGfbrtu3bqZXu5uq1Mvt2zZUhwXjzm9FunQ/zzl77Veeujpvaz3tOYt3uNV/1OIRyk4Dv9DwelLfdxTa1j8h9oo2sZo6Qu0euEpyO5l/ykE1Je7YV0rzxHmYRgI8xaOerLrlE//d8BDOad/ezycUoXhVRhEhRW34QGXwmD92Nd/ioZBoLcZB1u6BEG4blXLjgO78Ll9VuG6uKp192CvirZXGHBqeh2n+izW5Q18W+maeHE7Chm9V124TC9d6+s5Vv5jXyGAT6/lKKTRMnRpBQ/5wvJgD6MxyjBP9O/4zJVXXpl9+9vfzk6dOlV8m+5Md6/9kR/5kZnJyUmtW9XptaLndOfWp1qVfV/QMeyn4Cpky3+8Gw/PdHxpnHqQxce2TiFVcPeLVuHyFZ7pPREHb1oXHcNfsNJpvXpvhMvQ+0x3otW8CtT0vtD3Fa23Qreyu+V6mx7eKUzUqbEKxnSqr+ZXwKf/yAyvp+fz6S6u/m+OMgWtj/d00zRaps660WtSmKb/2NLniP4jvtv3Lw/09Bno20/zKITT3Wd11pC/Fi1bx5p6Af6oldbz56y+ZKVTerU89b7Uf+TqsW9Xn+8vrcL5dHkjn07ThDe20H7zu/yqV/4uKwW52oZqS3fpHdXxjuT1EOYZHdQ6RbZWYBCGBNPT0zr4FDagWVuK3pHZjh078v8l6kS9tXRzBU1vpf8pIuhJ28bivVYrdI+Cdr23O305xhyFeB+28lMjQ3pO17sYBf9h0UsYhHSEgV7ZsRPStLomo8L1Yd3BNkSYh2HwkIUwb7TCHnlxhT30FMb59zWVh3L6N0P/Lumux/p3ROP1YzDsLeoUQuk7oqbTcvUfCh58hSGd3yDCfkTkPUjVS9mnU6l3ns6yiYM4byPslefPxT3knNbdew5peWUBXCi8Fl5Z6TuSprnMqurfU/2I1uvR8nSXYH0Oe087BRthzyb5F1Z+kwxtN18/9ZjpZd0xuFGHefod9HarEytXrpx53/vel508ebL4Vv1Y+p11/fXX59fIs99fCqwU8pb9+xuGdH6sxuFa2IvOp9Fx5aGXem3pPadjVHdnDo9RD+x8PvVA8+vuKcRSQKeAyB8rJAuXo1Jgp7NwFKppuf/SSj3D/95KZxh4SBgvS4GXesvF4xXC6b1UtiwvBVZ6T8Xz6TISCu58nJZxuZWCQQX58Wem1jfs1VfliVb6vRt+PilYjANQ0XbS8nyf6ZRe9ZbT55t6zIWvKew9p2nK5gv31+9Y+XZWkKhLrdxhpc/QC6y0LcPPV4WDa6z4jTB2egvz3HwgdPnll88oFNLpt7om3r59+7Ibbrghu/rqqzNdo03TWBECpWU+lFVQp+ukaZ8p2NE+1I0ydErt0572tPxDYnJyUh+KBLHtofdafg09vQf1XtT+3bt3b75/dWdqvWf13tU0xXuZHrP1+XUAw2udiYI8/a9dt6CmX/6lgH+o20tf1vWDWz07O+1Hnd6t03pHdSzpvV/2YwLoBWHe4hf3wuNzA6kbdZjnNtjvI/XCmrXfSydf+9rXZu94xzuyW265Jf899a/+1b/KXv7yl2fnnHOO98ZTT1jCltHSbxmdBlv2b5KCPP3nRNl1CIEW6y/MEwVC+lGiJLyY59Gampr6tg13WymdRpr0obdnenpa/1P0mH1opdMedGouQWw76b23q3gvlu1fdePXe5j/Je6dfuDklx0oStdP05cEhTWjMswwz6/55+u/GKvOtfDG1ajCPH3mVP17slhKx9Uo7xDbJoR5ix9hHtpmocI80e8j/eecTuv0XlbzVfTE0zVvf9aK985oqZfcX1vFd/l1ev7ZVuwHLDL9h3mxzUHpPH+0i0438P1HL7zFR13zw/coAW370DMPw0LPPAwDYd7i59fR034mzEMbLGSYF9Mpo/49W9dODE+bxGipg4pukKEzz37Eyre9rnf3XCvdIZZ/q7AIDS/MAwCMDmEehoUwD8NAmLe4lV2rT6cKdrvmFNCkJsM8NEs3ivh/rcJekrpW8Yut+NzCIkWYBwBtQJiHYSHMwzAQ5gFIDWEegDFCmAcAbUCYh2EhzMMwEOYBSA1hHoAxQpgHAG1AmIdhIczDMBDmAUgNYR6AMUKYBwBtQJiHYSHMwzAQ5gFIDWEegDFCmAcAbUCYh2EhzMMwEOYBSA1hHoAxQpgHAG1AmIdhIczDMBDmAUgNYR6AMUKYBwBtQJiHYSHMwzAQ5gFIDWEegDFCmAcAbeBhHkVRFEVRFFVdhHkAxgBhHgC0AT3zMCz0zMMwjEPPvONWy+b+RAsds9Ixujx/hHFAzzwAY4QwDwDagDAPQEoI85A6wrzxQ5gHYIwQ5gFAGxDmAUgJYR5SR5g3fgjzAIwRwjwAaAPCPAApIcxD6gjzxg9hHoAxQpgHAG1AmAcgJYR5SB1h3vghzAMwRgjzAKANCPMApIQwD6kjzBs/hHkAxghhHgC0AWEegJQQ5iF1hHnjhzAPwBgZPMxbYbXZ6m1BbbN6qhXa4TKr7Va+/3ZYaZ9icdB7catV+B7dYqX3LtqDMA9ASgjzkDrCvPFDmAdgjPQf5m202jc1NaUvOsU8p9f09PQ3bHidFdKjIGfnkiVLvmvDqv13xIZ7rRT2oX2uW7Zs2d/bsHT/FrXPSu9lpI8wD0BKCPOQOsK88UOYB2CM9B7m5SGQVbZ69erZ6667Ltu/f392++23Z3L48OHswIED2a5du7KNGzfmbU1NTd1mQwKhdGwsgtZsy5Yt2e7du/N9dvTo0XwfHjx4MNu3b1+2ffv2bPny5aeKwFa99dAOlxXvufw9qPei9u/dd9+d799Dhw7l71m9d/Ue1nRWek/TUy9thHkAUkKY91jnWP2i1X+0f4fvsKF/bv9Xqw9bvdwq/7KNBdFPmLfB6t9afca+Kz9gQ/3n9vdt+JdWv2X1dCv+HU7XQod5T7R6tdV/suPkqzb09/xfWX3A6p9anWUFACPQW5inEOjrNsxDIA8HOtmzZ0+2atWqGQKhJMwHsWvWrJlVoNONgp8olOX06bTt0HtN7zm997rRe1jvZZtPX1b13l6ft4IUEeYBSAlh3ul+3f79zYOE8847b/Y5z3lOdu2112Zbt27Nfvqnf1rfu2b0XPF9+M1W01YYrV7CvA32Pei/2zD/t3bTpk3Z5s2bsze96U3Zz/zMz2Tr16/PJicn8+9LVp+0usCKf4/Ts1Bhnn5Tvd0q/xy84IIL8vf8a17zmuznf/7n8/f82WefPaNjxt7zOtPpNVZLrABgiOqHeWvtH7nvqSdPnZAgFAYGVgR6zdltlW3bti3vQdmLnTt3ZsuWLZu1f5C+aG3QgytNulZl7aA9pPe03tt6j1sbT8pbQ2oI8wCkhDBvzqX23ehvbHjq537u57IvfOEL2alTp4p/XU936623Zj/5kz+Zh0I2z+dsnsut+EwfnTphnr7T/murk/oe9O53vzu79957iz12un/8x3/M3vzmN2dLlizxS9G8yopQNi0LEeYp+NVlbE5dc8012Ze+9KVsdna2OEpO94lPfCK7/PLLdZaT1ulTVhda8Z4HMCT1wzxdWys/BbNfmzZtUhikL0accrvwdEOLPMjrlwIftWGlGyggLQrbH9ywYUP5t4kadKq8AltrS9dJRHoI8wCkhDBvYuIl9r32YfWG/6M/+qPKH/SxG2+8MTvzzDP9MiYvsJrKW8OwdQvzzvFQRkHsd77zncogNnTbbbflAU3RU+9DVov5PdA2ow7zFOAeV+/bj3/849nMzExxVFTTZYyuv/76bOnSpQqBH7L5da1q3vMAhqBemJf3+NmxY0fxsdSfu+66y3t36XRNLJwV9o/Hd3Rqba898mLq9VV8+eR0zITYF8pP6r31la98pdhT/bnhhhuK939+91ukhTAPQErGPcx7on23uu+SSy459d3vfrdWCBT66le/mv3wD//wjLVxj7XFKZuj0S3Me7/VzPvf//5aoUxIAc2v/MqvKJxR+7pmGj300jDKMO8S+w30oE7BVi/NXt/zCoHPP/98XXrqa9aWrq8JAAPqHuYpCDpy6aWXnvIbJAxCN1uwNlXb89axEPLr5NW5Rl43On2zuAYigWw6rrbKT4UelN7jV1xxhQJ3/bhYqIsHox7CPAApGeswz/6dvGXZsmUzn/vc53r+Ue/+63/9r3lvHWvuI1ZcT2v4OoV5P2d14tWvfnV28uTJYo/0Rt+ZnvWsZ+kSJQ9aW0+x4t/n5o0szLP3/K3Lly+f0fXE+33Pf/SjH9XNBbV+uskKPToBDKh7mJcHBcMIgty6det0EeADeesTEx+0KpZ5Wul/LV5vtdJK1lnpf9A+beXj+qHlDdpGqyxZsuS76lE3LAqNrFmV3wyj7j7sZlj7Ztz28b4LL7xwtt8vFjHd+dbaVOm9H/P34b1WPp0eP8PqeqthbnPdBUz7cVX+CJ3CPO2X/A7GRf2h1SVW6mGpU7jk16y8DdULrZpUtj78EALaY5zDPF3MfuYtb3lLzz26YroGW9G76xorTr0brqowT6fX/g99d3rwwQeLPdGfO+64I1u5cqUuUaKbYnS7viJGb1Rh3husTvze7/1e3+Gv041xive8LoFU9p6/2OqvrXRcabr/YKW7KP8zqx+y6ue7kr6f/4KVTiv3dr9h9etWz7J6ixXhItA63cO8Pbog7DB65Tmdyjc1d6qmdzFWEKBwQCGM6APnBiutg8bpgvzvtNI0vYY0z7YKpx+3oEenw+bXuxsWnS6tNq3C3pXd9mEdg+ybcD+P0z5eYe+lY9u3by/2zuD0Xrf3vAL3PXOLmKdgSPv4XVbhtvXxd1o9WSMGEO5HwrzTVYV5eu9930rHvW+rq6w0TtOHoZ3+J9jbaTrMk3h9CPOA9ug3zLvYfkl+yOpBmzlT2d8H7IPgpfb3lA1/x+pi+zuFz4PSMG/JkiXf+tEf/dGZI0eOFP9y9k//5j796U/3U+962pa2nf7EajbYjp+x4dpw25VMc5MN29QLcP3JiYn7ff3ttby1h/WvCvPeaHXyk5/8ZO3rHHbyr//1v85vivHv7Di2L0/z27pT2et4uQ05NXf4RhHm6Sy1e3R67bFjx4q93j+donv++eefnJyc1A0x4mPzx6z+p5VuyvI4jTAK8f6X1bes/jerXj8bL7JSOKjvhT9v5cedvm+/1upuq89YPcGK72FAq3QJ8+zLxZd0a/Zh2rdvX7GM/H8kRGGdgoAw9NEHjH7IKyTQj1XpNaRRu+o1VHf6xSi/3qFubjBMOtXW2g3Dnrr7cBTGeT8rrD01zLBW9J63dm+38n/U1bvLvnuetn9D2r+6M98gYR7v1860/bVfwi9a2lY3W+k99uMaEfCQLwztwt5wwwzznm+l/7Xu9UtgvD58iQTao9cwT92X/sDe8HnYYX//G/t7TfHcWnv8IT1nw2/Z8BKbJoXPg7IwTz+2T/zhH/7hUIIg+f3f/33vqaNe1j29bttWr7A6qW1abNeysE6B2DdtupfZc23s/XeVfek8oddnr2HgMM9+29z8oz/6oyePHz9e7IHB6HrUxamTv211ma3rt209TxXrG4Z2K20/vNvGzUTjMTyjCPM2WR378Ic/PHBPXPemN71J15HX50v+4zugMyv0vU7BWuh5Voeseg3z1lr9dyv9RquaV23vtyLMA1qnS5hnXy6ObN26tfjoGQ7dEbdYjoImKQuCRI81nZ8m1muY1+v0i5HuPJtf626YolOlpe4+HIVx3s9DPw1e9J63L7u6Boz+Ue8UGIXUE1PHQb/oideZfffP30vhFy1t729aaXxZOKdtOuowz9dBPR16/RJImAe0V09hnr3R91rlQZ4Nt9rwMaGSppmdC51SDvN0WtpM3Tuf1qGbYRTXztN/ivQa8Cgk/SvbZnl4VGzf620YtrPSxqnH4xMT2a69mu+dZ69h0DBPZwUde+Mb3zjw6ZKhn/qpn9L1hu+wth9v++NWW08/1h8T2tm4/2il9wBh3vCNIsy70erk/fffX+ztwX3qU5/yAPilVuFxoDBPp7/GwZu+i/+B1YVWvbyHX2elz7HftOr0Wf1bVtyIB2id7j3zjm/btq346BkO9RIrltMpzNOHln7Ya7qqME+n9+m0BG8v7NWjUwF9vErzqaeKpvE29L8Vmk4XHtbfek7TqodRWSih25Er0Og0TWrym18MehfbmG6SYO12C/Pifdhpf8XXRKy7b+L9rP3zYavwOOllP7dtH2ub5te5Gya95ycnJ/UlWP+oew8vbdM6QVun/azn1Ja2sa6xpwBQOu1HX2a4H7Vf3melabWf4h6B2o9+mmnZ821k3/3z1xN+0dJ28DBP2+xlVuHzet+FQfqww7zwWn2EecB46SXMe/7MxMSMTayeY7fYm/6JxfjYWptOwdQ6mzaFz4OyMO8PdRH8YfXqEp1qu2zZMm3L37fqJ8z7oNVu2275NlbZ32EvPMK8R6ln5fF3v/vdQ+tlJa94xSsUyOo/QZ9QEeb9mB3bv1L8fdUjExO/UPyN4RpFmPfh884778QjjzxS7O3Bfe1rX8vOOOMMreebrMLj2cM3+4Ge/4d9eIz8U6v4mnnx9fW+YPW/W+m9r+/N6pWn78P/RzEOwKLSvWfed4Z58wRRL6JiOVu0DKMfpHEQpP+d1DRhKBOGeT6PphMFDvox649Ff4fTh9fd0wecPw5v1KAfp2G7To81Xs9rOr8enCpc79TounaZ7rw0TOeee659r5rYmy9hTrd9GG/XcH8NY9/4MuJrK6rqtqW/27aPdap6tnfv3mLPDIfe85OTk/9gbesLg8Ig+z5aaxtoXypc8u3qQaAe6zkFP+rd59tXbfqXEt+PunFDuB8V5nXaj+HyxPej2tE0b7XS+vt+bOMPGfHXEK+/et/5cyqFl3rtZcrCvHj+MOTT9o1vrOHhqk478cA0rHCf6Zp4Yaga9+wM10dBpMJan/7fWXUKj9W+Al3NH64XgIVRN8xT2PTX9kb10w7Va6zyR6U9f9o18+zvV9j8d/r89vfn7e9n+PNG1+C7w58vptGppuGP4Itngmn0vP1dFSiGysK8m3XjhBMnThT/Yg7Hk5/8ZH2v0r9RdYMql4d59nrWWYW9H++1oa6ZoW1dFeZp291u4+e3bTCPrLftdtr16p4wMXGpjcvnsXq5bZwX2OP8FNhimldbO79r9YAe2/C9Nlxi46+xvw8X4/7Yhvm1/Yrx6o3px4f274/ruWIdZJhhXn4X20984hNDO01adDMUXTfP2q4K866ylfnNknXXKcTHNW1Rr7H54+231NrRdsq3gQ3/2B4/yf7WNtKx/d/sse/D8Lkfs+12n8arbPxb7YuYTgPOp7f65zZe66bj4002b75/4lKbf//o+yBfno0rW97zbHnzr8XG/1/2/HtsmJ8Gbn+/z4bx54WO398Ppvm6/f1q+1vbSc/9pT3Ot2XxvE7D/2FbaW23Y8W4z9i4J9vfWodRhHkHNmzYMNTrx6utM888U+v5O1bhNtF3G/XA0+eBng/DuZiC6f9h9YtW2l4K9v7cyjZNHvzpO5ee7/daewCS1/0GGPmdMovPnqHYtWtXsYyJy/IlzP3I149v/UhX+fNhjx7RlxwPaWIap+fiH/Xx9HEbVdOonLcdjvN1Dnu9pEiBaX6dwmFRLz+1aaVef67uPnS+TcP91c++kXi6uB3p1pbG6/mw7TbsY50ucko3lRmmCy64QF8i9lnpH/5ewryYtqtO0dX21/b0ME/02Hvmie8jD2XKTruNpxFNp3XTuvry/LFoOQr8htETrUnaB3pPxV/GfLv6e87L72gbKgvztM20DbUvwu3qQazeA+rZWNZDU9fK8/bCnnm+H3xeDwz9sQvXx0PIur31fH00nULeTqeAAxi+umGeAqH5kMDe3KWn2JaxaX/Dfqh/z+fRY6uZ4gf9JWfa55+1/V17fIs9r/8I1DVAPmuPP2SPPczLlx9MEz/upCzMu+m88847Oewwr7gjqv7t6jvMe4J9Ntvf86fc2jAP9C618fZ3HOblQZ1N/y0b90x7kdp239G8VmGvvvnr1dm0/4/V/9Q0emxDBWvTNtR+8TAmD+Ns46s3ps/3cRv3nDD4s8cvt/pNe+4eG+bLs2Hejo3T/r3Uxs2v6xDDPP1H1PEPfehDQ+2Z99rXvtave/iYME8BqK2/AlAF2Y9Zdxv/Jivffl+w4TOL7ZcHYzbuEzbcbNtvfpxN/8/Ptu1s7d5nzyvMepK9EbWd/LGHW88L2tlt9T/sufn99xz7HmnP5+vr8ykos3bml2NDfy+pd+G9Pp2WFz7W8my43cr3e/5a7LH2q+/3sD31xP07m069dZ9spe1wwh7fZ8Ofsek8iFZgmPc6tWE4//PsQ2iHPQ636SjCvL+45JJLZoYZ5ukmGEXPvDjMc37TC3vJ+evxO9qG37P+i9WHrMLjW59pfo28X7bSZ5jOpIqvwQdgUege5g29Z9emTZtmJycnvzrXfM5Dk25hgZ7XD0l9gDl9aKmXzq9a6cegfuy7qgAnHFc1Tbwu8Xy+zuHyUrRiyZIlDw3zVGndbMHaVW3MlzCn7j7stL/63TfxdHE7UqeteL5W7OOpqanb9D+Gxe4ZmN7r9v7U/vW7FXtoEm/3Tqr2s9pS8KSQV72+Qr6PBgnzJJ5P+9F77/k0beRf6Mpeg47Z8M6wXnHIVRbmvdJKpz+H7ao9hXGazkM6344+r8ZVhXke3ulLpsZVBXRl46vaLOOvmZ55wMIbdZinkCrv0WdD72l3lf2dhx42/mVn2uebt22PX1W0u/ak/Ztgj9Xzbr4NK7+OXD7O6vv2WL3QOn3GlIV5+twZ6mm2+mFfnGarO1h6UFHXfJhXvBYFJHkoZ48VqCgY+3Grd1h5mKd58tDPhvM3zLDHHpaGd8XNQ7+iLYUsL7D6TauTVup1pm0e3qDCx8UBnF7X/Dhr60arv7HnFCKpp57WoawdGWaY9xSrY7oD7TCvmfeiF71IYd63re3TwrywOqz7fO+84nVrW833qgvmmx9ny3inb7/gee3XW62+b+M8DAvn0f57of29w4baf3kgaMtW6BsuR8fQP9hjHR/eK2+ljctfl9UNxXT5uGh5873zbJwHb2XjdLzlIZ2Vt6d1VTioY/ZZNs73fz5e82t9bJi/J20aBYebgulkFGHe+5YvXz7U02xvu+22bMWKFVrP11jptZfRdzG/26y91PzUW/32yverlXrd7bCKP4P1HfseK4V5g9wFF0Dyuod5T7XKT7sbhuDmF2W9urqFBXHYoh/nOi1Lj1V6zkMD8R/+Pr2UtVE2TbwuCiH0w1g/eiW/VplV6j3zZK/9I3TqrrvuKvZC//S/UpdffvnM1NSU/pEI1dmH3fZXv/smni5uR+q01dZ9nN/kZFjXzVPwq/astE/FQxzt3ydrRBfxfvaeeSFtWwWEms75PvJQpt8wz8NHnbYpWpa+BHl41VZ6Ddovnb6MXWUV99ILt1ccnml7alvFvdp8G4bthOUhW1nwFoZ+HuZpnNarW7hY1SaA9Iy8Z579cM/vfmvD3TbPNhvOn25rwzycs+GfaBqN03T2d3j67GnLjsvbKKYtUxbmvcTq5M033zy0G2B8/OMf91M0r7SqtW0CcZgn8wGcyp7/vNX/o21TTDP/fLgN7G8P8xT6/LSN17qE05bdKVf6CfP+2Cq/zp8N32vz/wsbhqfb+jwyzDBvwrb1N1/0ohedGmbvynPPPddeQv5v3uPsdTymZ549qfD0LRXr3k+Y93WrI/q7rCrmURAWv1/z3nbRPGVh3vx0ZWXTeiDXLczz6eaXEYyrZNPkwZ+tT95rz7bpk+3v37b54tczijDvGqvj+g07rFOzdc3GIsD/Yavwe07ZjSjC02f/o5WOZ92BVsd32Y0t/Lp7/9JKnWf0/Z0wD1iUuod5kt9EQT2yBqEg6KKLLjpZBEHhqQ11giAJQxoFLPphqB+donF6LgwN/Id/HOCE46qmiddFz+s0ND+FNAx9UneZbmSyefPmYk/0T6dzWnsqv3mJ67YP6+yvfvdNPF3cjtRpS8+1cR+v0P8GX3DBBTOD/q9hcD3LMGwXbT+ND/dXTNtON7UIAxtt0/A02/C0Wg99PCz1fTRomFe2Hz3YazP7/pq/nvDLmLahrgkYf0FTqOdhXLg/wvDsb4qhKt6mYZjngVyZsuCt7rxCmAe0V90w70n2o/u7NqH/6Fd41EtgpTDpi9bGp23eN1v56XZhT7s89NN4+1uneT7H/tZnx3yYF0zfi7Iwb4V9p3roNa95zdBO07zmmmsU5unmCavnFtGTsjBP1IsxD9hU9ndpb7twu9jfeZhXjPdTbcNpw4At1FeYZ0MFOGr/dnusUy3fYuU9L8NlDTXMM+9etmzZCfWIHIZPfvKTHsy8wmq1vZbTwjwb6nWEN8CIDRTmddkmZe2E5nvcaZ/Y8Em28Pw0W3scnu4ahn6dwre6YZ7W6zG97To4bfonTEy8+JHym4iMIszTfxA88oY3vCEbVgCss9Tsu7u+p8brqTMNXmwVv67w9FkFc+ut1DPvj63i41thnnrz6aYXf2Rlmy6/hl7cZki/655p1ctnM4DG1QvzFBZ8ffXq1bN333138THUux07dFmDvP04INGPP/3gjMOWkMZ/zEofYvoBqwAgbEtDtaEf9fofDNEPf59ep5LpgzBsQzR9+FjL0XrE6+Ihgv4nxEvrXbW+qVE37Gz37t3F3uid7kJsX1bs39CJ/XmLp+u2D7vtr3j/Si/7xqfTqZ1+rS6fT+q01eZ9nN8IY/v27cXe6p2uhbhmzZqZ4hT4si9B6kWnfRifIqu/NU77WGXf1U7bzwp2tP2fbaVTbv05D328x5zvR/X+C/dj2BtQwV04TvtG02m/eRjV9vdqFW1Xbf/wx5qO509ZlfWY9O1bFeYp4NR+8cdhcObzany8D0LdwrxO8wphHtBedcM8vaHnb8xgXyLim1NUsnm8p5jfAff59reHPaeFc/b4xfbcF22o3kT5NfVsxZ4xU4R5asOG4X8k11EW5slNVrPD6J1366236i6otmp93clWqsK8+e1XvP7aYZ5NW9UzLwzYQn2FeTZe4ayukZdf880mCNsJlzXsMG+D1XHdgXbQcEYdFZ7+9KeftN9J37M2z7bKT3W19YzDPPVEu7b4W9v6l638FNGBwjzffvZ32b+X3cI8ecwNMOzvv7ThM6083JkP84rl+TX5Yv2EeXq//rD93enfe23X/GYYNtR1AXUdxvC6im4UYd6EfTf+hAJg/RYatHfeTTfd5OFvfCdbUZin72bx546+w+oaefp+q+vf+WMdd/GdavWdXN+NNZ2fjqtTbX/UKpzO6XuyfifXfV8BSEa9ME/Wq3fXxo0bs34CveA6a+EdUEUfWP6cl/fUcfrA0oeXP68fiB4g6LECAv2AVFv62wMbjdMPWZWChLANjQtv1KDH6s2itn2c/i5ry5/3+eL1TZLtv9t0uq16X/VK11Fbt26dTq/V/xzHX4br7sOq/aV9OYx948+F05S1XdVW2/fxbqts586dxV6rT+9p9dzU/FbhtRBj2nYKc8NtE4Z78X5WiOT7WX+r554/r3lfZeW0/T0ECkv7RzdG0BcTH6d5Ffr46Zw+nYIjb6dsP3pw2Eb2vTV/HeEXVx232gbaxvEXWt8Ovl0kDs98ft8+cY9K33bqYaewVOOvs9L7QcsrC97iefX+8xtxaPna576ug4Z5fs083fm203QAhq92mGfme+fZUD/gq65Vpx/surbbGvs7v7mF/a15/O6zp4V5509M/JA99uvjiQIT3RAjX4b9ktUNIebvpGt/+2m46o2k64a9xMaX/bh1VWHeE6enp//nBRdcMHvkyJHiX9LeKQh62tOeNmNt6YyV8+aa7lllmCc2Pj8N2aYJwzzNk18zzyoM88qmHVWYd4vV/7Ln8lM5bdxam2Chwjx5t9XMoHe1De5iq155Wt+qMC+kO8IqmPIwqp8w7/+1+ttgObrr7Vo7iPJgzkrHdlU7MQV1n7Tny8IxN9+DT23ZsnVn2rLl1Q3z5sM5jbe/816Bas/+/m37+6XFvKGydmIjCfPMU/Qb6FnPetZAd7VVb1D9x7m19WVrUzexiynMs5eZ3/DCT7fV96rftfpHq//TyreLQjgd47rBxY9YadrnWqltv7aeeKCn73m6861CZ1G76pH3TqtuPSMBJKl+mCf6EZetWrVqpu4ptwoJrrzySvtczts9aFX2wdUG+gGqH8cxhRvhdb9Sdpl6WNowvy6aemLVoXBIPfJs3iM2r+6Ou1i1fR+vsNJ7LNMNMeretEbvZb2nNZ+V3uNt120/Vn1RTZ19d833Ubj+YRgX3r1W4aoCtTjADG+SUdaTTsGb93BUYOfThuXBnoTzaryWr9N+q+YN25ey9dH/Dvu4TqfphssOg0gAC6OXME8UYHjPuXtt6DesEAUCr7DxOkX2lcV4hUinXe/Onv+65i/+vtH+/mc2/BurD9nfeUhnf+vmFrq23iU2nT4/5m+aEZaNq7r+W6gqzJMXWZ0c5HTbX/mVX8nsR72tRv6Z2SlU7CQP2+z1vtoaKm3DnvsTe72ftuc9oJM8OLPxeXBnL7Lr3WxtfOk2s/Hq0RefHjs/ny1j/pTak4+Ged+2afN96WXj4v37PPtb6xGHfN32m+sU5umso2+ed955M/fcc0+xR3qjmxgUPaw+auXvAx3n86/NXodCNn9Ox/k1Nk53EZ7vTWfD+bvZ2tBf33zAZ9P6te5OC/Ns2l+yyrdLWMH0Et7NNhzv/CYWn7PnLrOq+jdX5sO0sIp28/eJrc/83Wxt6IFbVQjXtb1IHgBahTfciI0qzBN9vzz+9re/ve8enS94wQtmly5dqs+VMGwL+TXz9HtLl0Oxl5u/ni9YXW4V7x8FdZ+1iqeL29bnoweCtvnyab9hpRC67vsJQHJ6C/NkY3EaXn5TjKqL7utmC7t27dKt9k/a9PrHVKd5tpV+NH7ESv+DEdNzuhhyWyjwya+BuGbNmlkFOVU9Lfft25eHQprWSr2xej09pU0W0z7eofecAlhd47Dqxie6kK/ewza97l6r93SnHnlt4fsxDIxc2/ZjzL98hV/kFOYpPNPrVVgZ3vxC71kP9yTsBeeloE+nJYfjw2DspVb5572VxqsHXLxtFb55qBbeVVbbO1yfeN6y9dFr8ba8OvXOo2ce0JxewzxZaT/er7Y3rYKM+SDHvmgoxNH10tQjb56NVy899RRT+KebBzzN/v6s5rWhgj/11NP18n7Vhl8Kxj/Dpp3/TLDHCgofKJZ178zExPU27rRlVegU5ok+82Z/8Rd/Mbv33nuLf12703+mvvKVr/QgTz2r+/oxba9h/uYfxWsLe9SFFCL9jpXfAMMpCLzDxnvw9HkbqtekBwHzvfK8bNo40JsP2lTWhk7RfZkN1atyfh/b379m4/5HOM6rmEf75CL7Wz0Gtc+/YM9tPtP2pR0z8TrUDfQ6hXmyyer4xRdfPPNXf/VXPfXQe+c735mdeeaZs7YPdZrjhVYK5f6jVX5ac7ey1xeeWjwfaBXb4uU2nL8jscr+foONO22b2mP1ZtONQzwg1bxvtfL9PB/+hfPYMHzPntbjLppWp7PmPf6s8uPGpsvDSH9eywuef0w4Z9PorrunhfI2TxjoaR3/my/fpn2f/V11yrCWr9OBP2XDqtN8Rxnm6SwnXdpkVtfP66VXrnrkPf/5z1fHCK3b71j18rkJABV6D/NkPhDy0um3Ok1PFfTyUamn0GVWbab/MdVr0UX1w7BHP1bVNbksAErdRu+lp9L/TPr+091qfbz9o6XTauObXSxGi20f6z2X99JT6T3p+1fvVR9flN7Lek8vBt4jTHf4LduPcRDVJnpd2l+lX3ABYIH1E+a1TbcwT2eb6ALzs/Y9avbP/uzPugZCulnC2rVrT9o82nY3Wp1lhdHoFubJz9l3XZ2CeOqNb3xj9tBDDxV7qtxXv/rV7Cd/8icV4qld/YeVrkPW9n+X696pNgXPe6T8xhdupGGeUQ+3j1vNKATWNS+7ved1jbzHP/7x3rlFl5shyAMwJP2FeU4BwNVWug6eztcPS6frtT3EC6nXi677VWyf/Jpuukh/G4O8kO6GpOAj3n+6/tpiPqW2zGLcx0+12m4V71+9Z3Ujirae9t7JYn2vEuYBSAlh3qMUCP1PG576J//kn8y+613vyj7zmc/kZ694/e7v/m52xRVX6CZT6g2vf5d+yorP89GqE+aJvgupl+XMueeeO/PqV786+9jHPnba/vvwhz+cvfzlL89Wr17tocxbrFIJuAah60yqZ5yunRi/HvWa+/bsxMRNf1/vfTAKP2XrcK+tQ366sq3nv7byU+jLjDrMc9fYe15nEpy68sorsz/4gz/IbrnlltOOmTe/+c3ZJZdcouNF66Pg9wqrslNrAaBPg4V5AICFQZgHICWEeadTIHS9/cC/3Yb+eR3XHVa6xMCZVhi9umGe+zmrP56cnPRA6LSyfatTanVadNm1y9oq75U3O3fK7mmnt9rja6xOWPmNLBacLVvXE8yv7WjD51m91talU4i6UGGeqJfejdPT04dsaKv22GPG6q+s/m+rxRD8AkgOYR4AtIF/USTMA5ACwrxqT7F6jtX/ZaXe8T9tpWuc8vm9sHoN80K6np7OPtLlV37GSmeyLMr9Z18udB2822wYXn9R18tTwPfj9rjJ3mTqOfh3WreywLHEQoZ5IV2jWO/511n9Cyu95/XDmvc8gBEizAOANrDvsPnnM18MAaSAMA+pGyTMQzs1FeYBQAMI8wCgDQjzAKSEMA+pI8wbP4R5AMYIYR4AtAFhHoCUEOYhdYR544cwD8AYIcwDgDYgzAOQEsI8pI4wb/wQ5gEYI4R5ANAGhHkAUkKYh9QR5o0fwjwAY4QwDwDagDAPQEoI85A6wrzxQ5gHYIwQ5gFAG+Rh3qlTp7LJyclaw6mpqWx2dpbhmA6np6ezmZkZhiXDkydPZkuWLBnb4YkTJ7KlS5cOPNRnEkVRVIJFmAdgDBDmAUAbeM+8WkGehnUCH4aLd1g32BrHYZ3AazEP6wR13Yb+eURRFJVgEeYBGAOEeQDQBpxmCyAlnGYLIDWcZgtgjBDmAUAbEOYBSAlhHoDUEOYBGCOEeQDQBoR5AFJCmAcgNYR5AMYIYR4AtAFhHoCUEOYBSA1hHoAxQpgHAG1AmAcgJYR5AFJDmAdgjAwe5q2w2mz1tqC2WT3VCu1wmdV2K99/O6y0T7E46L241Sp8j26x0nsX7UGYByAlhHkAUkOYB2CM9B/mbbTaNzU1pS86xTyn1/T09DdseJ0V0nOO1a4lS5Z814ZV+++IDfdaKexD+1y3bNmyv7dh6f4tap+Vgj2kjzAPQEoI8wCkhjAPwBjpPcxTb56dVtnq1atnr7vuumz//v3Z7bffnsnhw4ezAwcOZLt27crWr1+ftzU1NXWbDQmE0rHZ9sk9Nsy2bNmS7d69O99nR48ezffhwYMHs3379mXbt2/Pli9ffqoIbNVbD+1wWfGey9+Dei9q/9599935/j106FD+ntV7V+9hTWel9zQ99dJGmAcgJYR5AFJDmAdgjPQW5ikk+KIN8xDIw4FOdu7cGQZC9NJr1nwQu2bNmlkFOt0o+NmwYYMHPges1lohXdfpvab3nN573eg9rPeyzZdNTk5+1Ybr81aQIsI8ACkhzAOQmqbCvEusnmP1Oqt/YfXTVvphzXc2ACNUP8w7Z2pq6p66IUFIgdDGjRuLdvNrs6EZeZC3bdu2vAdlXeqxt2PHjnz/FT2+kCZdqzJ/r+k914s9e/Zkq1atmtF73Np4Ut4aUkOYByAlhHkAUrOQYd4TrW6cnp7Wf4b7d7S4/srq/7ZaYgUAQ1Y/zNO10/LT8/q1adOm2aKHHjfHWHi6xmEe5PVLgY/asOKU2/SstS8TD15xxRWzfrp0r3R6tbWj0nsd6SHMA5ASwjwAqVmoMO8a+959rw1PXXnlldkf/MEfZLfcckt+WRuvN7/5zdnTn/50nZ2mzhCft2mvsJrSzAAwHPXCvLzHzyBBkNx1113ZsmXLFOjdOtcsFsgK3YxEp9b20iOvjE7JLAJZroGYkMnJyU/qveXXruyX98C00t1vkRbCPAApIcwDkJpRh3nqjfdxq5l169aduvXWW7PZ2dniW3S5m266KXvCE56gs1/0eXK91WL+zASwoLqHeQqCjjzlKU851W+Pn5ButmBtqhQQYmG8zWqgXpVO11grTsckkE3H1VbZDTfcUOyl/uk9fskll/jptlw8OC2EeQBSQpgHIDUjDfPs+/GnbDD7hje8ITty5Ejx7bm7f/zHf8xe9KIXZfabWuv2O1YEegCGoHuYlwcFwwiC3Lp162asTd1MAQtgyZIl31WPumHRNROtWRWnS6dh34UXXjj7yCOPFHtoMHqvW5sqvfeRDsI8ACkhzAOQmlGGea+yOv72t789O3HiRPGtuTcvfvGLs6VLl+pzRZc/4pRbAAPqHubtWb16dd/X4SqjHkRFV+Nz5hbxGLoA/zutVuaP0rXO6v1Wn7aqWtc604yS7k6aX+9uWHS6tNq08puZfNDKx5WVrinxDKtR0jo0tY2btMLeS8e2b99e7J3B6b1u73kF7nvmFnEaP561T33/7rfS+E50F+R3WX3EapVGoGeEeQBSMqwwb+XsxMRfW91pH3KXWIMpfcYR5gHtMqow7yn2ffvBDRs25N+T+6UeemvWrNEZMF+2Nqt+Bw+Dfg+91upuq39qNW0FYNHpEubZh82XNm/eXHwEDce+ffuKZUxs1jJKvMBqIQKgQXjgqPWsCpHqTDNq+fUOB72WWkyn2lq7YdijfaXXqVAtpJDnc1aEeaOhsPbUMMNa0Xve2r3dKvxR9QYrjb/Byrezhnqs8Xo+9GwrPa8K3weEef0hzAOQkrIw7/n25WDGRmbdyj7QrreheqYQ5gEYlpGEeZOTk59Yvnz5Sf2e6naNvG50Db1ly5ZpHd9kVXWXW313Vhj3363s4zF/TfajPZ+nWwioed9hddBK8xLmAYtWlzBP18vbunVr8fEzHMFdM8uum6cPIP3g1/NxMJSiOiFSk0FTfr08XetumEpOlVZweadV2T5TOJtyMNtmQz8NXvSe1/9AWtv+o0r7UGFSHNg5D/pemD+aOx7Ugy885jUNYV7/CPMApKQ0zDs5MbHHPqx0kXh5kv2S/G4U1Cm8+wN7/GZ7nPppZoR5QLuMIszT59kjuk5ev6fXxjZt2jS7dOnSb1i7Zev5Y1b/00p3wL3cyr/3XWz111bft/o/rOLPT50F88+sPCB8ntUxK8I8YNHq3jPv+KB3sY3pfzWK5ZSFeQp9dDqeQiGFQwoFUpZ6mLfTKhv0LraxK664Qv/T0y3M0+t95dyfGBHddTa/Bf4w6T0/OTmpLwD5Dy+rm620f59sVUb7/5tWHtb5MR8Gd4R5gyHMA5CSsjDv2Tbyp2ykf06VhXmydsa+A9pjwjwAwzSKMO8aq+PqjDJorzz37ne/23vn/bBV+L1OgZx6491i9QSNiOg7+X+x0nfu/80qnPd1Vvqu7Z/JhHnAote9Z953hnnzBAkusL9Fy4goyFOg56dtVvUEUoih51W6zbdO9ZOq8aILl2q8lh2e+unX89I4vyZYOI2fKurjwoDRQ4u47bJp9AGs0t+aTlU23scNg65rlx06dKjY+sNx7rnnnrR29+ZLmFMW5nkwG/L9o9epobabC6+rpnm1HeNtUbadfZ+F04Zt6e9wn4b7Rjrtu9TpVPVs7969xZ4ZDr3nJycn/8Ha1pcE7Qv9L2C4b2Pa7gr8tB3/xkrb0kv7RQGeh3navuH+iAPCeH/8uJXEx8dtVt72OCDMA5CSOtfMqwrz2oIwD2iXUYR571u+fPmJYd1oTm677bZsxYoVWs/XWIWn2v6hlX5jdQrgPKT7j1bLNcKoN9//sNphRZgHjI3uN8DI75RZfPYMxa5du4plTFyWL+FRYfjj4VYY0DiFAfqRr+n1nAI7BQ1V40VBgv7WeG9b4ZOCIE33NSsFCK+30vPelkq9yzRO02qeMGBUm5rvqvzRo9OE661pwscaapymC4MjrbfWxacbBgWm+XUKh0W9/NSmlXr9Ob0OvR5/zsu3v2i7aXtqG0neq8zK94tfV03TaHvq+XAbaX491vyaXtsqXJZv47At7Vffp2X7r1Ob4bqnStfNOKWbygzTBRdcoC8S+6z0w8tPse22PfS8tptOtdV21f6Ie+bF+0P/sxjvD7Wj+TSN9wi8xCo8Pp5vpeND81f1FlxsCPMApGQoYZ6N/9/t+ZusPm1/63Q29drbYY8ftMdbra61vx+weTMb7i6mWW/TfNH+PmXjbrHn9J89Ts/doeeKeW4q5ukHYR7QLqMI8/7ikksumRnmzSB1I4wzzjhD6/k7Vv4Z6qfXfssq7nUX0uedeu/p+7Gm+wWr/2VlH3X5a1f9ptWLrDzM03dmn+b3rcLPNS33s1b2cZnP+x+sFApo+WdZqf2/t/o/rfSbWO38nhWfjUDjuod5Q+/ZpesETE5OfnWu+dPoh7yCA6e/tR7hOAlDO9FjhTCdxisU0NDFbWvZ+lAMp1GoEIdwehyGGvE0ojYVOvh6lE2j5ZQFSz7PsKxYsmTJQ8M8VVo3W7B2VbqtuvPXE24bvRYPZ/35eF9q+nBble0HKdv2YZtl21htxeM0nbfRrc1WmJqaum3Dhg1DC9z1Xrf3p/av361Y20L/+IfbqYye13ydwrxwnLa/3peaT18YtO0/ZRWGc75svxafHx/jEuCF/EsaYR6AFAwjzFt/0v4NsOcftLrFprnIhn9g9WX7W0HdTTbPes1nj3/DasbGKdB7iY2bsuErNM5KN9NQz5OrbKUUCj6jWJaCvcNq2x6HgV9dhHlAu4wizDug79nDDPPU1plnnqn1DMM870mnyxiVnWLrPMwLr53XqWeewjl9j9ZnpE7F1eea99bTNH9m9SNWYTufsdI66CYcf2tlH6MTv231LKt/Y6Xv6+da8Z0UaFT3MO+pVvlpd8MQ3Pwi7NUlHqL482GVhQgKfxTc6XQ97+klZeMVCJS1q1I4IB4ShCGSlhuGQWXhTzyNaB0UUHkgVDaNaLwvU8/922I4bHuXL19+6q677ir2Qv/0j8/ll1+uW6rfU7TtfP+F20avxVvp/fwAAJYYSURBVK+Z5/vAt4mLx3vgU7Yd4u3oy9Q8Zdu4rC1NF65jpzbbIr/JybCum6fgV+1Z+XtBx7O+MGg7heFcSNvPT7PVabG+7TuFefIBK+0DfRnQMWC/webfm2G90UrK2hgXvm344gQgBcM6zdbvZus98+Qqe3zSHm+1efy6enkwZ+PeYuP8lDH14lP7H3rmxMTZaseef2kwjz44/8TGf9/G6TbtvX5+EuYB7TKKMO/D55133lBPs/3a177mPfPCO9rWDfP0nVvXzbOPv/lQru5ptuF0OrtH7fy8lT8v+g2t33keFKqdo1bq7dfp8x7Aguse5kl+EwX1yBqEgqCLLrroZBEExf9Dqh/yZQGKfuiHPbdifg027wHmwvFqOw7qYlp2PE0c9Giox53CIKkb5oXTqcLrxw3TZbqRyebNm4s90T+dzmntqeKbl3gIFm6bkF6f5vNt4uJt5WFNvK3Ep9W+FQ29zbJtXNaWpgvXsVObbbFienr62xdccMHMoF80gutZhmG7tp+f7lrVI077P7wBRlnoVjYuDvM6LUPK2hgX9ps03zeEeQBSMLRr5tlze22agcK8sycmnqnn7bmsrGy+l9lwPuSriTAPaJdRhHk3Wp28//77i2/Lg/vUpz6VLV++XOv5Uiv/PKsb5vXaM68qzFMvO/1tH4/5NotLd8bVfD5P2A6AJNQL8xQWfH316tWzd999d/Ex1LsdO3YUbc8HJ05hgf4XoCxs87BFP+KdptPps86DJIVhZeN1I4wwMHJq2wM0ta9pw3WIAyIN9TgMg+JpxEMJb6tsGqfn1JPwfVbhsodNH9rZ7t27i73RO92FeNmyZfadeWJ/3uLpfFuH2ybk+zF+Pt5WHtaUbSuN0/7Vddd0HIUhXNk2LmtL04Xr0KnNNslvhLF9+/Zib/VO10Jcs2bNTHEKfPwlSPtJ/9iH78OQxmvb+c0qfNv3EubpGNEXEz+l1sXv07iNceFftgjzAKQgxTDvm/b8c6qW0wfCPKBdRhHmbbI69uEPfzibmZkpvjUP5k1vepN+U+nzJf/xXYivhVf1OVY2Xb9h3pesdNmkTv/RQZgHJKtemCfr1btr48aNWT+BXnCdtfAOqE4/0FVlFLbox7uCAr/JhIIfBWAeunhQpB/8ZeMVRCgwCNvQKbi6oL6HSOrBpw9FzSNa7ses1J5P4+ui8oCorF2148GhtxMGViFfxzBgGgldW02n26r3Va90HbV169bp9NoHram4V6X46wi3TUz7WMeA72vfnuG+13bQtgpPnXaaTtPrHycvLVfrU7aNva1O+6+qzarXkLLdVtnOnTuLvVaf3tPquan5rcJrIYZ8/+m94ttHQz3Wvg9DUE2rba9edn4DGQV3Pk40Tj3+tP09nNM0aks3uJD4fept6IYY3ZS1L74uem/HvQDrrKP00saw2G/UfPsT5gFIQZI98+x5v35e6Cr71fwLQVt15WGetf8Oq+9Z2y+M2tDy77Dnyq7J9+yTtj723I1aH5tX1/fTa5pfvzrj4sd15ysbFz/uMN81xbi3FvOd9rhsmhHMd8IfB9P4uPy0xHhc/HjU85WNix+3dD6dhlM6rnh83B8H03QcFz+uO1/ZuPhxOM0Zc59JqmGGeerUcs+mTZuyY8eOFd+c+6ebX/zQD/3QicnJSV13zu9G60Z9N9s4zIvncZpXv2U1H2EekKz6YZ5cZ5WtWrVqpu4ptwoJrrzySvsuk7d70Ern5zv9INaP5GKZ+d8a5/QDXj+K/XmVAhqNV2879ebTOP34V5BXNV7UrnpgaZye049wD4zUprev0jzhcjWPwrpwnP7W8tSu7s4ZtuvBXvz6fJ6Ylu/h3yhdph6WNsyvi6aeWHUoHFKPPJv3iM2ru+PG4u2nqno92ra+rTT0ACjeVnrOg1XngaHPX1baxtqvcVtV+6+qTT1eiH0yTCus9B7LdKHeujet0XtZ72nNZ6X3eCfaXuqZGW6r8PqUTtOpl522o/5HM94fCut0Wq6P0/5Q+FX2PlVwp/EK1cI2vBdgFZ9Hyw6DNR/vy3Qa3ynM67eNYbHvqflrJ8wDkIKkwrzgmnm6ccaNNlxTTKP5brbH66qW30HXMM/Gf8dKN++IXx9h3mDzedAUTlMVPuXj4sejnq9sXPy4pfPFIdn8uOLxUAO4XsfFj8NpRhTmif6T+sTv/d7vZSdPniy+Qffn2muvzew3ldZRZ9XE/8Gg4KzTHW31PVPXudN36PD5fsI8v2aefgPo5haPs1J7mubjVrpuvj8mzAOS1FuYJxuL0/Dym2JUXXRfN1vYtWtXtnLlypM2vT5I9KGBx9KH8qhufFFGgU9+DcQ1a9bMKsip6mm5b9++PBTStFYKcMp65C0kBYFxwCcK6uJrJtY1ijabtkPvOQWwusZh1Y1PdDMavYdtet29Vu/pqh55SIN9T83fi/EXOwBoQp0wLw/g7IvEvfYBVnX6q98AQ4FfPo0N8zvXWr3eHvuP3atOTkw8YNPpDrf+g1LtK8zznnHPt79P2t/x9fLmg6oecZot0C6jOM02NzU1devy5ctn9J/lp06dKr5N9+ajH/2oXytPv/2qPjs90Pu81eVW/rl5sdVfW+k/usPx4oHbH1vpB/21Vm+10uf0v7TKQ0+jgE9tazr16vPAT+sUVnizC107L+4J2Inmvdvq56zCz119Rv+V1S1W8Z1wf9JK669QMfzMXai2brVSW+dZxW191ypsS+38L6vnWvXaju5eHG5D5SNVbf2lldrSf0zFbX3Hqqotdbyp29ZPWMVtKbR92OrNVhoXP0ZSeg/zZD4Q8tLptzpNTxX08lGpp9BlViinnmnee3AhbfReeqrzzjtvxvef7lbr44vTauObXTRBgdtHrMpCTz33krk/ezKKNlOh91zeS0+l96TvX71XfXxRei/rPY202e/RfH+F/wgDQFM6hXl5QGcfWqdsgvlQTaGbjfPed5KHfeE0cSm8s3nebDUTjPuWPb6uZJx6x11tf3/R/lYPPYWIYSDYK8I8oF1GFuaZS/S7SKfb6lTZXgO92267TafX6kaQuk53eKZaGf02+V2rf7Syj7H8NX3D6tetqub9LSt9Ln/BSv9Jbx+B+XwqBXGaV59pPs5vtKEg6W+sNP19VmH4p7NvdNpvOE8cnsU6hWZ/b6VQyXv9uX4COLX1Gau4B2M/bX3ZqqqtXsK8bu30EubpeoZq62lWcVu9hnlVbRHmtV5/YZ5TAHC1la6Dpzd3WDpdjxCvnE7fLLZzfjpe2am3C2W91dus4v2n66+VnVLbFN9mOgUzDN8Uuumaav30bBxFm6nRP5bbreL9q/esguRuXyaQDv8yF/4jDABNqdMzr+0I84B2GWWYJ+qAcfy8886b/fjHP17rhhhHjx7Nrr/++mzp0qXqJKFLFnW74QQA1DRYmIf+KCzSNb/UTVp/ox6d+qptVhyj+R1odb3CQUK3UbQJjAJhHoCUEOYBSM2owzzZMD09rV5hp6655prsS1/6UjY7O1tEd6f7xCc+kT396U+fmZyc1DrphhcXWvE9DsCQEOYBQBsQ5gFICWEegNQsRJgnOjvt7Vb55+D5558/85znPCd7zWtek/38z/989tM//dPZ2WefnYd4RW+811j5qasAMCSEeQDQBoR5AFJCmAcgNQsV5jldA/TVVv/J6r9b+XXqdHOGD1jpemNnWQHACBDmAUAbEOYBSAlhHoDULHSYBwANIswDgDYgzAOQEsI8AKkhzAMwRgjzAKANCPMApIQwD0BqCPMAjBHCPABoA8I8ACkhzAOQGsI8AGOEMA8A2oAwD0BKCPMApIYwD8AYIcwDgDYgzAOQEsI8AKkhzAMwRgjzAKANCPMApIQwD0BqCPMAjJHOYR5FURSVWJ06dSqbnJzsOpydnc2mpqYYjulwZmYmm56eZlgyXLJkSXby5MmxHS5dujQ7ceLEQMOyzyaKoqhEijAPwBigZx4AtAE98wCkhJ55AFJDzzwAY4QwDwDagDAPQEoI8wCkhjAPwBghzAOANiDMA5ASwjwAqSHMAzBGCPMAoA0I8wCkhDAPQGoI8wCMEcI8AGgDwjwAKSHMA5AawjwAY4QwDwDagDAPQEoI8wCkhjAPwBghzAOANiDMA5ASwjwAqSHMAzBGCPMAoA0I8wCkhDAPQGoI8wCMEcI8AGgDwjwAKSHMA5AawjwAY4QwDwDagDAPQEoI8wCkhjAPwBghzAOANiDMA5ASwjwAqSHMAzBGCPMAoA0I8wCkhDAPQGoI8wCMEcI8AGgDwjwAKSHMA5AawjwAY4QwDwDagDAPQEoI8wCkhjAPwBghzAOANiDMA5ASwjwAqSHMAzBGCPMAoA0I8wCkhDAPQGoI8wCMEcI8AGgDwjwAKSHMQy/Wzk5MfMAOmLVW/DvW2dqTtq3sH/0nsa16RpgHYIwQ5gFAGxDmAUjJY8I8+5DaazVrI7O4Zicm7rX6b/b8W+zx06za8FlGmDc8V9kB81rb79PFY1S76ujctlpSPEZ9hHkAxkh/Yd5Kq9dbfc2qmH7iXqv3Wz3DSl5ppekWygetfF1Ub7ACgMWCMA9ASqp65l08OzHxXas77UPrGTaBf2apt9F7FPYp2LPhVntuqniuV2tt/msHmL8uwrwhsX3+bttnmxZgn7Webavft231HLZVXwjzAIyR3sM8hXUK7vT856zWWTn9rXF67tNWCxnmiQK8Yv1PC/OeZKX10nq/QCO66HV6ABg1+26ff7YR5gFIQVWYt3J2YuKvizDvEpsg/sx6vj130upee25zyfNdWbu/YfVbNu+oe3kR5g2HTrH9Hdtf9DTrTkH1b7Ot+kaYB2CM9BbmKdgqnq8M6zROzzUR5oXrF4Z54Xj14Ivp+V6mB4CFRpgHICX9hnmaaYc9N2PT3GR/9xrIrZ+ZmDhs81/fx7y9IswbjqtsQ/6C7S96mnV31SNz24rTkftDmAdgjNQP88IeeRr66bRl9NxHrFIJ8zr1tNNzd1oN0pMPAEaNMA9ASvoO80weyEXTaL4P2eP8mnv2t07Ffb39PR8A2eNX2PgH9LyXjbv+7ImJZ1p7X7S/TxXz3mR/P7GYbRCEeYPTfv2g7Y+qYwGP0rbSjS/YVv0jzAMwRuqHeeE16er0Vlvoa+ZJVZhXJTwtuM70ANAU+36ff1bxBR9ACgYJ89bOzF1XLz/V9gkTE6uKeT5dhHArbZjfTMMqvrZe3DNPN1bQfH59Pg8Kb7HHa/M5+keYN7j1Jycm3mH7gtNGu/sxO245HXkwhHkAxki9MM97rxXP9Rx8qaeeh2Yq/X2VVUht+vOqrVbvCh7r75im8d6CavNVxd8qX8cw4AvHb7LyeTtV/FpH9VoAoBP7rZp/fhDmAUjBIGFePo09f8pq66WPhnkfsun99EIP7SrDvA0TE6uLdl4aTmOP/8TGf9/G9XVNvgBh3oBsX+j6hi+J9iFK2HZ6U7GtOMW2f4R5AMZIvTAvPMVWFQdcnXiYpjBQPeFUHgzGp7CGgZdCMk0bBmPh9GXthiFbuI5hoDeM8cN+LQDQjX3Hzz87CPMApGBoPfOiaVaenJi42ub9jFUe9tnzpWFecXrtYXt+/rTbsGyal9lwkBCJMG8wOhbebftgrRX/dnWm455tNTjCPABjZLRhnt8MQ/OEp+b6KbsKwtTrz5WFXWXBWlW7ZdPKMMaP6rUAQB32uzT/7OBLPoAUDP2aeTbcYeM+YMP11ugzitCuW5j3Tfv7ORXLGRRh3mC0r3bYvqGnWXc/Zm8obStOsR0MYR6AMTLa02zDEDCcx4MuPadpXN0ArKrdqrBsGONH9VoAoA77vZp/dhDmAUhB32Gejc+vh2fT+N1sfZ6eTrP1nnn6O5jPDeMOqoR5A7D9+W7bN5sG3AdjwbbV79u2UijNthoMYR6AMVIvzAt7panCnmmdVIVXZUGX1A3Aqtod5fiqafW3j9c0rmx8VRsA0I19z88/OwjzAKSg3zDv+fbcSatvBc9fpXH2OAzuuoZ5wTXzTtnwRhuuCaa52R6vK1l+Lwjz+rf25MTE79v257TR7rStfo9tNRSEeQDGSL0wT8IgKj6ltMpC9MxbqNNs6ZkHoEn2uzT/7OCLPoAUVIV5F8/OXQ9PYZ7fYVYUVOg02getPm/PhafG5gGdjb/Jxututuvs7w/Z37qb7fVWV1qdNzfpo9M+c2LibBvmvfysrfh6eWW99XpVO8yz9XiH1fdsuS+05Ybho64PeIc9V3Z33WefnHstN4br2qktG397RVs/Zcu5P2zL5n+FlULSfFvEj8umKcZdU4x7azHfaY/LponHnWHrbgfIb/pzIVvH37G6x6Z7kT0fb6v89dlzT7Lnwn/vfsq2lb+++VNRh9GWPa/1PmGl15K33e+4+HGd+VbZtjo2t63y50JdXt9/6/D67rPn3hm2aY9/u0ZbT+7Q1lJ7Xut93OoGb7vOuPhx3fmqxnVAmAdgjNQP88SvD6fq1DtPN3t4vdWorjMXnvZbFeZVjQ9DtF7Gc808AE2y77H5Z0f4JRsAmvKYMM8+pEqDNa/ZiYkD9vxLrTyYm2fP77DxMzbNvTZ8vX0j/aGZ4iYZ9vhV9vx8+GDj3mHjdJpuHgpa/bz9/UUbqodePn84/QCGEubZ+O9YKSiJeyr2HObZNqlqK6kwz8b9rg1Le0baOlYGVDb+21Wvr48wL2/r2MTEpZ3asnm13j0FcFXj4sc15+trW9nr+we9Pnuu7PX1GubVaYswDwCS0luYp0ArvEvr+60U3Dn9L6Ge/5qV91LzAEthV7c7wIYBmIdd4Ti17Xy894hTu1ofn1bloVsYooVBXNzDT23cYFU1/aheCwB0Y99j88+Ox3zZB4AGVPXMW0w4zRZoF8I8AGOktzDPeXCm0K6YPq/9VldZKfQLadznrHw6/a1xoTDo8npfyTgPxuRVVh7GKRzbaqV1ut4qDhPrtKHXpDY6TT+q1wIAnRDmAUgJYR6A1BDmARgj/YV5AICFRZgHICWEeQBSQ5gHYIwQ5gFAGxDmAUgJYR6A1BDmARgjhHkA0AaEeQBSQpgHIDWEeQDGCGEeALQBYR6AlBDmAUgNYR6AMUKYBwBtQJgHICWEeQBSQ5gHYIwQ5gFAGxDmAUgJYR6A1BDmARgjhHkA0AaEeQBSQpgHIDWEeQDGCGEeALQBYR6AlBDmAUgNYR6AMUKYBwBtQJgHICWEeQBSQ5gHYIwQ5gFAGxDmAUgJYR6A1BDmARgjhHkA0AaEeQBSQpgHIDWEeQDGCGEeALQBYR6AlBDmAUgNYR6AMUKYBwBtkId5p06dyiYnJ2sNp6amstnZWYZjOpyens5mZmYYlgxPnjyZLVmyZGyHJ06cyJYuXTrwUJ9JFEVRFEVRVBN1qxVhHgCkznvm1QryNKwT+DBcvMO6wdY4DusEXot5WCeo6zb0zyOKoiiKoiiqiSLMA4A24DRbACnhNFsAqeE0WwBjhNNsAaANCPMApIQwD0BqCPMAjBHCPABoA8I8ACkhzAOQGsI8AGOEMA8A2oAwD0BKCPMApIYwD8AYIcwDgDYgzAOQEsI8AKkhzAMwRgjzAKANCPMApIQwD0BqCPMAjBHCPABoA8I8ACkhzAOQGsI8AGOEMA8A2oAwD0BKCPMApIYwD8AYIcwDgDYgzAOQEsI8AKkhzAMwRgjzAKANCPMApIQwD0BqCPMAjBHCPABoA8I8ACkhzAOQGsI8AGNksDDvqVabrd5W1Far9VZASs6x0nG6w0rH6bbiMdAmhHkAUkKYByA1hHkAxkjvYd4Kqx1TU1NfsmEx7ek1PT39PRvutlprBTRlqx2nt9qw6jg9YsO9VpdZAakjzAOQEsI8AKkhzAMwRnoL8zZOT09/3YbZ+vXrs127dmUHDhzIbr/99uzuu+/O/96zZ0+2devWbNmyZbNFWKJeUMBCWjs5OflJG2aXXXZZtmPHjvzYPHjwYHb48OH873379mXbtm3LVq1aNTM1NaUv6+q1B6SMMA9ASgjzAKSGMA/AGKkX5qk33k6rbPXq1bMK7Lo5dOhQtmHDhlnNY7Xfil56WAjblixZ8tDy5ctP7dy5szgaqymE3rJlS37MT01N3WZDeukhVYR5AFJCmAcgNYR5AMZIvTAvD/IUeij86IUCFfXSm5qa+qK1oVAQGBVdszHbuHFjHib3QgF10UvvHmtD19gDUkOYByAlbQ3zVs5MTOyYnZh4wD5Ut9oLmCrGlyHMA9qFMA/AGOke5m20yoO8fu3du7doM7/5QOgZVvda+fMvsIq9wcqfV33aaqXVqH3QKlxuWF+zer+V1n8YtKyFel2L1dolS5Z8/4orrpg9evRoceT1RqfhWjuqPXmLp1vI40EW+phYZ6XXEL4f/TVdb3Wx1busPmLFcdoMwjwAKXlMmGcfUnutZm1kprK/r7dhp7BMDeyw6WaieaaLp4dt5ezExLutvmzLOWX1si7rR5gHtAthHoAx0jnMW6Fr5K1Zs2a21x55MV1Hr7g2Wdndbp9tdaeVgoSyQORJVjpVtyzsGyUPGxWshAHGVVafs9I2Utg4KMK8we1VD1Bdv3EQur6etaXakrd6uoU6HmQhjwn1aNTrUlgXLs/Hqz5cDLVOq6yw8Ox3Z36MEeYBSEFVz7yLZycmvmtPZDb8ln1wXWJ/V31urZ2xaW0aTft5G67rMO0g1lrb11rbHtxdZcs9aeMI84DFhTAPwBjpHOapJ13es25QCgPPO+88ncao021jChAUEmiZCvUU3sVusCobP0pantZHwUosXOeFDhlxuqutshtuuKE42vqnXn3r1q3z023j08IX4/GgddU6l70mUYCpoPLJVgoqCfOaY787831FmAcgBVVhnnq/fdzqLvvQUu+3ylNZbbxOd1WId8qGN9njkfTIs/Z/w+q3gvYJ84DFiTAPwBjpEOYtWbLku4OcXhvT3W+L9uObDCgI0al8+TXPrBQYhD2EJLUwT7ynVtn6YuHsVe/Rfk+vjelOt9amKu6dt9iOBw8gtc5a9yr+3iPMa5b97syPS8I8ACnoGObZB9av2vABq1vs7ycWz4XUK++v7LnrrGZGGOatt+UctmWEp+8S5gGLE2EegDFSGebNBRq7d+8uIo7B3XXXXUXbEzusQh7maejXyIsDk7Iw71VWCiI0vXoP6XRdhQ2+HLXl7YXjPMTQ46pgRrqFN2VhSLxOYUgSnrao16vX5NcqUztqLxS35a9fdwb265fpb80fTzMuVujutdu2bSuOssEpFNQpu9b27rlFzOvneJBRHxP9Hg9aD7VVtpwyHubFy1CvvZBek64jqOdVmlbtd1rPuA3Ra/2+VdU08fM/brWY2e/O/LUS5gFIQbcw7yob/o0NS3vn2WNdK++3lk1MvNCmO1kS5ul03Ts0v43303CfY3/7Z+BpN7KwulZ/F9PuVls27hU+zsvGXW+/8l/oYV7ZfEX7QpgHtAthHoAxUhnmvT0f6qYAw3T++eeftHb3aUEB/dD3ME8Ulmj5Cg9cHObpOU2neVQKGRS0+PX3wsDFe/zpx79TWx4yVOkW3oivq05XrFontaNS4KAARc/p9dxs9U6rskBFbWleBTs+fb5PitI8Ckxeb6XnNZ2mD7fZONA1GPO70Q7T5s2btY1vz5fwqF6PB1nIY6LX46HbKbYxtRUv45tW4TL0msJxem0K3LSu/rq6tSF6rPW/xCp+rVpfPa+hegnqeW03TV8WCi4W9pszf/2EeQBS0C3M2zRt/87MlPe6W2vj1GPvOZrG/o7DPO9N9yobpxDwYnv8WXucB4MXT0ystunnb2SheW34Uk1rQ51SO2Plve4qe+Z1mU8I84B2IcwDMEYqw7zt+XDQG1/ENm7cqHbjkEQ/xsMwT0MFGZrWQxH9mFdQIBrqx7s/Fg8mPFTzwES8vTC00HTedhXNr3Y6hR16TstVUNhpnTTegxvRY70mURthcFO2vr4uvs56jXHYo+k7retilF8vb//+/cURNhzFDVsenFvEvF6OB9/nC3VM9HM8+Lp0mibky/DTbLUsvb5O8/s0mlfiNuQDVmpjvreFlbfr4/RaFfq9sPj7U1ZhcKfXYr/B8ucXK70+7S/CPAAp6BrmPcE+6+3vv7b6vj0Oe9VddXJiYo89VrimHnxhmKf5Nc+Hiscuv1mGjb/T2vKbauTz2uMwgIvDu7qn2ZZNR5gHtAthHoAxUhnm/VI+HNZ1yFzR4+mQFhTQj/cwzBMPKlQecmgoHkKUlcICn9cDBD1WaKJeQd4LKl5eGW+nKqzQ/Aom1K7aK1sfla+Hlq31UI9A9Uhyar8siAnHxa/JQ5F4nqp1XazyXpcHDhwojrDh0Gm7k5OTx+YWMa+X40H7uttxKsM6Jvo5HrRsrWunaUK+jDCIq1qGTqNV77tftdLr89db1kYc5onGhdPptXoPPg/uyrbrG60WK3/NhHkAUtA1zLMnJ610Om3YO0+nx84/b4/jMM9DtbcUj+fZuL023fdtvL5MEuYBiBHmARgjlWHer+fDQ4cOFfHGcFx00UU6zfaAFhRQAFEWrnnYoB/1OkVPP+hFP+YVYvjjMmG4oSDwKisPPtRueMptlW7hjYc1Wo5CpW7r5Pw6abp+mKh9X1fnr13Tip8qrGVK+PpcVbCymG22Gsodl0O68cvk5OQ/zC1iXi/Hg/ZLnePUDXpM9HM8+Oupu46+jG5hnqbT69C6qHrtmSd6rTo992X5o7nXar+x8p53er0K9hbzKbVl9Pq1vwnzAKSgVphnj59kj9Wj7l4bl59WG/TKkzjM84AuDNVyNi4+FZYwD0CIMA/AGKkM896TD3Vnz2FRL7+VK1cqzNulBQX0g7+qp5wHJGHg4KGGnguFIZ1Po3b91EUFCWonDAY78bCjLBDRuiqU0LppPbqtk9ry9RBvW9Or/TiI0d+a3m8kEIY44qFIOE9ZsLLYqQdYtnPnzuIoG46nPe1p+pESX9uxl+NBFvKY6Pd40HxqS8MqWqbW2ZfRKczTumu9/GYUWp9+wryy1+rBntZFQV98Sq1v18XKfmPm24IwD0AK6oZ5msh75/0bqz8LnzOlPfOCx/Nsvt+w8d+z8fTMA1CGMA/AGKkM827TNcOOb9++vYg3BqdTIYv2t2hBAZ1eqB/8+jFeRgGAQg6FHU4//vUDXz3uRG3EIZ2mCedT+5qnU3AR8unVThiSaJl+2m4YsHVaJ5Xm8em9bT3+mFX8+jz0eF5QmsfXI35tGq/p40Bn0Vu6dOnnN23aNFscZgML7rq8PV/Ao3o9HmShjolBjgf1otPrjU/11d8a52GkL8N7xKldvW+1DA/nNK39Fpp/TRoqeNO8FxfDbm1It+NfAaC21fPzR+Xv/8VG21X7iTAPQApqh3km751nj3XH2Diki8M8v2ZeeDptztrUabaftnH6jzxZkDDPlvEOq+/Zcy8Mphddx+8Oe+4WG+/r5J590tqz525UezbvK6y0zPn264yLH9edr2xc/LjDfNcU495azHfa47JpRjDfCX8cTOPjlpSNix+Per6ycfHjls53Q9W44vFxfxxM03Fc/LjufGXj4sfhNGfMfSapCPMAjIHKME8jJvYtX778lMKNYVDgUlyHbIUWVNCP9mKZeenHfhn10gl/qOtHvcbpB73mUygSBhGiYCEO7ryXUTdaj3C9wlJvoTj4kE7rpHVXL0HNp+c0ja4ppsDC2w3DGA92vK2q0vMKijSvjwvbGQdvsxradfN0vTy1Z/VUNV7o53iQhT4m+j0eNM9+q7Adf00euIXPlS1DAZ2m9dej16oeetp22kbey87bUBCn02XjNkSvVSFg/Fr1WD3yyrar7ny7mNn31Py1EuYBSEFVmHfx7MTEd+0Dy+9Em7PHe61mrbaG4+1v77X3eRuus8f6jPOAT3e8fYbG2fDF9lg3v5i/kYb97afdvj5oU0Fd2LMvD+n0+JkTE2fbtP/S/v7dLvPlAYHpGubZ+O9YaT39phyOMG+w+TxoCqepCp/ycfHjUc9XNi5+3NL54pBsflzxeKgBXK/j4sfhNIR5AMZL5zBvvXrn6Q60g9q9e3fR7sQOK3Sn0wXLQkeFKH5dNcw5x47Tey688MLZQW/YorviWnuq3XnLaRmnY6Lbax3HQMu+p+bHJmEegBQ8JsyzD6k8sLORmWp2YuJb9thDLoVqf2qPnzg39VzI5tN62fMeKun5L9rjUxpvbSnsy4M9zWx//4lVuKyb7PGbrWaCcXmPORv3Do1XG1b/YH/nbXaY7zOazxaj18hptkB7cJotgDHSOcyTvNfTDTfcUMQdvVPPvmXL9B+bEwfzFtGNQoyPWKn3UUzPvWTuTwR06nY2yGnhhw8fzs4777yZ4sYXYe/RFIzTMeGvNTzt1o3z8W+/NQnzACSjqmfeYsI184B2IcwDMEa6h3kTU1NTtymM6+dmGLob7hVXXOGn11421yK60OnB2v46jTAMbxRk6LpgZYEOJib2WPV1M4y7774727xZl+bJt7vukJuacTom/Lp7HP+nI8wDkBLCPACpIcwDMEZqhHnmsunp6a/bML+emHow1aFQRSFgEeRty1tCXTqdUNcBK/ZHfr0xXU+NIK/aOVbq/Zlt2LBhVkFyHXv27MlWrVo1o/msUj4NfJyOCY7/xyLMA5ASwjwAqSHMAzBG6oV5otMOd1pla9asmVUAot5MZdSDT2GKprVSuEKPPCykHQqQFSTr9PCqG7gcPHgw27JlS3682/RfteHGfG4gTYR5AFJCmAcgNYR5AMZI/TDPbZyamvq2DfPpdI0xnZ6ouvzyy713U2bTPGhDbnaBpihAznvpqdTzzo9T3dDFxxelkDq1a+QBMcI8ACkhzAOQGsI8AGOk9zDPrbfSzTEORKW7gOpmBEAKnmq13So+TvdabbXSqblAGxDmAUgJYR6A1BDmARgj/Yd5AICFQ5gHICWEeQBSQ5gHYIwQ5gFAGxDmAUgJYR6A1BDmARgjhHkA0AaEeQBSQpgHIDWEeQDGCGEeALQBYR6AlBDmAUgNYR6AMUKYBwBtQJgHICWEeQBSQ5gHYIwQ5gFAGxDmAUgJYR6A1BDmARgjhHkA0AaEeQBSQpgHIDWEeQDGCGEeALRBHuadOnUqm5ycrDWcmprKZmdnGY7pcHp6OpuZmWFYMjx58mS2ZMmSsR2eOHEiW7p06cBDfSZRFEVRFEVRTdStVoR5AJA6euYBSAk98wCkhp55AMYIPfMAoA0I8wCkZBzCPADtQpgHYIwQ5gFAGxDmAUgJYR6A1BDmARgjhHkA0AaEeQBSQpgHIDWEeQDGCGEeALQBYR6AlBDmAUgNYR6AMUKYBwBtQJgHICWEeQBSQ5gHYIwQ5gFAGxDmAUgJYR6A1BDmARgjhHkA0AaEeQBSQpgHIDWEeQDGCGEeALQBYR6AlBDmAUgNYR6AMdJ/mLfZapfVgenp6e9YHdHfVnustlqdYwU0bb3V26wOTE1NfcmGOq51nO6z2m611gpoA8I8ACkhzAOQGsI8AGOk9zBvy9TU1D02zKfbvHnzaXXeeefNaLxNc9yGO6yAJly2dOnSz9swP043btx42nF64YUXzvpzVgqgCZ+ROsI8ACkhzAOQGsI8AGOkfpinsEOhR7ZmzZrZvXv3ZkePHs3KHDx4MNuyZUveztTU1G02vMwKWCg7FCavXr16dvfu3dndd99dHJmnO3ToULZt2zY/ThVQb8nnBtJEmAcgJYR5AFJDmAdgjNQL8y7z3ngKPw4fPlzEIZ3t2bMnW7Vq1UzRS29b3hIwOmvtWMtPpVWYXBXixfbv358H1JrPSqfkAikizAOQEsI8AKkhzAMwRrqHeSumpqa+uHz58lMKPXqlQEWnOBaBHj30MEp5z1GFyL1SQH311VcXx35+PUggNYR5AFJCmAcgNYR5AMZI9zBPPZUyna7YLwV6RQ89nXILjIJOkc127NhRHHW902njF1xwwYxu6GJtrchbBdJBmAcgJYR5AFJDmAdgjHQO89arR51OWRyUeksVbXNTDAzbOdPT09+79NJLT1Vdx7GuAwcO+HG6O28ZSAdhHoCUEOYBSA1hHoAx0jnM26ebCNS99lg3CgUnJyePWbve6+kZVvdaFcuceIFV7A1W/rzq01YrrRbKVitfx89ZXVWMK1vXUVtn9X6reBt80Gqht0tK8t6juvHKMGzfvt2Ptaeq8YK2sY+/0+pJVlX0nKbx6TXvQur1eKg6rqr49OF7V4/1fr7e6mKrd1l9xGqVFYaDMA9ASgjzAKSGMA/AGKkM827Lr3OnYGNYgl5P8V1Dn22l8EPhgAKBmMKR/VYLHaApSNR6KbwQBR0KKfQaFnpdtA3eaaVtRJgXWLp06ec3b95cHGWDu+uuu/w43Z4v4FFh+Nxp/3sAXXU8d6L3wqD7sZfjodNxVcbDbb0Pwml9vOrDxVDtEeYND2EegJTEYd7zZyYmZmxEppqdmLjJhtPFc26ljf9r+zA7FUx3iz1+YvE8AAyCMA/AGKkM896TD/ft21dEHIPTKZArV648ae3u0oICCgX0w1/LrOr1dINV2fhR8XVSMBNTWNJEzzwZ6+CuxFqrbOfOncVRNhwXXXSRjtN9+RIe5aFyp+BL49Qj7WtW3XrwxTSterg1sW/rHFc65hUoadoyCi7Ve/XJVnrfqD3CvOEhzAOQktKeefZB9eLZiYkH7InM/r7ehlPFU6H1Ns037fnn2PP9fKattXmvrWgbwPgizAMwRirDvF/Ph4cOHSrijeEoQpIDWlBAAYJOz1PvHi23LFRoKswLe+Y5hRqEeWnQnWezvXv3FkfYcBSnhP/D3CLmedimY1HHadkxoHF63o+dXo7ZJvdtt2Vr/M1WCjJ/XCMq+PuUMG/4CPMApKTqNNv53nc2vLcisFs7MzHxV/bcupLnurL5fsPqt2zeuOcfgPFGmAdgjFSGeb+UDwe9oUBMp0Nau4e0oICCAoV5GvopinHvn7Iw71VWChc0vXoE6RRFBQj5ulupLW8vHKfl+HRVvYzE59UyFDSGQUfYhocgWj8FOGG74fXItH5aTz2vYfh66k4Xhy7hfOH6xdvGT/dUTza/npn3pIrnbZM8ANYp3MO0bds2v75jSPtB21r7R9s2Pna0DfW89om2aRzmaV3VY0/7RKVpfbv76dtevk963Y/6u+x46LRsiY+rmNr9vpWmqRPQ6b2jaX2b+fqr116oar3C16c23mdV1YZoO2n9qqaJn+8USKbKfrvm60+YByAFncK8j9sH1r+xmrW/v2XDS2zC8LNrkDBvvc172OZVrz/CPAAhwjwAY6QyzJu7CcCwbn7hNmzYYN/rJm7XggL68e5hnihY0PIVCLg4zNNzmk7zqBQcKDxR0KJhGLTkgY+VftA7Dxl8mVU0r4cpCh30OBSHIGpXYYHG62+/HpnK51Uwosc+X93pJFxeOF84TdW2Ucjk02sd/WYecejUJldbZfv37y+OsOHYunWrrhn54Nwi5mkb+TGj7avtqH3k9LdfS863uW9XDfXYj2nft+Exrr8H2Y86RsPr1Xk7dZYdHldlup1iG1Pber+83kptap2/aRUuU+sVjtN6KXDTe91fX7c2RI/1+i6x0nSaP//8stL66nkNFULqefUw1PRloWDKtP31mgjzAKSgW5i3yeo3rWbscXxdvKow72Kb9g4bn19Tz/7+vP0937PP/n6FjctP4fWycdefPTHxTGvvi8F8N9nf8XX41tr4v7b6nD0Xh4sAFgfCPABjpDLMe3s+HNYdQt35559fdi0y/cAOwzwNFSxoHfxUxjDM01A/yP2xaDqf3n/c+/PeXhhEaDpvuxuFCN67SBWGHnEIUraseBrROoavT+pMVzZNOK7btpF4+7TZeqtsz549xRE2HEUP0jh01vbyMK8sEFOQp/F6Xvuj0zb2acL59fcw9mPZMRIqW3a3ebRM+/2TT1eHvxbvxad29Xo0f9UPKJ/G1ytuQz5gFbZR1q62h0K/FxZ/f8oqDO78tej5NtE6a//zAxRACrqGefbkpA33WqmHXnhDjLIwz3vcvcrG6Vp4F9vjz9rjU1Zbi3ES98y7ylbk0/b4GUVb+fO2vFvssXp5u/z0X8I8YFEjzAMwRirDvH35cPfu3UW8MbjgLqE7rEL6QR6GeaIf4QoqPKwIwzwPNcpKAYDP66GAHqsHk8IXD1vi5dWhedWOluOhhoZhCKKhHvvzEk8jHgZ5MCN1piubJhzXbduIhyRhG221YsmSJQ/ptNhh0anly5Yts+/7E7vnFjFPx5GHeSptQz8+tZ8U5kn8XEg/LNTT7FetdCz5PpFwvwyyH8uOEem07Kp5nF6fes1pujp83ToFca5qveq2oXHhdNrm3oNP29F+t5VuxzdatenHnL8OfoACSEGtMK94nF9Dz8pviBGHeR60fcgeh6fOarrv2vg7bVoP4ObDvA0TE6uLtl9atJuzx39i479v4/Q/c3xmAuODMA/AGKkM8+7Ipqenv6MeSsOya9euou2Jy7SggAKEsnDNgyz9UNdpdx6M6Ad6WVAS8iBAbSoI1KmIHvCp3fCU2yqvtIrXSY/Vri8/DkH8+TD0iKeROKSTOtOVTROO63XbLAZ716xZMzus6zvqDs7WpmpL3vqjtE3DU7O1rTWdtqcHR6LntX3j/aBp/DRcn0bjXLhfBtmPZcdIt2WXzRPSeigg0zrVOT3V161bEBevV68988SDxpflj+ZOObbfcnnPO21HrXfbTqkto9ek440fpgBSUDfMkyfZuO/aY50Wu/UJ9pkchXke0L3FHp92h1obtzcK5ubDvOL02sNqt6xsmpfZ8LT2ACxqhHkAxkiHMM+Gb9PfwziFUdfeW7Vq1czU1NQXtZCIfsRX9ZTzwCQMNsqCMAlDOp9G7SrME4UDaicMBjtRaBAvQ7wdtRGHIBrqsca7eBpRu1o/raerM13ZNOG4OtvGQ5KwjTbLr5u3Y8eO4mjrnwLBCy64QMfpPdbmirz1R2l/h2GehtqOuq6bbtQQjw+P2Xg/+jQeXEm4XwbZj/ExUmfZZcdVTNPrvRjOF9N7TcvxdesUxGm9FML5zSi07H7CPM2n5fqNNPRaPdjTumgZ8Sm14XZsC/tdmr++8LUDQFN6CfPET3/VHW632lA96jzMu8oen7TH3nNvno3TnWtnNE/xXBzmfdP+LrtjLoDxQ5gHYIx0DvNWTE5OfnX58uWndIrsIK688srZqamp49amrnEW0zXp9CPew4aYftSHwYjoB71+tKvHnfhNAeJpykLATmFEyJfhN6QQLS9sQ0M9VtsKFXS6oB6rfH3K1lXrFa9Ht+nU/seswtdUNq7btvHtovGLxV6rga/xuH373I1frOJeeaJ9rNNAfTuK9o2mD0M3Pa/tq33gx7Se13R+LGmo57UvLtYIo7Z8P6pXqPZrr/ux7HjotuyyeaqoF53aUqgZLld/a5xvB1837xGnZeg9HoZzmtZ+g53Wo85P5dV61WlDtN007nlB+ftRFADq9T4/f/Todmxbbz1tK217frACSEGvYZ48f2ZiYsbG6yYV4V1uPegLr6uXs2l+w8Z/z8ZX9szT3/F85ir70vkLNp6eecD4IMwDMEY6h3myUSHcxo0bi7ijd+rZZ+2o1NMv5mGIl37AlwmvmSf6oa5x+pGu+RSyhOGCKCzwIMx5z6E6FKj49bx8ORp6KCJaJwUJek5hhtrW4zDs0Gvycd5GWa+gTtPp9fpyVB7ixOO0PlXbJm5Dz9fdFqlbOz09/b1LL730VL+n2x44cMC3y568xdNp3/jzKj+utL21vzw4io9nlebV875ftT+03TU+DAc1TvvE90uv+zEeHx4PVcuuOoY6Ubi438rn0fLVvq+bArfwOYVoOtXVx3lAF6+XeuhpvdTDznvZdWtD9HoUAvp2CudTjzwt563FY43XsnTn27ax36v5+hPmAUhBP2GeZthhz+kOt2GY59fMe8x17mwanWarG1z43Wnnw7zgmnmnbHijDdcE09xsj+O75QJY3AjzAIyR7mGe5KfbbtiwYfbQoUNF9NGdQhWd+qh5p6ambrNhfNriuFBAocBEoUIndadDOYWs2bp162Z67aG3c+fO/KYXdpx+29o4J28NbaHAW4FeTKGjehIulh9y9rs0/3zmhymAFFSFeRfPTkx81z6w/K60j2HPKaDT6bHhXWXzU22tbrHx+Z1pbfhie6ybX4Sn0c734nvmxMTZNszvlmvPx9fLi3vrrbVpuZstsLgR5gEYI/XCPNkxOTl5TIGHgo9uFKYoVLH51I56Oo1zQEKYt3CuLq53lwfJ3XrpKZxWSK3prQ5aPdUK7aEQT9crDE+7dXruJXN/Lgr2+zM/TvkBCiAFjwnz7EHe686GeaBm/7iGve9C6on3IXsu7jmnoO6LNv5UMf/n7e882Cuez9n4d9j42eL551j9vP2dz2dDXZPv9TZPHCQS5gGLH2EegDFSP8wT3YVWgUce1Cks0amJYe3evTvbsmVL3kYRqpRde2ycKJhTQKdT+zqdvlh3OnSn4FgBcnb++eef1HXw9u/ff9pxqlO/t27dmvfGU0ht0+7QjGgdv+6eeg+HIbiCPF0Xryzkayu9Tn228gMUQAqqeuYBQFMI8wCMkd7CPLfd6oBVMe3ppZtm2HCn1bifrqhQTtf28m1TdT2yutOhNwqS9+majzb0bTtfRdi820ohNdpLp9MqBPd9q+vt6TqXi62HK2EegJQQ5gFIDWEegDHSX5jnFNZtttpmdV3xN6cpIjW6VqOOzaut1INLf5fdVRlIGWEegJQQ5gFIDWEegDEyWJgHAFgYhHkAUkKYByA1hHkAxghhHgC0AWEegJQQ5gFIDWEegDFCmAcAbUCYByAlhHkAUkOYB2CMEOYBQBsQ5gFICWEegNQQ5gEYI4R5ANAGhHkAUkKYByA1hHkAxghhHgC0AWEegJQQ5gFIDWEegDFCmAcAbUCYByAlhHkAUkOYB2CMEOYBQBsQ5gFICWEegNQQ5gEYI4R5ANAGhHkAUkKYByA1hHkAxghhHgC0gYd52alTp7LJycmuw9nZ2WxqaorhmA5nZmay6elphiXDJUuWZCdPnhzb4dKlS7MTJ04MNPTPI4qiKIqiKKqJutWKMA8AUpeHeXWDPA3rBD4MF++wbrA1jsM6gddiHtYN7LoN9ZlEURRFURRFNVGEeQDQBpxmCyAlnGYLAADQGE6zBYA2IMwDkBLCPAAAgMYQ5gFAGxDmAUgJYR4AAEBjCPMAoA0I8wCkhDAPAACgMYR5ANAGhHkAUkKYBwAA0BjCPABoA8I8ACkhzAMAAGgMYR4AtAFhHoCUEOYBAAA0hjAPANqAMA9ASgjzAAAAGkOYBwBtQJgHICWEeQAAAI0hzAOANiDMA5ASwjwAAIDG9B/mrbC62uptVnus9hV/b7NaawWkYrOVjs1dVgeKv6+zuswKaAvCPAApIcwDAABoTO9hnoK6vVNTU8dtWEz72LLnb7PhRiugCQqbd05PTx+xYekxqrLnv2FDBdBA6gjzAKSEMA8AAKAxvYV52zwc2b59e7Z///4sdujQoWznzp3ZmjVrZjWd1U4rBSvAQtlYhHTZ1q1bs71792ZHjx4tjtA5d911V7Z79+7s0ksv9YBkvxU9SpEywjwAKSHMAwAAaEy9MO8cK4Udefhx8ODBIhKpdvjw4Wzbtm15W9PT01+34XorYJQUGutU2jxMLgubYwr5duzY4cepguotVkCKCPMApIQwDwAAoDH1wry9VnnoEfdw6kaBioKVqampe6wNhYLAqOywykNkhcm9UECtoLo4ffypeWtAWgjzAKSEMA8AAKAx3cO8rVb5abX9UlCiNqx0owxgFC5TELdly5biqOudTr1dtmyZgudbizaBlBDmAUgJYR4AAEBjOod5a6enp7+nHku99siL+amMVpzGiKHTDVdWr149e/fddxdHXH90HT1rTrU9bxhIB2EegJQQ5gEAADSmc5i3W3/XuUZeNwoD161bN1OcbgsMk4K3bM+ePcXRNphNmzapd55Ot+W0cKSEMA9ASgjzAAAAGtMhzFuyZMn3dTfQYdFdRYv2N2pBhQ9a+fg7rZ5kVUXPaRqfXvMOQncvfZfVR6xWakQHWtanrbpNNyzrrN5vda+Vv149fobV9VYXW9Vd90VtcnLyk+o9WhxmAwtOC9cp5i48TsP6mtXrrRbjPuAYTAthHoCUlIV5/8Fq1sr/zSirv7X6Q6tLrRbD59l1VjNW/vqutpqyAgAAGKHKMO9D+XBYvZ1ENyXQNcms3bdpQQGFAx4YvEAjKrzBStNoWs0zCIUP77RSW3VCuoUM8xQiab0UlITL8/GqDxfDhQwYU3SOetHpNO5hOvfcc09a2/E1Hv049RBZ2/0GKx2TgwbLqen1GFxlhdEizAOQkqqeefqP109a+WfWm6w83HqJlQdf+vfjn1gths+0G638dRHmAQCABVAZ5r05H95+++1FvDEc559/vkKS/VpQQF/8NM6DgbJwSuPUA0g9obr14OuFAsKUAjGFmdr2VeGQAqXPWen1p7buTVAvz6GGzrJ582btg0P5Eh7lPUPDfaNtr32gY3fQgDkVdY/BJ1v5MUiYN3qEeQBS0uk027CHXhjmiXqze/B1i9ViuKRF2DuPMA8AACyAyjBvez5Ub7phKkKS27WggEISnb7nvZzKeudpnJ5XcLBYw7y6wZC2A2HeHH1pzg4cOFAcYcOxbdu2bGpq6sG5RcwrC/NEj6uO27bp9xgkzBs9wjwAKek3zHu+lf5jV899y+oCq7Z/rhHmAQCABVYZ5v1SPhxRmFfW40lh3rOtFCLEYYkCBj2va3gpOIjDPJ36px57xbrn08YB16us1LaeV68iDyo8jND18zSfPx+279cO8+AsvNZep/lc1bJjGq/pfDnd1Fl3qdo+g76OeJq6r3OY9NpGEuZNTk4em1vEPL3eqp55es0K88Jtqtev7RDuTz9NVdNrqG0W67YdOz0fngar69opdJOq8bFhHYPqteeqjj/pdAyGbTi99u9blU0TP/fjVosJYR6AlBDmPYowDwAALLB0TrP1H/gKShQmhAGF/vZrdyk4CMM8D1gUKoiHEf5YPHBQKBe3oefCmxhomrA9TRNeW0+Bgz/uNJ/TY70mTVO2/qFupzfGuq27VG0fhTm9vg6N922o+YtjJV9fPV/3dQ5T06fZ6nVr2vjYUJh0lZWCLN8OmlbjtQ1Fz8X7W9OoLd/O8XbstJ1Val/7WM9pH2naqvFlhnEMftNK40XLDh9rHRS46bGmrzoGw3mcHuu1XmLlr0Pr6qV1Vg9BPXezlaYtCwTbijAPQEpGeZqtbrB00Mo/9/7I6mwrCedXXWOlMO2e4vEuq2krXZ/Px5UtR89/xcqX8XmrZ1mFn7Hrrf7Rypd1k5XWY7eVXp9em5ZVFub9/6x8G4Tjy+jfLW8zfK0AAAAVKsO8P8qHugPtsAQ3wNipBQX0g9/DvLIwTkGeBxHdQiKfxuf39sJTIPWcxuk5/a3pNZ/4/HGYocfhdPF8omnC+bSOChXCdfWwJFwf10+QUmfdQz6Nb586r6OsXb0m7Qetc6+vc5hGeQOMvXOLmOevWcGTKn+PWIU9zUTbND5Gw+0V0jb1Y7HbsdptO2u8h3aixwq8qsaX8fY6HUMhP378NFttB61j1fz+vB9/ErchH7BSG/6jKmzXx+l1KPRTjzw9FwZ3eh36gfbC/NHiQJgHICW9hnn6HP8lKw/YFJ6V9crzAE3/Zup5/dulx2EgpxtOePtq5zKrMOTTDTgUzIW9AMNQ0cM/D9g8jNO/t/FNOfQfc96G1kH/nvrn8WestE7hsr1NvV5tB930rVs4F4aGWocNVnzWAwCADirDvDuy6enpIzrdcFgUDBbtb9aCAvpR7oGISj/sPQzRlziFeRI/F1KvKH2Z+lUrfdHysEA/6sumdx4kqG2nwCAOI/Q4nK7OfB6MlFUYZji9Vn2Ji5ddpe66S9X26ff1a3tqu2r+Xl/nUE1NTd166aWXnioOs4EdPHjQ131bvoBH+Wsu276hsm3q20jDUDhe1elY9WnLyrezjiHtX72fvAegVI2P9XsMhkFc2fFTdfxJWRtxmCcaF06n7aQw72+syraJ6o1Wi+UHEWEegJTUDfPi0r8x/9yqrJea/t38Cyt93nn4pn8/9B9oGudBWVl4FoZuPm8YkqlXnXrRhe15QBiGfnEPurh3nnoCqme9wsBOPfMUXGq6sK1O/I649MwDAAA1dAjzbLhHfyvcGNTRo0eziy666OTU1JS+/MT0ozzs3eShhX7kq/RY9Lx+zMeBh6bx03B9Gg8LNK++OCqkKONBgi9bysIIPQ6nqzNft3Ampuk0fd156q57p+1Ttw0PefTFVPwUUb3GXl/nsG23Gtqptps2bZotrpcXn5Lj+yfeNrGybapt5Nsr5NvVt2OnY7WX7az9o7Y8CHdV412/x2CnMC8+/vrpmSfaLjpF92X5o7nXoh9j77PS+i6mU2rLEOYBSEkvPfN0DdMwEPNgLRYHZ3F5SDdImCcenP17q1dbeW9Bnzdct7AN74kXi8O8X7NSm3EvPwAAgCHpHOat1R09n/KUp5xSGDcInQZZtO1hUEihQRjmaagf9/qfU10YPx4fBg1xAOLTeFjgYUkYHoiHJx4k+DIkDiNEj8Pp6swXBjUhjdepgWXUrrZTvL4hnSKpNuqsQ7ftU6cN0fNarp9eqjZ9X/bzOodphR2nX1y9evXs3XffXRxx/dm9e7cfpzvylk/nQVe8bWJl29S3UTyvtpkfzz5NvO81jarbdlYb4emzvr56rmx83I7T8ns9BqvCPC1DAZzfjELbpN8wr+wYVLCn9dAy4lNqfbssFoR5AFLS62m2YQCninvASVX4Fhs0zJMtVroun38n8vY6hXlqY4lVLAzz/tbKP6+rwj8AAIABdQ7zRKca5nf37Fdw2mJ8DTKnH9069U4hg9MXK80TBg4eQuhHvOYRPa/pPFjynkcKAnQBZdHfGqcveqLTDHXhfYUDes7DFNE4fbELwxgNP2YVTldnPqladvhaY+rFpNcUnxKpvzXOt0mddei2feq+Dg9cnheU9oFP08/rHKb1unbeli1biqOud3fddZdf01Ff7svo9eo1xtsm5ts03Hfix7SG4tvaH0vVdqyznVV6H8UhqwKtsvHheyvW6zHoveK0ngrr9LoUzmk6/agJe9MpeNN8/v5UcNepDdfpGFQbek06VUp8uyym3nqEeQBS0s8NMMLxZXeyDYOzTne6HTTM8/Ct7DTbQcM8nYarM1vC118VSgIAAPSpe5gnCuHy3nW99tDbv39/dt55580Up9fqOiUx/agvlpmXBxsKJsLeeh6EhKV59bym02MFFvpxr/FhOKhpPJxQaXqti4IBH+cBiUIFH+eBTDyd9wzyx2XzhctWbyJNp+e0XmE4UkVt6q6/4XI8WFGbddZd61C1ffQaenkdHgD56wjnU2DT7+scJl1kOg+edbOVXihwXrdu3Uxxeq0upB2Lj1NVHIaV7Rdtt5CCNd9GGnrA5tRGfKxqnOu0nbWvrrfy/a1pvMde2fhuuh2DCtzC58qOH915Njz+1EPP3596Lm5DP6h0HbywDQ/ktC0VBGo6f97nU1gYbxe1v5gQ5gFIST9hnv490ncP/zyL7zKrf1v8mnl6XuGZrh+n8brmqnpgq61RXjNv0DBP66N/t75qpWXo36U6p9uGp/4S/gEAgC7qhXn6opP/qFfgUecaegpTFKponunp6a/bUF+G0F4Kf+JgSvTlWeFTClZY7bLK1qxZM6sguRuF034KuE4pt6FOu0Gauh2Diz3kIswDkJKqME+9rtXDPQ7kXBicqcKwT8JQLqywnTDM8/nD+Ty4C8fts9L8YThXVm+32mTln7VxG2WnzXoQp2k8DAyX0+1023BahX/czRYAAHRRL8xz24rAI9u+fXve6y526NChbOfOnXmYoumsdlopZEF7KUAJr10Y0nMvmfszGRuLADnbunVrfhfluEepTqnV9fEUTms6K4XVZT1HkQY/BsPTbl2Kx+AoEOYBSElZmBf2yIsrDO3i6+fFvdf0mf4VK+/Zpv+oKwvyvNQz/3vRuI9aqTd3OM5DvrdYqQ21rTvrqied9wj8vNWzrLQuZcFfHMyFvfK81DtPN8Ho9Bpj9MwDAAA96C3MEwUee3V9MhsW05aW/ld2oxXaT6eTap/qNMYw0FOIEl7PLSUKkHd6+FxVk5OTOg1G14VE2vzae/rB1pZjcNgI8wCkpNNptgAAABip3sM8p7BE//OoH9e60K9OPdDfCkbo4bT46DQTXYesOD7y683of8fbEKJsttKxqf/ZP1D8rf9JL7s2HtLV5mNwGAjzAKSEMA8AAKAx/Yd5AICFQ5gHICWEeQAAAI0hzAOANiDMA5ASwjwAAIDGEOYBQBsQ5gFICWEeAABAYwjzAKANCPMApIQwDwAAoDGEeQDQBoR5AFJCmAcAANAYwjwAaAPCPAApIcwDAABoDGEeALQBYR6AlBDmAQAANIYwDwDagDAPQEoI8wAAABpDmAcAbUCYByAlhHkAAACNIcwDgDYgzAOQEsI8AACAxhDmAUAbeJiXnTp1KpucnOw6nJ2dzaamphiO6XBmZiabnp5mWDJcsmRJdvLkybEdLl26NDtx4sRAQ/88siLMQ6qOmWz58uVZOFyxYkV29OjRsR2eccYZ2SOPPDK2wzPPPDN7+OGHx3Z41llnZT/4wQ+SGD700EPZypUrGxseOXIkW7VqVWPDBx98MFu9enVjwwceeCA7++yzGxsePnw4O+eccxob3n///dnjHve4xob33Xdf9vjHP37A4ZftexhhHgCkjp55AFJCzzwAAIDG0DMPANqAMA9ASgjzAAAAGkOYBwBtQJgHICWEeQAAAI0hzAOANiDMA5ASwjwAAIDGEOYBQBsQ5gFICWEeAABAYwjzAKANCPMApIQwDwAAoDGEeQDQBoR5AFJCmAcAANAYwjwAaAPCPAApIcwDAABoDGEeALQBYR6AlBDmAQAANKa/MG+F1dVWe6wOWOXzTE9Pf92G+6y2W621Apq22WqX1YGpqanjNtRx+h09trrO6jIroA0I8wCkhDAPAACgMb2Hedump6eP2DBbvXr17ObNm7Orr7462759e6a/L7zwwlk9V9ROKwV/wELbaMfpN2yYH4s6Nrds2ZJdd911+d9XXHFFeJwqlD7HCkgZYR6AlBDmAQAANKZ+mKeedvutsksvvfTUvn37siqHDh3Ktm3blrdT9NbbaAUsBIXHCpGzNWvWzO7duzc7evRocWSe7q677sp27NiRH6dTU1P32HCLFZAqwjwAKSHMAwAAaEy9ME+9nPLeeAo/qsKR2P79+/NARfNZ6ZRGYJTWem88hcmHDx8ujsTODh48mK1bt25G81nplFwgRYR5AFJCmAcAANCY7mHeCvWuW758+SmFHr1SoKLTG60dFT30MDKTk5OfXLZs2WynXqNVFFB7b1KrrXmDQFoI8wCkhDAPAACgMd3DPPVUyvbs2VPEHr27++67s/POO29mcnLyq9YW19DDKGyzym644YbiqOudAj310CtOueUGLkgNYR6AlBDmAQAANKZzmKc7geY96wala5cVbet6ZsAw6fTaI7qpRd1TwKuo96m1p9qbtwykgzAPQEoI8wAAABrTIczTaYu65p161g3D1q1bdaOB49Z+eOfQD1oVy5yvT1uttGrCOqv3W8XroPUc9XotxDIWo506vfb2228vjrTB+E0xrC7LW38sP0butfJpdXMYje9Evf3eZfURK/YxekWYByAlhHkAAACNqQzzbsuDNwUbw3LgwIGi7cdck+wZVncW1S0QGaUnWb3TSiHNQoR5z7Ya9TIWPd30YvPmzcVRNjjd5daaVe3IF3C6N1jpuRusfD9pqMcar+dj2s8K8qqOLaAOwjwAKSHMAwAAaExlmPe7+VB3pB2mVatW6a6hu7WggIINBRyphBwLEaopOFTvLkKdwSgky3bt2lUcYcNx+eWX6zhVb7vQC6z0vigL7MSDPk3n4v2saQjz0A/CPAApIcwDAABoTGWY9+v5UL2Uhkk3GLB2D2hBAQUb4xbm0QtvOPLrOuqajMOk60ROTU19e24ROT9G1XtUAV0Zjdfz4X6N9zNhHvpFmAcgJYR5AAAAjakM834pHw56Q4GYToe0du/SggIelNQNOXSarl+vTMNXWcU0zqf5nJVO5XWa/2tW+Wu0invIxQFMfB09D218/rC811anZei6aeE8alfrFy7DdXut4XXY9Lfa0LR6zVWh02KS38VWp3AP07Zt23zfOO0fbX8dG1W037T/NJ2mL9vPOh1Xwzr7quoYDve5xum5+LjB4kOYByAlhHkAAACNqQzzXpcPh90zb8OGDbPW7kEtKOAhSJ1AQmGZwgu/tp7CLq1rGLJ47ydN4217jyoP4jx085DGH0sY5mn6+FpnmicM1bxNX4c6y/B1rFqGaJpOr1XT+XwKDl9fjNP04fIXsy1WQz8dvLhZyz1zi8j5KbadwjzR85rOT7UN97PocZ19pcdqS9Oo1Iam0/S+z3VsXGWl40LP6TjC4kWYByAlhHkAAACNqQzz3p4PDx48WMQbw3HuueeetHb3aUEBDyvC0KOMh2ThNclEoYfCDYVmHpyF0ygY8edjvuwwTFF78bqUjROfv1OYUrYM/d1pGXVeq6tqS7XYrbfKdu/eXRxhw1GEzrfnS5gzzDAvfKyhHoftat/fXAydLz9slwBvvBDmAUgJYR4AAEBjKsO8P8+HO3fuLOKNwQV3Cb3OKuSBRhxIxeJAw4XjVXVCDp2qqN5Rv2qlHk4KR5yClXhdysaJ5qsKCjstIw51JFxGndfqqtoKA6JFa3p6+ohOix0WnVq+bNkyhXm75paQ85C47BhwGq/nw+Mh3jd19pXv47LyY6isHSxuhHkAUkKYBwAA0JjKMO8OnWb4pfXr1xcRx+AUDBbtP1ULCngI0i2cqAq4PGjReFVVuOYUhOiaY1qWL9tDEglDNVc2ztcnnNd1W4b+7rSMOq/VVbUVBkSL2Z7Vq1fPDuv6jrqZhrWp0s01nO/DTkGxxuv5cF/E+6bOvtK+7RZIl7WDxY0wD0BKCPMAAAAa0yHMs+F2/T2M3nnqlVf0dtpvFfOgpCqcUICla9R5kBWHVGH44dMo7AhpGq8w7PNlh9Or/bLAJRxXti5a/kus6iyjKtTxcXVeq6tqK553scrvaLt9+/biaOvf4cOHs/POO29mcnLyq3NNn0bbXu+L+NhyGh/ud4n3TZ195fteywtpvF+rsawdLG6EeQBSQpgHAADQmM5h3sTU1NStCuFuv/32Iu7oz6ZNm2YnJyePWZNxrzxRSKGASqeixr2RdMF/jfeARCGG1k1DUZihUMMfi4IRhSG6OYD4TQM0rQcyummA+N1iNc/FVprmY1ZhYBaP82XGYYra0np0W4ZoOm/vlVY6JTdebp3XKmo3Xt+y9VvMdlsNfFfb4C62G9VoCd8n3utSNNRj7WPf5y7ez2XHVtm+qjqGfT7f5xqP8UCYByAlhHkAAACN6RLmmadOTU0dv+KKK/o+jXHXrl1Fm3lPv5hCCX++quKgQ72TFHToubIAxcMVn//9xTjRUI813kNCrYP+VjCiZfl8HpbE43RzAn8cl4K8TsvwMEbjtO6qZ1vFy/DpOr1WLSecT88r/NH8ZW0tZiump6e/c8EFF8yod10/9u3b59tsZ95iNe079TD16VXa32XBmu/ncFpVt32lfXuDlc/rx2fZPtcysPgR5gFICWEeAABAY7qHeZKfbqs7fB46dKiIPrpTqBL0dDqghoARyk+3XbNmzez+/fuLo7A7hdQ7duzIj9Pi9NoVagxIDGEegJQQ5gEAADSmXpgn23TXUJ1yW+caegpTFKrYfGpnj9U5agQYsS1TU1P32DAPkrv10jt48GC2bt26GU1vpd52Ot0ZSBFhHoCUEOYBAAA0pn6YJwo68tMLzz///JO64cDu3bvz65SpdJriDTfckF1++eV5OFKEKlusgIWk4FgBcrZq1aoZhXo61duPUwXNOk63bNmSH+t2nD5ow21WQMoI8wCkhDAPAACgMb2FeU7Bx77ihhbF9KfVQavrrOiNhyYpSN4zPT39PRs+5jgtTqndZUVvPLQBYR6AlBDmAQAANKa/MM/p2mK6TllYBCNIUXycXmYFtAlhHoCUEOYBAAA0ZrAwDwCwMAjzAKSEMA8AAKAxhHkA0AaEeQBSQpgHAADQGMI8AGgDwjwAKSHMAwAAaAxhHgC0AWEegJQQ5gEAADSGMA8A2oAwD0BKCPMAAAAaQ5gHAG1AmAcgJYR5AAAAjSHMA4A2IMwDkBLCPAAAgMYQ5gFAGxDmAUgJYR4AAEBjCPMAoA0I8wCkhDAPAACgMYR5ANAGeZh36tSpbHJystZwamoqm52dZTimw+np6WxmZoZhyfDkyZPZkiVLxnZ44sSJbOnSpQMP9Zmkqjt9KsPjx49ny5YtG9vhsWPHsuXLl4/t8OjRo9mKFSvGdvjII49kZ5xxxtgOH3744ezMM88c2+EPfvCD7KyzzkpiuHLlyuyhhx5qbLhq1arsyJEjjQ1Xr16dPfjgg40Nzz777OyBBx5obHjOOedkhw8fbmz4uMc9Lrv//vsbGz7+8Y/P7rvvvoGGExO3FrkdYR4ApMx75tUK8jSsE/gwXLzDusHWOA7rBF6LeVgn8Oo29M+jutOnNKwTeC3mYZ3AazEP6wRei3lYJ/BazMM6gddiHtYN2hZiWCdwG+WwTuA2ymGdwG2UwzqB2yiHdQK3UQ7rBG6jHNYN7DoPv1zkdoR5AJAyTrMFkBJOswUAAGgMp9kCQBsQ5gFICWEeAABAYwjzAKANCPMApIQwDwAAoDGEeQDQBoR5AFJCmAcAANAYwjwAaAPCPAApIcwDAABoDGEeALQBYR6AlBDmAQAANIYwDwDagDAPQEoI8wAAABrTf5i33uptVgeKur0Y7rbaYgUAGB7CPAApIcwDAABoTO9h3sapqalv2zCfbu3atdnmzZvzWr9+fTHvRDY9PX3EhjusAACDI8wDkBLCPAAAgMbUD/NWWO20ytasWTO7Z8+e7O67787K7Nu3L9u4cWPeztTU1G02vMwKANA/wjwAKSHMAwAAaEy9MO+y6enpr9sw27ZtW3b48OEituts586d2fLly09NTU0dt3m35S0BAPpBmAcgJYR5AAAAjakR5ql3nUI59bjr1aFDh7Irrrhitgj06KEHAP0hzAOQEsI8AACAxnQP83STi+yGG24o4rne3XXXXdmyZcsU6OmUWwBA7wjzAKSEMA8AAKAxncO89epRp+vfDWr37t1Fu9wUAwD6QJgHICWEeQAAAI3pHObt0+m16lk3DJs2bZqdnJw8Zu3qZhoAgPoI8wCkhDAPAACgMZVh3m26E+3x7du3F1Hc4A4cOFC0PbFFCwIA1EaYByAlhHkAAACNqQzz3pMP+7npRZWjR49mK1euPGnt7tKCAs+wuteqWHZen7b6WDFcadUrzXO91VarsN2qeoPVsKyzer9V1br7uun1la2L6mtWakPbJvRBq0G2Sbid77R6klUVPadpfHotu45ur9/5dGXt+jYK5/fpw9fg20jTXmz1LquPWPWzfYCUEeYBSAlhHgAAQGMqw7xfz4e6G+0wXXTRRQrzDmhBEYUvCnW03BdohBkkuFLA8yortaV2vA09Dpeh8TdYDSvMUwD2TisFTlXr7usmHmSG6yhXWX3OSusartswtokvM9wOZbRcTaNpNU8ddV6/hNPpNcXCbSQKZTWtwrqwTR+v+nAx7Hf7ACkjzAOQEsI8AACAxlSGeb+UD9Wbbpg2b96sdg9pQSUUHimMqRscdeKh1aZi6OIwTxQsvWTuz6HpFLr5uon3fisLtDSv2ojXt1++XC1zv1Wn4Evj1MNNPQS79eArUyd09NdX9trDbeT7rGw60XQKPrWOOoa6LRdoI8I8ACkhzAMAAGhMZZi3PR/efffdRQw3HBs2bJjVUrWgEsMK8xTkxKdourIwbxSqwqx43TqFeaJtMYzeZuFytUydnqoeiVXbQuP0vJY7qjBPNF382sN1VamdbseF1pUwD4sZYR6AlBDmAQAANKYyzHt7Pjx48GARww3H+eefr9Ns92lBJcIwr9N119RrS9NpHb1HVkhBlKYp0y3M89M2NY2GVe10m64qzIrXrVuYF4ZZ6j1Yd5vEwVe4XA/znm2lecrCND2vfaBllYV5/b7+cD4tQ9cNjJcfrmuvYaaHeWut1L5vj3D9tQ7qcajnfD28bc3n193r1IbE27zb853CSKAbwjwAKSHMAwAAaExlmLcvH+7evbuI4QZ31113FW1P7LAq42GerhdXdd01TaNwSUGTxnvvMpWHQhpXFZx0CvPUtkIXtS0KfcJ2XZ3pqsKseN0UAHUK80TPqX1NV7VNNI3GqfR8HMCFy9V4D7A0n9oM10l/+7Xpytrq9/Vrm4fLqtq+4br6/oqnqaJ1U1D3eistW+uo9dd48e3tj7UcrZMea3o/7jq1Ifpb4/ScpomPQz2voZ5TlW1HoBeEeQBSQpgHAADQmMow745senr6O7rG3bDs2rWraHviMi2ohAKQMOyJAyEPRcJgx8MZD+f0WMFKlaowL27HaVnhOtWdLl53KVs3by98TTE95+sct6v5by6GLn6N8XL12MO8MMxyCvI03rd3GEJp2M/r9/nC5Xj74WuP19VfSzhNJ2o/XG7ZMkL+fLhecRui+b2NqvX27aK/u+0ToFeEeQBSQpgHAADQmA5hng3Vgy7bs2dPEcf1T9feO/fcc09OTU19UQupoBClWyAWj4tDIoUlnQKTqlCl7vi605Wtu56L5/P1D4OhkAdHvl3idn25ZVW1TbRMD/O8fa2DxmsZCvMkfk58efHriMdXrWc8n6YLX7ueD6fR+ui1V22fWLcgzukUWvW8+1Ur9TL0bSV12tDf4TThceivtazC5QC9IMwDkBLCPAAAgMZ0DvNWKHxbvXr1rE6RHcTWrVsza+u4tbleC6mgoKNbmOfhjk7RFD9V0wMg9ery4KmMBy1hYCRV4315Pr7udGXrXrZuHgKFQVHIl+dtxe3q+TBsKxMvV3+H14nzZWj7exglel7LqhPmdXv9VfNpuvC1l62rlt/tNTqtf7zd42VoGj+N2F+jxrk6bXQ6DlV11xeoizAPQEoI8wAAABrTOcyT9QrhBjnddu/evUWbE2/LW6ymECUMQRSexKGK/lbg4zcwCAMVzafnOqkKlTycCQMbiYOZutPF6161bhqv+eL2xIOmcH3jduMQzWm8bsBQtlyNC8M8X462qW78EI8fxuuvmk+PfVzZuoqOC22DMHCLaT4to1sQp/XUemha8dcYtt2tDdFzWmbZceivtWqfAP0gzAOQEsI8AACAxnQP80QhXLZly5b8dNle7Ny5M1u2bNlscXrtiry10ykg8XAlDEwUluhOp2FAJB60PC8ozavpFZ7EAUpM8+u1+amkIX/Og52yoEe6TVe27lXr5sGPXrfmc7oJiE7/DEOisnbFt6HmEd2UQTdy0DRly9Uy1Xa8XfWawmn1vJbl+8f18/pF66n5/PVoPf01an0VdJVtI9H+0rwKITWf098a5/NpGeFyfd1U+lvTheugoW//izXCdGtD9Fr1uOw4lE77pErZckR/q714n0mddZV+21ilEYWwjSdrRMDb8PGaVtcNLGvjA1ZlbWj8sNuQYbXTNMI8ACkhzAMAAGhMvTBPdlplq1atmqlzDb1Dhw5lz3zmM09qHqv9VrpGWRmFKwo9NF18HbdiXU4LGjz88nnCCqeLabye7za9AiVvW0MPfWJV05Wte1WQowDEp4tLPb7C4KrTNtFz6iXm66NwQvNpfLzceJkewGmasLeeB3ZhaV7Xy+sP11PL8HnUhtrUOO3XbmGXgjEdS9622vBtFC9Xz2n6cJ/7vvB10HbScrUOvs3qtKF1rDoO9VjHtNanbJ904q9BFW4HHx9uS9F4rXs4ftRtKBTTtHFY5m34eJ9WbZQFa2VtdArz+m1DhtVO0wjzAKSEMA8AAKAx9cM82Tg5OflVG2ZXXHHFrO5Oe+DAgez222/Pe+zpbwV9uj7e0qVLZ6amph60abflcw6PAiAFKTGFLmW97YBR4DjEQiPMA5ASwjwAAIDG9BbmiU6V3VGcNltMe3rZc/fYcLdVVW+8fik8Ca/pFtJzL5n7ExgpjkM0gTAPQEoI8wAAABrTe5gXeqrVZitdU0+lUy073a12UH69M52+GAYpClB0imZZuAIMG8chmkCYByAlhHkAAACNGSzMa4JOY9T1x4r1zK8t93orAhQsJI5DLDTCPAApIcwDAABoTPvCPAAYR4R5AFJCmAcAANAYwjwAaAPCPAApIcwDAABoDGEeALQBYR6AlBDmAQAANIYwDwDagDAPQEoI8wAAABpDmAcAbUCYByAlhHkAAACNIcwDgDYgzAOQEsI8AACAxhDmAUAbEOYBSAlhHgAAQGMI8wCgDQjzAKSEMA8AAKAxhHkA0AaEeQBSQpgHAADQGMI8AGgDwjwAKSHMAwAAaAxhHgC0gYd5FEVRSdWJEyeypUuXtmZ4/PjxbNmyZWM7PHbsWLZ8+fKxHR49ejRbsWLF2A4feeSR7Iwzzhjb4cMPP5ydeeaZYzv8wQ9+kJ111llJDFeuXJk99NBDjQ1XrVqVHTlypLHh6tWrswcffLCx4dlnn5098MADjQ3POeec7PDhw40NH/e4x2X3339/Y8PHP/7x2X333TfQcGLiVivCPABIHWEeRVHJVd0ALaVhncBrMQ/rBF6LeVgn8FrMwzqB12Ie1gm8FvOwbtC2EMM6gdsoh3UCt1EO6wRuoxzWCdxGOawTuI1yWCdwG+WwbmDXefhl+y52ephXIMwDgIRwmi2AlHCaLQAAQGMee5ptgTAPABJCmAcgJYR5AAAAjSHMA4A2IMwDkBLCPAAAgMYQ5gFAGxDmAUgJYR4AAEBjCPMAoA0I8wCkhDAPAACgMYR5ANAGhHkAUkKYBwAA0BjCPABoA8I8ACkhzAMAAGgMYR4AtAFhHoCUEOYBAAA0hjAPANqAMA9ASgjzAAAAGkOYBwBtQJgHICWEeQAAAI0hzAOANiDMA5ASwjwAAIDGEOYBQBsQ5gFICWEeAABAYwjzAKANCPMApIQwDwAAoDGEeQDQBoR5AFJCmAcAANAYwjwAaAPCPAApIcwDAABoDGEeALTBYgnzVlrdbHWn1ZM1wjzD6n1Wn7ZapREAkkeYBwAA0BjCPABog7Iw7wNWPr5TvdGqUwgYt9Ntevk1q17nkTjMU5D3XqvvWxHmAe1BmAcAANAYwjwAaIOqnnlPsrrNSs+9UCMCCs7eavUGq25B2zqrb1qpnbDXXBkt06f9nFWnaevwgI8wD2gPwjwAAIDGEOYBQBtUhXniPeviME8UvL3EqluYp0Dtw1Zfs9Jy1FbVPOqV91krTfchq25t16HXQJgHtAdhHgAAQGMI8wCgDfoN8+ryMO+VVp1OeVU4+CmrV1tpmYR5wHgizAMAAGgMYR4AtEE/YZ6uR7dp7s+uPMzT9DrlVcsq652nXnk6bfcFVmVhntrRzSx8fe+1UvDn01Td7KJOmKcgUes2jFN7AQyGMA8AAKAxhHkA0Ab9hHkK3hS61eFh3o9bVQV1CtP+3KpqGrURXvtOj8N163SzizphnrdPmAc0jzAPAACgMYR5ANAGdcI8PR9X3VNvwzDPQzP1qtNj93wrLUvroL+rwrwPWvk4BXgK77yXn0/TT5gHIB2EeQAAAI0hzAOANqgT5oXBnUKzf2sV9szzYE3teIW96DzME/XqC8O6+PmyMC+k6a+yUk8+Xzefriy4I8wD2oUwDwAAoDGEeQDQBr2GedLPNfM8rNMptd+08t55CgW1HF9+VZindq6zer/VJVZxzzwhzAPajzAPAACgMfXDPP2w0w8tnT4V0g81/diLr8u01epOq3X5ozm0cXobMmg7+uGs+VX6O34sdcbVmUbqjKszjcTj6kwj8bg600g8rs40Eo+rM43E4+pMI3XG1ZlG4nF1ppFwnPfaik+NrDNusc8nw2qr2zT6TFb1EuY5fZ7EnyUxLSsM88R7573N6iNW4XP9nmYrhHlA+xHmAQAANKa3ME8hUlXopJAppLsdaryed7RxehsyaDv68awfwCr9HT+WOuPqTCN1xtWZRuJxdaaReFydaSQeV2caicfVmUbicXWmkTrj6kwj8bg600g4rk7QVDVusc8nw2qr2zT6TFb1E+bpdNswiCujZcVhnj6f1DtPy4174JWFeT4uDO70WUWYByw+hHkAAACN4TRbAGgDhWT6XI7DPPXS9cAtDvMU0CnIqxOSeTsvswqXEQaF4XjvtRfeWdaDOwV8Wp7afJ+Vpnuj1bOt1lopoNR/YnhwqNDwNqtwXBlNp3m5my3QPMI8AACAxhDmAUAblIV5HrRpfKdSkBaHgKG4HYVqYUCnHnseBnpgF7av8mV4yKcexK+2Ujt+7T0Fi/G8by0ZFweHjjAPSAdhHgAAQGMI8wCgDcrCPABoCmEeAABAYwjzAKANCPMApIQwDwAAoDGEeQDQBoR5AFJCmAcAANAYwjwAaAPCvM6qruVHUeNc37I632oUCPMAAAAaQ5gHAG1AmAcgJYR5AAAAjSHMA4A2IMwDkBLCPAAAgMYQ5gFAGxDmAUgJYR4AAEBjCPMAoA0I8wCkhDAPAACgMYR5ANAGhHkAUkKYBwAA0BjCPABoA8I8ACkhzAMAAGgMYR4AtAFhHoCUEOYBAAA0hjAPANqAMA9ASgjzAAAAGkOYBwBtQJgHICWEeQAAAI15bJinL2bFCP+boiiKoiiKoh5bJ06cyJYuXdqa4fHjx7Nly5aN7fDYsWPZ8uXLx3Z49OjRbMWKFWM7fOSRR7IzzjhjbIcPP/xwduaZZ47t8Ac/+EF21llnJTFcuXJl9tBDDzU2XLVqVXbkyJHGhqtXr84efPDBxoZnn3129sADDzQ2POecc7LDhw83Nnzc4x6X3X///Y0NH//4x2f33XffQMOJiVutqsM8AEAa6JnXnFkrbfup/BFSMmOlfTOdP8JComceAABAYzr3zAMApIEwrzmEeekizGsOYR4AAEBjCPMAoA0I85pDmJcuwrzmEOYBAAA0hjAPANqAMK85hHnpIsxrDmEeAABAYwjzAKANCPOaQ5iXLsK85hDmAQAANIYwDwDagDCvOYR56SLMaw5hHgAAQGMI8wCgDQjzmkOYly7CvOYQ5gEAADSGMA8A2oAwrzmEeekizGsOYR4AAEBjCPMAoA0I85pDmJcuwrzmEOYBAAA0hjAPANqAMK85hHnpIsxrDmEeAABAYwjzAKANCPOaQ5iXLsK85hDmAQAANIYwDwDagDCvOYR56SLMaw5hHgAAQGMI8wCgDQjzmkOYly7CvOYQ5gEAADSGMA8A2oAwrzmEeekizGsOYR4AAEBjCPMAoA0I85pDmJcuwrzmEOYBAAA0hjAPANqAMK85wwjzXmr1Vavi39iJzxXj3mf1ZKt1xd8ftBrFPg7bHzSUXGl1ndWHrVZrRIn1Vv/F6o1WozxmCfOaQ5gHAADQGMI8AGgDwrzmDBrm/Vur71u9zMr3n8K1/2p1p9WlVjdaaZoPWQ17Hyt8C9sfNMxTkHeb1aetysK8J1m910rLI8xbvAjzAAAAGkOYBwBt0EuY90qrF8z9uWh577CPWK3SiBLPsPpzq0EDpUHCvF+z0r57kVW8Dgq9FOj9eP5oYuIDVqPqmSd7rIbRM0/0um62quqZp/3zKavUwjxfL38/qV5spdfj+1nloaem/6SVT//rVlXbT70R77Eq29cLKewVOYx9XYUwDwAAoDHdwzx9kdX/vhfjS+teq/1WV1kBAIavbpinz2yFLKMMhVIQ9g4rC/MUlOm00mH0Dus3zNM6fMOqqgebKHhV6Cge5inc02vTv62brXzdtW/1mnQs6Lk4NAqf1/r+O6tw24Rh3vOt/HXdYqVTfbu1rR6Gev7zVjrFttPr0vQKzd5m9S4rb/eZVv6cr6cCMi1LIdT3rHy6Ovus3555r7fSsp5l5cvxMK4ssHunlbZZnXWK/Qur+BgtGzcMYa/ITsHjMBDmAQAANKZ+zzz92NDpQBqvL9r+40OnCoVhn34oAACGy4OPbmGCeuR91kqf097ja7Hy3mFVoYhCIz3fVJjngVndU2cV5ulaeh4aKXzzwEyvZa+Vn6qr1/5Nqx+yEg/I/LX6ssNQLgzzFFy91UrbrlvbEq6L/t3vFlL6+mganUasx2rD2/U24tN+teytVr7O3fQb5in0+rpVvHx/nWfnj+ZoWm2rfoIx7Qdth7C9snHDpG2t3oT0zAMAAFi06od5+nKoL7gaH4Z5or81ruw5AMDg6oZ5Ch30GazQpCrE8pshvKEo7zXl4V+n5/VvgZ/euslKPYDUA8yXo+e9B5fW9w+tFIYoVNNjlYdbCjXitsPeYS+0Ctc/bFuhl/cO6xbmxb3DtN4a7+vo20nbLewZ5gYN8+qGifFpth5WKjDTuoU3nPB1DcO7OICLeZin7art6MtRsBe27T3kvG09PmQV9pYL162Mtn0YLoq36wGj1lmBXhhIvsWqlx5rg1wzz8PF8/NHczROx3TYY0/rqZBcj7WOfvOP51ipJ5+Ofx0bz7PSadP++tT7z48dlXrK6f0Uj9O8alc96vScjj+d+qs2LrbSeO03ha1+fP60la9fTG0pzPPj3tvUa9K2DU8bfpOVlq99o9fi01W1HSLMAwAAaMxwwjz9UCvrtQcAGA7/8d3pR7Y+e2+w0jTeu0qnT4b0ea3ATIGFArFLrPT5rmBGn+MK1To9rxBI470HmcKJMFDzQEqPFQpqHfS82i07LdZPM9UyFJB06h2mtn3+sO2wvZCvt6bx16E29DoU6Gn+MDyTsp5hHr40GeZ5W1qPsLxnWbdwTRRU6Y66X7MKg7k6bcf7otvytK3jME/HnsI7Hxc/VqCk48Gnr2OQMM8DLA/ftD67rfRawx5711v5++hXrXQc6/hXwOfbQX+rd6Pepx7EiQI9PR/2wovHaVv9iZUf+3pe2+UyKz9lVqc2e6D4H6x0TFf17FN7Cuw0jdrQY82j16XgUu8d75UYbjctV8d+3eOcMA8AAKAxw++Zpx9J+kIc0hdHffEt2p54v5XaC+kLpH5g+DSaXvO5uA2VfvSE4mn0d7ie+iIczq9l6n+t/bH+7sanL3sNADAqdcI8BW3eu06fw/rxXhYk6bNLYYKCOH9On5UKDdRrq9vzGq+246BQ0ygs8nUQBUVad82nz+BwPi1HvZy0DM2rMM+DOV+er39Z2x6kdAvzwm2gdtS7KVyfbj3D+g3zfFneE7GbbmGenq9ah27hmijM+5iV/i1X+bR12g63k3RbnrZlVZgXnvobtq0gT/u3zrZyg4R5vo7a5nrt2g46JrQttE4KvrTO8Sm2HraFPfokDgelTpin+RQEho/Da/cpiNM6+mssazOk1xWfZuttetCo16pA7wIr0Txvtup0/MQI8wAAABozeJgXB2j6kRfSdJpe86qN+LFoHo3Tl2jRY7XlwaBKf/s8Wqb+DsM8b1fT6XmV/lY73q68ysrX1QNDX148bcyXoek09G0AAKPWLczz8M4/y7z0WRmHU/ocVRigzz5vz+dXAKDpOz2v8WXtejAThnzhfBrvf6td9Y5TiYd+8fp7ENYpUOolzNP6eG8wrU/YM0yf6fo3wqd1/YZ5omBIoWR42m6o7AYYvvwwMNM06hEWvn69Fu/Jpu2n4LBqOeKn2frr9t5nCnp0emintrUN4hDO162Mtn3Zabbx6bq+P15tpV6lvW7jQcI8CYM5hXbaNnq9alfBl44HfS/w9ZWqMM0Ds17DPF9eeNyrbrLS6xpGmKftrPDOA0I91n+g+mOtu/Z3L9ufMA8AAKAx/YV5ZaUv4WutQuE8+vEnPs7DsHAaD+f0xdnb1d+azkM09aYTfRH13nFlbYiHdHpO00jctpSNq+I98+r04gOAYekW5umHePz5pc9O700X0uehwoBRhHlaXth7LpxPbXkop9BEvfK8DQUaCrOqXp/PN6wwT9skXB/vGebBWmiQME/roFBL/4bpNEpfV41XT0rfxj6dtqsHZOG6+fP6N05t6LHCJ9/W8fx6rO2r67qF7Wt+vQ4P/xQ8qT1/zuf1tjWvbzP9B1l4Mwvta10TUfsyFq6Pz/P/t9K/nfF21OuMw8K6Bg3zPIDTenmYqHVVGKZejLqLbXjMySjCPB37Va9hmGFefAqw9qt65+nY77VXJGEeAABAYwbrmacvl8X0+XOaJhSGcGWlHzESBmTx6bY+TbgsTRcuK1yOTy/6W+N8faVbmBfODwCp6BTm6fNQoUMcamm8fvTr8zOcz8fr887H6zPST2Pt9rzG6zM/Xp6m8fCwbD7xcE9hUdgLTtOp51kYDGnasHeYn67r8/QT5pWtT9gzzKcLDRLmidZDwZqW6//WqGe4XpOWp+cVfPk+vsVKQZI/VoimQEnrqh50Gq9rqPlrcOpp7s/r372XW1W1r2DRX5em1b+D2v7edth7ThRUedsK8LSt/twqni6k5eqab74+r7Eqm9bbjkOzOgYN88JtEwdd2j7ecy1UFab1G+b56w9P2/VjX8se1mm2X7EKb26hZej7lvZLP70iCfMAAAAaM1iYpy+CfiqrKg7CNI2mLXsupmn140bL0BfVuE0t30M/VXg9vKrl6G+fviy4I8wD0BYexMRhiD4bFYzps6ssKFHgpXn94vqieRQG6PM2vDGEh37dnvceY3GPLJ9P/y74fFq3OExUW5omnN/n1bRlPc88dAvbVjvdeofFr+M/WenfknB9fBuFQWFo0DAPnSlo8tC2V4OGeaLvHDq2wjBN6xSfEuzKppdOYZ6Cyl+y0rEdj9OxrfBNx773jNRNN3Tsa3p/LgzzypbvNL/m0XHvN8D4qJXfdTektvyU4l63P2EeAABAYwa/Zl4YhIXjJQzZNK/aKOOhm0/TKVy7ysqv0acfdfoS3C3Mq1pfwjwAbVEW5unzUqGAf37FN1rwkMqf12esB2Waz+9Mq+cUiHkPt07Ph23GgZxoXt0N16dRgODtOn0eK6iLwwN9nqt3mObTcuOeZ5rPn/feYfut4ulC4fro3wL1wIuX6+2WBYJCmDda/Zzi6YYR5um40/EY7l8dN2U3hFD45cfDt6w8UPMgT+NVHo75eB173iuubJzW4aCVjlP1jNR4D/L8vRT32AyXH9P6q1ek1lXLUe+7suNX66LlVrXTCWEeAABAYwYP88RDM5UHbBLOo/LTY1X6QqwQTdNqHj2v/3nWc3G4pmnCu8f6PL4e4XLCME7taZyHhDJomOe9AzUEgIXiP+D7CTxi+jxUWKfPu7L2uj2/2OjfkbIbXzjCvNHRseZ3NO7HMMK8caYwz0/n7RVhHgAAQGPqh3n6seOhm8pvRCFhmKZSiObCoCwsn0btKpQLnwuvmaeeF8+zUvse9vnywuDQl+PBXZ272XpwVzfMC9c1DjQBYJQI80ZHYUanz3PCvOF7qZW2q3qh9XOtPEeYNxid5ttvr0jCPAAAgMZ0D/M8OCvGn1ZhmFYWynmIpuAvDMHUK0/tOgV24XO6K64vU6daPdtKF3fXDy4/5UtDBXYhrYM/79OEP9DKgkVdlyZe706BHj3zADRhmGGePrd1Wqn+g6SsvW7PLyb6t6hbzzDCvHQR5vVPx/6vWvV7XBPmAQAANKZ+zzwAQHOGFebpPzh004jis/4x19nr9vxioZ5h2qb6T5+qa+U5wrx0Eeb17iVW2m7qFdnPtfIcYR4AAEBjCPMAoA2G2TMPvSHMSxdhXnMI8wAAABpDmDdsZacbUxS1uEuXHOjWu2tQhHnNIcxLF2FecwjzAAAAGkOYBwBtQJjXHMK8dBHmNYcwDwAAoDGEeQDQBoR5zSHMSxdhXnMI8wAAABpDmAcAbUCY1xzCvHQR5jWHMA8AAKAxhHkA0AaEec0hzEsXYV5zCPMAAAAaQ5gHAG1AmNccwrx0EeY1hzAPAACgMYR5ANAGhHnNIcxLF2FecwjzAAAAGkOYBwBtQJjXHMK8dBHmNYcwDwAAoDGEeQDQBoR5zSHMSxdhXnMI8wAAABpDmAcAbeBhHkVRVDJ14sSJbOnSpa0aLlu2LDt+/PjYDpcvX54dO3ZsbIcrVqzIjh49OrbDM844I3vkkUfGdnjmmWdmDz/88NgOzzrrrOwHP/hBEsOHHnooW7lyZWPDI0eOZKtWrWps+OCDD2arV69ubPjAAw9kZ599dmPDw4cPZ+ecc05jw/vvvz973OMe19jwvvvuyx7/+McPOPyyfRcjzAOA1BHmURSVZNUJ0FIa1gm8FvOwTuC1mId1Aq/FPKwTeC3mYZ3AazEP6wZtCzGsE7iNclgncBvlsE7gNsphncBtlMM6gdsoh3UCt1EO6wd21cOJiVutCPMAIHWcZtscTrNNF6fZNofTbAEAABrDabYA0AaEec0hzEsXYV5zCPMAAAAaQ5gHAG1AmNccwrx0EeY1hzAPAAAM6petbrB6G9VrveqRiYnt9l3sNivCPABIFWFecwjz0kWY1xzCPAAAMJDp6em/t4F/16b6Kl07jzAPAFJFmNccwrx0EeY1hzAPAAAMZMmSJf/95S9/+axu0oLefPazn81vaEKYBwBpI8xrDmFeugjzmkOYBwAABkKY1z/CPABoB8K85hDmpYswrzmEeQAAYCCEef0jzAOAdiDMaw5hXroI85pDmAcAAAZCmNc/wjwAaAfCvOYQ5qWLMK85hHkAAGAghHn9I8wDgHYgzGsOYV66CPOaQ5gHAAAGQpjXP8I8AGgHwrzmEOalizCvOYR5AABgIIR5/SPMA4B2IMxrDmFeugjzmkOYBwAABkKY1z/CPABoB8K85hDmpYswrzmEeQAAYCCEef0jzAOAdiDMaw5hXroI85pDmAcAAAZCmNc/wjwAaAfCvOYQ5qWLMK85hHkAAGAghHn9I8wDgHYgzGsOYV66CPOaQ5gHAAAGQpjXP8I8AGgHwrzmEOalizCvOYR5AABgIIR5/SPMA4B2IMxrDmFeugjzmkOYBwAABkKY1z/CPABoB8K85hDmpYswrzmEeQAAYCCEef0jzAOAdiDMaw5hXroI85pDmAcAAAZCmNc/wjwAaAfCvOYQ5qWLMK85hHkAAGAgizXMu/POm7P3vO5nsjOffWP2hSNHs9li/DAR5gFAOxDmNYcwL12Eec0hzAMAAAMZJMy7+bpzsrOW5d9FHlsbNmQbXvmn2RcfPjGSIK2jO3dn173ul7NnL1+eLdnwDsI8ABhzhHnNIcxLF2FecwjzAADAQAbumXfnzdl1q8/Klk1syz56+OHsRD7uzmz3a1dnZyy37ykbdmZ/d+TYwgd62Z3Ze597dnbmT8Rh3s3Ze9/71ezo0cHXiDAPANqBMK85hHnpIsxrDmEeAAAYyOCn2d6Z7f651dkZS4IwL2fjn6vxE9m1Hz2cPfzoEwvm5usel6189ulh3p3vfW525b+/I3uQMA8AxgZhXnMI89JFmNccwjwAADCQhQjzNuz8u+zIsYXvm/eYMO/O92bPPfvM7Cfe8QXCPAAYI4R5zSHMSxdhXnMI8wAAwEBGF+bdnF13zsps+cSGbOffHclOy/J0TbufPSNbviT/HpNtuHZndsfD0am4On33Sptf02y4NnvHja/Jfvnfvyt7zZlnWpuab0P2ji/MtXvn7udmZ5+5ZK6td3xhPjgMw7xv3HxdduXK5dmSue9O89MOEuoR5gFAOxDmNYcwL12Eec0hzAMAAAMZRZinO8m+9mfngrjH9Mq7+brsuT/zmuxPv2jTavSdu7Pnrj4jW3LatfXmevVtvrGY19rbfeVKezwX1OUh3fJHw7yctfu4lcsrw7x8DD3zAGAsEeY1hzAvXYR5zSHMAwAAAxlemJd/J5kv9bb7078/NhfYzZsL6X75T0+/hp6Hc4/24Ls5u+5xK7PXfPT+R6dTb773fCV72CaY64n3E6eHeQoFi6COMA8AECLMaw5hXroI85pDmAcAAAYy9J55pT3tCv7c3PeXx9S1QXinwG71GT9h4+7Ivnxi9rR2CPMAAL0gzGsOYV66CPOaQ5gHAAAGMpLTbPMgbsljT7HNw7zN2Y3xNfSqBNfN23DtR7M7Hj6Rh3KEeQCAXhDmNYcwL12Eec0hzAMAAAMZzQ0w5k6nPWNJdPOLomfeT5Td3fbm67Lr/vzh006/dXfafK+78sxs+U8omDuWfYMwDwDQA8K85hDmpYswrzmEeQAAYCCjCfPE72Z7bUnIpxtjfDT74rG5nnZ5EHflL2d/eiSY7rr3ZF8J73Cbh3Wbsxu/cCT7ynsI8wAA9RHmNYcwL12Eec0hzAMAAAMZOMzTqbCrz8qW2XeSbR/9u+zh8I4XN1+XnbNyeTaxYWf20S8WN8PwcXPfYebr9FNy50K/zTd+NLujCPzmTq19ZfbR+x/OTsR3rtXdbl/3M9nm5UuyJRs2ZNe+8sbsyw//Wfa65+oU3Wuzd3zh4SzP7oowb8m1H83u+8FXs5vf+57sq0eLoK8PdcK8Z1jda1WMpyiKooq60+rJVguBMK85hHnpIsxrDmEeAAAYyCBh3s3XnZOdtSz/LhLU6T30NM3K5f7c3Gm3X/mL3dnrfuaM/Fp4Gnftzi/md6l9lHrmvS779+96Tbb5jOVzN8zYcG32jjsenu+Jd/N1z7V2l8zN/9E7soe/9p68594r3/Gn2Zf/7N3ZlSvPPO1GG35zjZvfa/OdafPl7f1gLuTrEz3zAKAdCPOaQ5iXLsK85hDmAQCAgQx+mu34IswDgHYgzGsOYV66CPOaQ5gHAAAGQpjXP8I8AGgHwrzmEOalizCvOYR5AABgIEuWLPnKz/7sz87+xV/8RXbgwAGqZv3t3/5t9pd/+ZeEeQDQAoR5zSHMSxdhXnMI8wAAwECmp6e/agP/rk3VrAsvvDD7z//5PxPmAUALEOY1hzAvXYR5zSHMAwAAA6FnXn9FzzwAaA/CvOYQ5qWLMK85hHkAAGAgXDOvf1wzDwDagTCvOYR56SLMaw5hHgAAGAhhXv8I8wCgHQjzmkOYly7CvOYQ5gEAgIEQ5vWPMA8A2oEwrzmEeekizGtOHuadOHEiW7p0aauGy5Yty44fPz62w+XLl2fHjh0b2+GKFSuyo0ePju3wjDPOyB555JGxHZ555pmZQoNxHZ511lnZD37wgySGDz30ULZy5crGhkeOHMlWrVrV2PDBBx/Mg5imhg888EB29tlnNzY8fPhwds455+Q3crjmmmvy4xO9IcwDgHYgzGsOYV66CPOa4z3zagVoKQ3rBF6LeVgn8FrMwzqB12Ie1gm8FvOwU9A1DsO6QdtCDOsEbqMc1gncRjnsFLQtxLBO4DbKoYI8BXpPeMITspe//OX5MYreEOYBQDsQ5jWHMC9dhHnN4TRbAAAwEE6z7R9hHgC0A2Fecwjz0kWY1xzCPAAAMBDCvP4R5gFAOxDmNYcwL12Eec0hzAMAAAMhzOsfYR4AtANhXnMI89JFmNccwjwAADAQwrz+EeYBQDsQ5jWHMC9dhHnNIcwDAAADIczrH2EeALQDYV5zCPPSRZjXHMI8AAAwEMK8/hHmAUA7EOY1hzAvXYR5zSHMAwAAAyHM6x9hHgC0A2Fecwjz0kWY1xzCPAAAMBDCvP4R5gFAOxDmNYcwL12Eec0hzAMAAAMhzOsfYR4AtANhXnMI89JFmNccwjwAADAQwrz+EeYBQDsQ5jWHMC9dhHnNIcwDAAADIczrH2EeALQDYV5zCPPSRZjXHMI8AAAwEMK8/hHmAUA7EOY1hzAvXYR5zSHMAwAAAyHM6x9hHgC0A2Fecwjz0kWY1xzCPAAAMBDCvP4R5gFAOxDmNYcwL12Eec0hzAMAAAMhzOsfYR4AtANhXnMI89JFmNccwjwAADAQwrz+EeYBQDsQ5jWHMC9dhHnNIcwDAAADIczrH2EeALQDYV5zCPPSRZjXHMI8AAAwEMK8/hHmAUA7EOY1hzAvXYR5zSHMAwAAAyHM6x9hHgC0A2Fecwjz0kWY1xzCPAAAMBDCvP4R5gFAOxDmNYcwL12Eec0hzAMAAAMhzOsfYR4AtANhXnMI89JFmNccwjwAADAQwrz+EeYBQDsQ5jWHMC9dhHnNIcwDAAADIczrH2EeALQDYV5zCPPSRZjXHMI8AAAwEMK8/hHmAUA7EOY1hzAvXYR5zSHMAwAAAyHM6x9hHgC0A2Fecwjz0kWY1xzCPAAAMBDCvP4R5gFAOxDmNYcwL12Eec0hzAMAAAMhzOsfYR4AtANhXnMI89JFmNccwjwAADAQwrz+EeYBQDsQ5jWHMC9dhHnNIcwDAAADIczrH2EeALQDYV5zCPPSRZjXHMI8AAAwEMK8/hHmAUA7EOY1hzAvXYR5zSHMAwAAAyHM6x9hHgC0A2Fecwjz0kWY1xzCPAAAMBDCvP7VCfOeYXWvVTGeoiiKKupOqydbLQTCvOYQ5qWLMK85hHkAAGAghHn9o2ceALQDYV5zCPPSRZjXHMI8AAAwEMK8/hHmAUA7EOY1hzAvXYR5zSHMAwAAAyHM6x9hHgC0A2Fecwjz0kWY1xzCPAAAMBDCvP4R5gFAOxDmNYcwL12Eec0hzAMAAAMhzOsfYR4AtANhXnMI89JFmNccwjwAADAQwrz+EeYBQDsQ5jWHMC9dhHnNIcwDAAADIczrH2EeALQDYV5zCPPSRZjXHMI8AAAwEMK8/hHmAUA7EOY1hzAvXYR5zSHMAwAAAyHM6x9hHgC0A2Fecwjz0kWY1xzCPAAAMJDp6em/t4F/16b6qvIwj6IoiqIoiqIoiqIoiqKoZGq91bOs/sZqLswr0DMPAACj/y2kV16a1DOPXnnNUM88euUBAAA04vb75nI7FWEeAAAAAAAAkDDCPAAAAAAAAKAlCPMAAAAAAACAliDMAwAAAAAAAFqCMA8AAAAAAABoCcI8AAAAAAAAoCUI8wAAAAAAAICWIMwDAAAAAAAAWoIwDwAAAAAAAGgJwjwAAAAAAACgJQjzAAAAAAAAgJYgzAMAYLF6vtWslf5Nj+trVv/O6klWsU7zhfUhqymrX7PS9L9uNWkVW2/1PSufPvY8qz+3OmXlbf+FldajrD3X73whvf6DVs+0KptHy/gvVvEyLrXqtIyVVp+0+r7Vs6ziaf+D1X6rV1mt0ogSauMXrLT8N1pp2+m1zVj5uvx/7Z1XrC1VGccv3H4v3AKixpbYfTAaTeQB25M1YomJ5VGJL5aowQhYXyQmgiERWwJGiQV90FgxsaOJISGCSkRjQUVATbyU2wug329z/8nnYq2Z2fsMZ5999v+XfOGuPTOrzeHMnN/+1kyOP0acH7ErokZrLK+IKPvX1w4/O4+KKGE++dniXG/kgwLGRJvMy3MiavOisU7DSyMYW/65Zf6fFtF1nlrHMSfT9qHFyyNORLw6oqtO7ad+dAV10cfW/pyjyyIeHdE1fmOMMcYsJJZ5xhhjzHpliJT7T0QpsoYcR5Qyr1YXdMm8SyKyXCoDaVQegxDiuK4+XhHRklqZz0dcFVFrA6nT1TfkZUvOMOZ/R7T2Q1qp/6+KqAmXLNRUR5dkU3wxIou0IfN1ZcTuCDGkHc53KeT6ZB7z8q8Ijn9vRDkvbL85oiZAa0gOdp2nWjsc97GIrjGWczIr85B5Cs7R2RFD5tIYY8x8eHHEtyLy7/QfRvC7flOE4AuoQxH593wtvhKxPQIeGfHbiC9F6LOdEW+LuD2C6+e+iAsjEELl9WLafS+OuCOib98Wj4j4acQ5EbqPeGLENyI0P9R7ecTDIvrqfUnEwYg3RGzmgx4Yw1sjbovQGC6KODOibIt+fT3ieETu11kR2pf2D0Tk85PjzxHMUa3+T0dwD7NtUnoQlnnGGGPMekVS7pUR5Q0CN3eXRnCj8pcIMnhE13E1JPO4d/hxRCnRWjJPnyMcyuyw50VcF0H/yn4g4Pj8+giOy5ltZJ/puJo8zDBO2q+Jo9xGFpRIoNdHqN8t6YSs4wbtRyf/+5iIDNvJTusSX+zzhwjaKWVeTQA+KYIswzIbUOKwb76yBOxqh58dycFbIh4bIfpkXjkvHFvWzz4I1trxJXlsecycp9dFIFRr0vFzETru3Ig8J/yxxDxqTvIfUrMwVOaVSFQyV3v4oKCrXv4YkqzkHD0uopxnY4wx8wf5dSyCe6haIIckc8aSeZ+NkIBqHSda+14dsSNCIMG+HVH7kqnct4vPRHAPoP2fEfG3CK7JZb2/iuDep3VtzccOlXkItNr5YAyMUVD3XyNq/boh4skR9KtP5im+GpHrB9pgjM+PqNwTWeYZY4wx65UhUk7SiqWN2mcWmYdA+loEdZXHtWSeJGCrndpx+qwmDQUS5AcRtb5kWll5Elm00crM0j41YYjQYpkj294YUZNiklofP/nfUvapjg9HMN4hMg+0XfszXwitrrEwX8pCVL197YBEWs5865J5eZvmpSaikFT0ubYMNyOZxdhqsgu0TxaVzAnZgV3HSaQxvmklXMk8ZJ6QtLwgYogcNcYYs3oga26N4Eun10bkL4/ITPt5BNdKvpxim2SeykMoZZ7qQBLRPtcPMsx+FpHbgrzvMyPKfflyU/sqA45tuV7a5h6RL2n7rkPUwXxIXiG3lLH45ogtEUC9EocfiNgaUZKPxW0NkXkSb4yXewWNgUxB6lEd1P3Nk5+dF1H2C/n5wQgkrOpstf+iiL9H8DPwgohyjpCL3KuWoi+wzDPGGGPWKwiZPimHYPlTRJZSQ47LSOaR9UVdZaZfTcrBtO0AAo62Ws+4E5JYZZtC22ttq42upZ6IFm4snx1R7pNFGM+VQ8qVMk0yjzmjH6U0ow7mUtunlXnaTjt9Y4E8X9xI9rUDNXHXJfNUJ/KJeWG/mlDjD49WHRnGxs9Vl/TjPL0pIp8nBFffccCcIP1Wmp03T5nHXJLdOUaGoTHGmHF5R8TRiJack+z7ckQWcSuReWTacW0r5RptIZXUFgzZVxl0b49gKW65ryTf+yNq0i1TZuWRZf6biNyO6NoG9Ielsh+JOBIxROYhzv4ZUWbCMV4y/MhcRKrR9q8jaLuUbOW2PpkHXfuwjbmuiD7LPGOMMWa9gjzpk2UIA7LYEAbKdBtyXEYyD8GGfOJY5JOObck8tU1GGM+4o93WyyCg1tcWffu+O4I+lZKL48hS47hZnpem43O2XU2oSebxGbJPsk6wnT68MGKozNMyW2QqbU8zlnLfrnZErf6WzMvzoqW1XTJO81NbhgvU1yW6Wkxz3KxtlMxT5o01BmOMMeMzrZxbqczjGXNkjnFNeHhEvr4invI2rh9D92XbSmWehBlj65Nu0CXz1CaZg9yXDnlmHmMi244xMWfleFvbSsaWedR3Y0RFHFrmGWOMMeuVoVKOTDTEibLpdBz3Aq1gOYCy47LMo1xmz7VkHnCzyDe/CL1cPwKCfuR+17IIu9C4yiWs0NpGG1oiO414Ecpwy3KuzHoDySrapy/cIGYhJsFHRllN5uW5ysF5kYDLYym+za2SBdoQmQf5GGjJPGW5lfOizLeyf5Ktrew5bqaHZO+V5OOG/CFEFp/G1zUPXcxT5gFj4P8bPzfPGGPWFsiZ70Twu5x7Ae7XuBdo/a5eqcx7fPp3+Ww84H6M+wa+HOR63rUvWXRcT3k2HP1Vth5LUvk31yUtyeV63rfMVjKw8Xy4ByFhVy6zLSWf9uuTeaWEKyFrj/E+JaLrmisxN9YyW1DbT41IbVvmGWOMMeuVeck8yTuWUJIV96yTZQRK6wYIccGNHg/tZ1mg2lEdwI3lGDKPtlpZe1mADWmjhDbLLDzaq2Xrqcx8I+x0TC4zd9PIPOKyCMa1lmQe+zEvWc5JVun43E6fqLLMs8wzxpj1AOLoExHlSyZmfZvtvojnRujauFoyD3ju3z8i8he09GdItl2ur+9aqSw+xCESLl/bVI+k22rKPPrFSzHoF/NOvyTz8jmqxaciasuFgbcJM6+F7LPMM8YYY9YrknKrucxW+/OZ6hgi80ro14ciqEPH1fraomvfvm1Dl6aWSJ6VWYY5JOWyzNNxeZvaLzP9uiQbfeebYOaM/Rnb0LGU4x4i82pzVZN5+qxrXvJLNKBPVNH2LMtHpzlu1jZK5inzxhqDMcaYhxYEEi+9+GjE7yK4lnN9JLNNS1nXssyTlKy9CfaTESzxbd1PcCwvq+BaVcq5Eok8vlQus/jI7jscwfJaibvVknkSeWWGXZ/M416QZ/vqJRo1qGN/BC8PS2OwzDPGGGPWK0OknLLosmgbQ+ZxE0g2EM9v43klZRvazo1bS8whIpBu+YUaynzLbdWQBKsJRNXbaruWXVej3E8CTDdotdCLMHLWIP2RFGMJRRZ708g8yHXRjjLi+saS54sb0CEyj2NYJlsTd/mzofOSZdMQUcXY+Lnqe5FFud8yvQCDMfAwb78AwxhjFguE0kURvCCDFy8g1NbyMlvKiDxk5JknP2MMF0cwhq5n5g2VeZJ1+e26QpKvbGc1ZB6Zc/Trhgiuu3m7ZF5u/wkRPHOQ+y5egtL3YhDLPGOMMWbJGCLlkEpkTOV9hhyXqck8UD3c/PBNZSnW+sRcTeZxk4SIyctvS3RcOS6h7S2ZRxvcYEm81Sj3kUTTyydqIJXoE4LsCxGSeaBnxL0l4vcRkm9qZ1qZp7q1TLdrLDpGfaPevnaA8XB+8z6lzMv90VLcEtWTpdRQUYVsK0VgprbPkOPoNyKt7NcszFPmIS4Zw2siVjIGY4wx44JkuyniJxFnRdSutUglpA9ffiLYXhaxFl+AQRutl1FI1DGG1hJa7UN9NZmn7VzzyFSs7SPRpy8Ja0HWYuuZfLQx7Qsw9Dn9ujaiPA5qMg90LMur9Xy9FpZ5xhhjzJLRJeW44bg0AoGD1MhSayyZB5KF3FeUMk/tIPrOj8hvsuWGT0KuJgH5/PoIsv5ym9zoXhdROy6TM+NqtNrg5vadEYg3xiSRJekmiVUj73NVRG5f234ZkYWgPh8i8+ibltnml0pIlvXNVz6mqx1+di6JoM5SEpYyT+Ksb16UAad9+l6AIfLYzo3Q+dZ5Yu44T6XwkuQqjwMyH3grsOZkpRlt85B5/KHD8yc5h/yh2JKWxhhj5geZcFz/8rLYDMJnTJlHhp3aLF9IQWYbL2JAyCkTb8i+yDvaeKhknrZxvStfdpFZqcwDsu/IZi/3UdYfGZL0B/ivRB79asm4lswDZQNyD916+QVY5hljjDFLhmSZbmJqkV9kIYYcRyhjrkvmIWokvmpyTc/WK+tWIFuUlSeQHJJJtWOIKyJamXsgWdRafkobylar1U9IsAH10Z+uTDbVyVwhvLK0y+1lqdWSebX+KDineVxD5uvKiCzlhrZTyrZS5jEvLSko6B/SinlRfUg6Hv7dJ6F0bNd5Kp/HBxwn2VU7hijn5F0RnIs85tpnJZJutTYUNSGnsfXJvFp9Cs7R2RG5b+pz+bkxxpjVRctmkUwXRuyN0O9l3gT73Qh+z4+1zDbXwVJVJBXXHr11lmtirjvvq2WteV+eTce+iC2kI33Nz8fjcy2zvTqi9YIHaL0AQ8t383PwpgERNmSZLUi8MV7uvzReXmjB2HIdiD/61Vdvl8wDbW9l9oFfgGGMMcYsGV1SjhsmRFrOhhNjyjyQsKvJPOCG6XsR1KG6u/on+Ib6mogscpAf9L9PUpSSrAYyhZvHX0SUbeSxIrB4xkzXElsh6Uc9t0Tk/WvLVqeReYgbJCbP3auNn/linsuxlNl60NUOYyWTsiZLs8xjbPybeWktsRWSfog3fqY4ruvcZDhP/PFRnifkaN+zAvlDhTnJP+8cx5yUbS+SzOMcvSeitrTaMs8YY9YOPDMN2VX7XU4glhBK/L6WXKvtl4MXMZDJxzGlzAMy7sq35xKShpnWvqWcU7Ze7cs1ZGWZ3VdCZt3tETkrThlxtToVjLWV8QctmUd7t0WUWXiSdGU7jFdZefSLdvv6xfP1uPfqknlAm/wMtJbbsp3VKoXss8wzxhhjzHLCUlpESVcGn1l9kFR9gmwtQYZfS2QbY4wxfSCHWLLJtU+CiGWpF0TkbL2xZB5SikzAOyJoT5mBCKHyWjbNvkjHyyOyDOMZwU+P6PtyTuLufRFaSisRl8dWxtgyj/Ey74hFjZcXkeilHqBsulp/FNPIPJbb3hjBl9rlclttY14K0WeZZ4wxxpjlhOyzrqW2Zj6QocgzBbu+wV8r8EfS9yPIPPTPkDHGGDM7LKklA618bt4ygzgk47HyTD3LPGOMMcYsL2TnIY76vjE2qwPLim+OWBTBShbheRH++THGGGNWBuLq1oiul1QsGyyx5T5VS3wTlnnGGGOMWV54xhtvLvUyybUBWXk8681yzBhjjFk+yM5DXnW9LGNZYOkxz0xsyE3LPGOMMcYYY4wxxhgzX1hiy9tjz4lY9uw8svJ4MVjtpRiBZZ4xxhhjjDHGGGOMMQuCZZ4xxhhjjDHGGGOMMQuCZZ4xxhhjjDHGGGOMMQuCZZ4xxhhjjDHGGGOMMQuCZZ4xxhhjjDHGGGOMMQuCZZ4xxhhjjDHGGGOMMQuCZZ4xxhhjjDHGGGOMMQuCZZ4xxhhjjDHGGGOMMQuCZZ4xxhhjjDHGGGOMMQuCZZ4xxhhjjDHGGGOMMQuCZZ4xxhhjjDHGGGOMMQvCg2Xef+GkzJuEcNlll+dXPuWUUybl+++/32WXB5fvu+++SfnUU091eQnL995776S8ceNGl1N506ZNk/KJEyeWsrx58+ZJ+fjx40tZ3rJly6R87NixpSxv3bp1Uj569OhSlrdt2zYpHzlyZCnL27dvn5QPHz68lOUdO3ZMyocOHVrK8s6dOyflgwcPronyaaedNikfOHBgLuXTTz99Ut6/f/9cyrt27ZqU77nnnrmUd+/ePSnffffdcynv2bNnUr7rrrvmUt67d++kfOedd86lfMYZZ0zK+/btm7F8U5STzONDduAD8UB5dgnhsssur7w8tuRxeTnKY0khlxezPLYEWy/lsaTYopbHkmKLWh5Lii1qeSwptqjlsaTYopbHkmKLWh5Lii1qeSwJN1Z5LCk3a3ksKTdreSwpN2t5LCk3a3ksKTdreSwpN2t5don3QHnDhmsj/j8zzxhjjDHGGGOMMcYYs+bZsOF/8hiKBl0NjmkAAAAASUVORK5CYII=;" vertex="1" parent="1">
          <mxGeometry x="-430" y="-90" width="1267" height="923" as="geometry" />
        </mxCell>
      </root>
    </mxGraphModel>
  </diagram>
</mxfile>
